<mxfile host="app.diagrams.net" agent="Mozilla/5.0 (Macintosh; Intel Mac OS X 10_15_7) AppleWebKit/537.36 (KHTML, like Gecko) Chrome/139.0.0.0 Safari/537.36" version="28.1.2">
  <diagram name="Страница — 1" id="Pfu7GVBom9j0ceS-K93y">
    <mxGraphModel dx="2404" dy="2019" grid="1" gridSize="10" guides="1" tooltips="1" connect="1" arrows="1" fold="1" page="1" pageScale="1" pageWidth="827" pageHeight="1169" math="0" shadow="0">
      <root>
        <mxCell id="0" />
        <mxCell id="1" parent="0" />
        <mxCell id="946yB2kiyRNA8O-wq0YF-64" value="" style="rounded=0;whiteSpace=wrap;html=1;fillColor=#dae8fc;container=1;dropTarget=1;collapsible=0;recursiveResize=0;strokeColor=#6c8ebf;" vertex="1" parent="1">
          <mxGeometry x="920" y="65" width="210" height="295" as="geometry" />
        </mxCell>
        <mxCell id="946yB2kiyRNA8O-wq0YF-63" value="" style="shape=image;verticalLabelPosition=bottom;labelBackgroundColor=default;verticalAlign=top;aspect=fixed;imageAspect=0;image=data:image/png,iVBORw0KGgoAAAANSUhEUgAAAyAAAAMgCAYAAADbcAZoAAAAAXNSR0IArs4c6QAAAERlWElmTU0AKgAAAAgAAYdpAAQAAAABAAAAGgAAAAAAA6ABAAMAAAABAAEAAKACAAQAAAABAAADIKADAAQAAAABAAADIAAAAADAlM0/AABAAElEQVR4Ae3dCZgkZ30f/rd7ZvaaPXSvLoR2BRKSQAbEISTMYfy3/zwOAWw/JDHm7wtzxQ7xJWMD8mIwxBhjm8sGTGxsHOexExvhEJsEAeEIksUhQFoJofs+Vqu9ZvaYme5/laS2VjuzO91d1V31vvWp51nNTHfVe3x+pen+Th0dgoUAAQIECBAgQIAAAQIECBAgQIAAAQIECBAgQIAAAQIECBAgQIAAAQIECBAgQIAAAQIECBAgQIAAAQIECBAgQIAAAQIECBAgQIAAAQIECBAgQIAAAQIECBAgQIAAAQIECBAgQIAAAQIECBAgQIAAAQIECBAgQIAAAQIECBAgQIAAAQIECBAgQIAAAQIECBAgQIAAAQIECBAgQIAAAQIECBAgQIAAAQIECBAgQIAAAQIECBAgQIAAAQIECBAgQIAAAQIECBAgQIAAAQIECBAgQIAAAQIECBAgQIAAAQIECBAgQIAAAQIECBAgQIAAAQIECBAgQIAAAQIECBAgQIAAAQIECBAgQIAAAQIECBAgQIAAAQIECBAgQIAAAQIECBAgQIAAAQIECBAgQIAAAQIECBAgQIAAAQIECBAgQIAAAQIECBAgQIAAAQIECBAgQIAAAQIECBAgQIAAAQIECBAgQIAAAQIECBAgQIAAAQIECBAgQIAAAQIECBAgQIAAAQIECBAgQIAAAQIECBAgQIAAAQIECBAgQIAAAQIECBAgQIAAAQIECBAgQIAAAQIECBAgQIAAAQIECBAgQIAAAQIECBAgQIAAAQIECBAgQIAAAQIECBAgQIAAAQIECBAgQIAAAQIECBAgQIAAAQIECBAgQIAAAQIECBAgQIAAAQIECBAgQIAAAQIECBAgQIAAAQIECBAgQIAAAQIECBAgQIAAAQIECBAgQIAAAQIECBAgQIAAAQIECBAgQIAAAQIECBAgQIAAAQIECBAgQIAAAQIECBAgQIAAAQIECBAgQIAAAQIECBAgQIAAAQIECBAgQIAAAQIECBAgQIAAAQIECBAgQIAAAQIECBAgQIAAAQIECBAgQIAAAQIECBAgQIAAAQIECBAgQIAAAQIECBAgQIAAAQIECBAgQIAAAQIECBAgQIAAAQIECBAgQIAAAQIECBAgQIAAAQIECBAgQIAAAQIECBAgQIAAAQIECBAgQIAAAQIECBAgQIAAAQIECBAgQIAAAQIECBAgQIAAAQIECBAgQIAAAQIECBAgQIAAAQIECBAgQIAAAQIECBAgQIAAAQIECBAgQIAAAQIECBAgQIAAAQIECBAgQIAAAQIECBAgQIAAAQIECBAgQIAAAQIECBAgQIAAAQIECBAgQIAAAQIECBAgQIAAAQIECBAgQIAAAQIECBAgQIAAAQIECBAgQIAAAQIECBAgQIAAAQIECBAgQIAAAQIECBAgQIAAAQIECBAgQIAAAQIECBAgQIAAAQIECBAgQIAAAQIECBAgQIAAAQIECBAgQIAAAQIECBAgQIAAAQIECBAgQIAAAQIECBAgQIAAAQIECBAgQIAAAQIECBAgQIAAAQIECBAgQIAAAQIECBAgQIAAAQIECBAgQIAAAQIECBAgQIAAAQIECBAgQIAAAQIECBAgQIAAAQIECBAgQIAAAQIECBAgQIAAAQIECBAgQIAAAQIECBAgQIAAAQIECBAgQIAAAQIECBAgQIAAAQIECBAgQIAAAQIECBAgQIAAAQIECBAgQIAAAQIECBAgQIAAAQIECBAgQIAAAQIECBAgQIAAAQIECBAgQIAAAQIECBAgQIAAAQIECBAgQIAAAQIECBAgQIAAAQIECBAgQIAAAQIECBAgQIAAAQIECBAgQIAAAQIECBAgQIAAAQIECBAgQIAAAQIECBAgQIAAAQIECBAgQIAAAQIECBAgQIAAAQIECBAgQIAAAQIECBAgQIAAAQIECBAgQIAAAQIECBAgQIAAAQIECBAgQIAAAQIECBAgQIAAAQIECBAgQIAAAQIECBAgQIAAAQIECBAgQIAAAQIECBAgQIAAAQIECBAgQIAAAQIECBAgQIAAAQIECBAgQIAAAQIECBAgQIAAAQIECBAgQIAAAQIECBAgQIAAAQIECBAgQIAAAQIECBAgQIAAAQIECBAgQIAAAQIECBAgQIAAAQIECBAgQIAAAQIECBAgQIAAAQIECBAgQIAAAQIECBAgQIAAAQIECBAgQIAAAQIECBAgQIAAAQIECBAgQIAAAQIECBAgQIAAAQIECBAgQIAAAQIECBAgQIAAAQIECBAgQIAAAQIECBAgQIAAAQIECBAgQIAAAQIECBAgQIAAAQIECBAgQIAAAQIECBAgQIAAAQIECBAgQIAAAQIECBAgQIAAAQIECBAgQIAAAQIECBAgQIAAAQIECBAgQIAAAQIECBAgQIAAAQIECBAgQIAAAQIECBAgQIAAAQIECBAgQIAAAQIECBAgQIAAAQIECBAgQIAAAQIECBAgQIAAAQIECBAgQIAAAQIECBAgQIAAAQIECBAgQIAAAQIECBAgQIAAAQIECBAgQIAAAQIECBAgQIAAAQIECBAgQIAAAQIECBAgQIAAAQIECBAgQIAAAQIECBAgQIAAAQIECBAgQIAAAQIECBAgQIAAAQIECBAgQIAAAQIECBAgQIAAAQIECBAgQIAAAQIECBAgQIAAAQIECBAgQIAAAQIECBAgQIAAAQIECBAgQIAAAQIECBAgQIAAAQIECBAgQIAAAQIECBAgQIAAAQIECBAgQIAAAQIECBAgQIAAAQIECBAgQIAAAQIECBAgQIAAAQIECBAgQIAAAQIECBAgQIAAAQIECBAgQIAAAQIECBAgQIAAAQIECBAgQIAAAQIECBAgQIAAAQIECBAgQIAAAQIECBAgQIAAAQIECBAgQIAAAQIECBAgQIAAAQIECBAgQIAAAQIECBAgQIAAAQIECBAgQIAAAQIECBAgQIAAAQIECBAgQIAAAQIECBAgQIAAAQIECBAgQIAAAQIECBAgQIAAAQIECBAgQIAAAQIECBAgQIAAAQIECBAgQIAAAQIECBAgQIAAAQIECBAgQIAAAQIECBAgQIAAAQIECBAgQIAAAQIECBAgQIAAAQIECBAgQIAAAQIECBAgQIAAAQIECBAgQIAAAQIECBAgQIAAAQIECBAgQIAAAQIECBAgQIAAAQIECBAgQIAAAQIECBAgQIAAAQIECBAgQIAAAQIECBAgQIAAAQIECBAgQIAAAQIECBAgQIAAAQIECBAgQIAAgXoJtOo1HKMhQIAAgboIbLlmz4kznc7Pbp9r/8COhdamB+Y6J+yYb62aWehM7OuEh14/VrVDd3qivbBhqrv32Ilw/1FT7ZuOmep+du2q7p9tecK6++oyF+MgQIAAgfoICCD1qYWRECBAoHKBd1w384zb9nUvuX62+8Ib9nbXzneHG9Jk9upyxurW7jNXh8+dsrL921vOmf7GcC3ZigABAgRSExBAUquo+RAgQGAIgYu/vefXvz3b/bVvz3SP7QwZOg7XbTt7pXnKdHvbudPt333vU9a853DreZwAAQIEmiEggDSjzmZJgACBJQUu3jrz5q882H3zjXs7q5dcoeQHN69uzT5nXevtv3/e2v9UctOaI0CAAIFIBASQSAplmAQIEChTYMv1u5/39R2t/3rlrs5JZbbbb1vnr2/f9eTpzr/53XPXf7nfbaxHgAABAmkICCBp1NEsCBAg0LfAr1w984FLt3XesGe+W+lrwMpWN3z/MROf+MTT1r6q78FbkQABAgSiF6j0xSd6PRMgQIBARALvvKN77Dfumf3nL+9Y2FynYT9nfevGZ21c+8zfeHzrwTqNy1gIECBAYDQCAshoXLVKgACBWgm869q9p//vHfPf2jrTXV+rgT0ymLNWt/a88Jip87ecver6Oo7PmAgQIECgPAEBpDxLLREgQKCWAr+zdebpn97e+b837euurOUAHxnUaStb+3/w2PaF73TL3jqXydgIECBQWKBduAUNECBAgEBtBf7g5gNP/dSDna/WPXzkgLft76789Lbu5Rdv3XlBbUENjAABAgQKCzgCUphQAwQIEKinQB4+/utd+6+4dW93RT1HuPSoNq5oz/3wcQvPe/c5Gy5feg2PEiBAgEDMAgJIzNUzdgIECBxGINbw0ZuOENKT8JUAAQLpCQgg6dXUjAgQaLhA7OGjVz4hpCfhKwECBNISEEDSqqfZECDQcIFUwkevjEJIT8JXAgQIpCMggKRTSzMhQKDhAqmFj145hZCehK8ECBBIQ0AASaOOZkGAQMMFUg0fvbIKIT0JXwkQIBC/gAASfw3NgACBhgukHj565RVCehK+EiBAIG4BASTu+hk9AQINF2hK+OiVWQjpSfhKgACBeAUEkHhrZ+QECDRcoGnho1duIaQn4SsBAgTiFBBA4qybURMg0HCBpoaPXtmFkJ6ErwQIEIhPQACJr2ZGTIBAwwWaHj565RdCehK+EiBAIC4BASSuehktAQINFxA+HrsDCCGP9fATAQIEYhAQQGKokjESIEAgExA+lt4NhJClXTxKgACBugoIIHWtjHERIEDgIAHh4yCMJb4VQpZA8RABAgRqKiCA1LQwhkWAAIGegPDRkzjyVyHkyD6eJUCAQF0EBJC6VMI4CBAgsITAu74387RP3te5/Na93RVLPO2hQwSEkENA/EiAAIEaCgggNSyKIREgQCAXyMPH32fh4zbhY6AdQggZiMvKBAgQGLuAADJ2ch0SIEBgeQHhY3mjI60hhBxJx3MECBCoVkAAqdZf7wQIEFgkIHwsIhnqASFkKDYbESBAYOQCAsjIiXVAgACB/gWEj/6t+llTCOlHyToECBAYr4AAMl5vvREgQOCwAsLHYWkKPSGEFOKzMQECBEoXEEBKJ9UgAQIEBhcQPgY3G2QLIWQQLesSIEBgtAICyGh9tU6AAIFlBYSPZYlKWUEIKYVRIwQIECgsIIAUJtQAAQIEhhcQPoa3G2ZLIWQYNdsQIECgXAEBpFxPrREgQKBvAeGjb6pSVxRCSuXUGAECBAYWEEAGJrMBAQIEigsIH8UNi7QghBTRsy0BAgSKCQggxfxsTYAAgYEFhI+ByUaygRAyElaNEiBAYFkBAWRZIisQIECgPAHhozzLMloSQspQ1AYBAgQGExBABvOyNgECBIYWED6GphvphkLISHk1ToAAgUUCAsgiEg8QIECgfAHho3zTMlsUQsrU1BYBAgSOLCCAHNnHswQIECgsIHwUJhxLA0LIWJh1QoAAgSCA2AkIECAwQgHhY4S4I2haCBkBqiYJECBwiIAAcgiIHwkQIFCWgPBRluR42xFCxuutNwIEmicggDSv5mZMgMAYBISPMSCPsAshZIS4miZAoPECAkjjdwEABAiULSB8lC1aTXtCSDXueiVAIH0BAST9GpshAQJjFBA+xog9hq6EkDEg64IAgcYJCCCNK7kJEyAwKgHhY1Sy1bYrhFTrr3cCBNITEEDSq6kZESBQgYDwUQH6GLsUQsaIrSsCBJIXEECSL7EJEiAwagHhY9TC9WhfCKlHHYyCAIH4BQSQ+GtoBgQIVCggfFSIX0HXQkgF6LokQCA5AQEkuZKaEAEC4xIQPsYlXa9+hJB61cNoCBCIT0AAia9mRkyAQA0EhI8aFKHCIQghFeLrmgCB6AUEkOhLaAIECIxbQPgYt3g9+xNC6lkXoyJAoP4CAkj9a2SEBAjUSED4qFExajAUIaQGRTAEAgSiExBAoiuZARMgUJWA8FGVfL37FULqXR+jI0CgfgICSP1qYkQECNRQQPioYVFqNCQhpEbFMBQCBGovIIDUvkQGSIBA1QLCR9UViKN/ISSOOhklAQLVCwgg1dfACAgQqLGA8FHj4tRwaEJIDYtiSAQI1E5AAKldSQyIAIG6CAgfdalEXOMQQuKql9ESIDB+AQFk/OZ6JEAgAgHhI4Ii1XiIQkiNi2NoBAhULiCAVF4CAyBAoG4CwkfdKhLneISQOOtm1AQIjF5AABm9sR4IEIhIQPiIqFgRDFUIiaBIhkiAwNgFBJCxk+uQAIG6Cggfda1M3OMSQuKun9ETIFC+gABSvqkWCRCIUED4iLBoEQ1ZCImoWIZKgMDIBQSQkRPrgACBugsIH3WvUBrjE0LSqKNZECBQXEAAKW6oBQIEIhYQPiIuXoRDF0IiLJohEyBQuoAAUjqpBgkQiEVA+IilUmmNUwhJq55mQ4DA4AICyOBmtiBAIAEB4SOBIkY8BSEk4uIZOgEChQUEkMKEGiBAIDYB4SO2iqU5XiEkzbqaFQECywsIIMsbWYMAgYQEhI+EipnAVISQBIpoCgQIDCwggAxMZgMCBGIVED5irVza4xZC0q6v2REgsFhAAFls4hECBBIUED4SLGpCUxJCEiqmqRAgsKyAALIskRUIEIhdQPiIvYLNGL8Q0ow6myUBAiEIIPYCAgSSFhA+ki5vcpMTQpIrqQkRILCEgACyBIqHCBBIQ0D4SKOOTZuFENK0ipsvgeYJCCDNq7kZE2iEgPDRiDInO0khJNnSmhgBApmAAGI3IEAgOQHhI7mSNnJCQkgjy27SBBohIIA0oswmSaA5AsJHc2rdhJkKIU2osjkSaJ6AANK8mpsxgWQFhI9kS9voiQkhjS6/yRNIUkAASbKsJkWgeQLCR/Nq3qQZCyFNqra5EkhfQABJv8ZmSCB5AeEj+RKbYCYghNgNCBBIRUAASaWS5kGgoQLCR0ML39BpCyENLbxpE0hMQABJrKCmQ6BJAsJHk6ptrj0BIaQn4SsBArEKCCCxVs64CTRcQPho+A7Q8OkLIQ3fAUyfQOQCAkjkBTR8Ak0UED6aWHVzPlRACDlUxM8ECMQiIIDEUinjJEDgIQHhw45A4FEBIeRRC98RIBCPgAAST62MlEDjBYSPxu8CAJYQEEKWQPEQAQK1FhBAal0egyNAoCcgfPQkfCWwWEAIWWziEQIE6isggNS3NkZGgMAjAsKHXYHA8gJCyPJG1iBAoB4CAkg96mAUBAgcRkD4OAyMhwksISCELIHiIQIEaicggNSuJAZEgEBPQPjoSfhKoH8BIaR/K2sSIFCNgABSjbteCRBYRkD4WAbI0wSOICCEHAHHUwQIVC4ggFReAgMgQOBQAeHjUBE/ExhcQAgZ3MwWBAiMR0AAGY+zXggQ6FNA+OgTymoE+hAQQvpAsgoBAmMXEEDGTq5DAgQOJyB8HE7G4wSGFxBChrezJQECoxEQQEbjqlUCBAYUED4GBLM6gQEEhJABsKxKgMDIBQSQkRPrgACB5QSEj+WEPE+guIAQUtxQCwQIlCMggJTjqBUCBIYUED6GhLMZgSEEhJAh0GxCgEDpAgJI6aQaJECgXwHho18p6xEoT0AIKc9SSwQIDCcggAznZisCBAoKCB8FAW1OoICAEFIAz6YECBQWEEAKE2qAAIFBBYSPQcWsT6B8ASGkfFMtEiDQn4AA0p+TtQgQKElA+CgJUjMEShAQQkpA1AQBAgMLCCADk9mAAIFhBYSPYeVsR2B0AkLI6Gy1TIDA0gICyNIuHiVAoGQB4aNkUM0RKFFACCkRU1MECCwrIIAsS2QFAgSKCggfRQVtT2D0AkLI6I31QIDAwwICiD2BAIGRCggfI+XVOIFSBYSQUjk1RoDAYQQEkMPAeJgAgeICv/3dmWdeel/nK3fu704Vb00LBAiMQ0AIGYeyPgg0W6Dd7OmbPQECoxJ4x3dnnyV8jEpXuwRGJ3Dvgc7UZ7ZNfPHirTsvGF0vWiZAoMkCAkiTq2/uBEYkkIePT9638GVHPkYErFkCIxYQQkYMrHkCDRdwClbDdwDTJ1C2QC983OG0q7JptUdg7AJOxxo7uQ4JNEJAAGlEmU2SwHgEhI/xOOuFwDgFhJBxauuLQDMEBJBm1NksCYxcQPgYObEOCFQmIIRURq9jAkkKCCBJltWkCIxXQPgYr7feCFQhIIRUoa5PAmkKCCBp1tWsCIxNQPgYG7WOCFQuIIRUXgIDIJCEgACSRBlNgkA1AsJHNe7j7nW63Qqb1rTCUZMhrMvunbh2shVWP3IPxb2dEPbMd8Pu7OuDcyHcsrcbZjrdcQ9Rf2MUOHlla+5Hjm5f9PYnT185xm51RYBAQgICSELFNBUC4xQQPsapPb6+1k20wrPWt8IFG9rhzDXtsHlVK2xcMVj/9xwI4aYsiHwvSydf3dkJV+7KAsqCUDKYYr3XFkLqXR+jI1B3AQGk7hUyPgI1FBA+aliUAkM6bWUrvPT4dnjBUe1wznQ7ZBmk1CXPHtfMdMIXdnTCpds64fZ9wkipwBU1JoRUBK9bAgkIlPwyk4CIKRAgcEQB4eOIPNE8uTpLGS85rh1env17enZe1bheDPLo8fXsfK1PZkHkH7J/ex0ZiWafWWqgQshSKh4jQGA5gXG95iw3Ds8TIBCBgPARQZGWGWJ+PcePndAOrz1lMhw/tczKI376wezakU/csxA+fncn7BJERqw9uuZdmD46Wy0TSFVAAEm1suZFoGQB4aNk0DE3tyo74vHakybCT53UDmvLPseq4Fzy60P+PAshH717IewTRApqVrO5IyHVuOuVQKwCAkislTNuAmMUED7GiD2Crl54dDtccvpkOCW71qPOS37x+jtvmQv/tD27pZYlOgFHQqIrmQETqEyg3q9GlbHomACBnoDw0ZOI7+sJ2d2rfnvTVPiBLIDEtFz2YCdcctNcuD+7ra8lLgFHQuKql9ESqEpAAKlKXr8EIhAQPiIo0mGGeEF2K933PGFFyENIjMv2uW741Rvnw5ezO2dZ4hJwJCSuehktgSoEBJAq1PVJIAIB4SOCIi0xxPzyjl/ILjB//SkTIbvePOolvxzkQ3cuZP/mg0tD4iqlIyFx1ctoCYxbIPKXp3Fz6Y9AMwSEjzjrvCI70+r3njAVXnxMXKdcLaf92eyakF+6YS7sdzBkOapaPe9ISK3KYTAEaiUggNSqHAZDoHoB4aP6GgwzgjXZ4Y4PnjUZLso+wTzF5Yrs09Tf8N05n6geWXGFkMgKZrgExiQggIwJWjcEYhAQPmKo0uIxHjXZCh8/eyqcPZ32r/St2aep//S182FH9vkhlngEnI4VT62MlMC4BNL8U9m49PRDICEB4SPOYuaf7/En2ZGP1MNHXp1zptvhT580GfKjPZZ4BO7a35361PbuVy7euvOCeEZtpAQIjFJAABmlrrYJRCIgfERSqEOGOZW9D//AEyfD09c151f5eWvb2almU2GqOVM+pOpx/njvgc7UZ7ZNfFEIibN+Rk2gbAG/wssW1R6ByASEj8gKdtBw37F5MjzvqOb9Gr9oQyu8LftgRUtcAnkI+ewD7S++9eqZZ8Y1cqMlQKBsgea9cpUtqD0CEQsIH/EW799snAgvP34i3gkUHPmPnzAR8n+WuAScjhVXvYyWwKgEnEg7KlntEqi5gPBR8wIdYXhnrmmF/3buVMiv/2jykt+W9xVXHwjXzrooPbb9wN2xYquY8RIoV8ARkHI9tUYgCgHhI4oyLTnIPHS8/0zhI8dZmb2CvfeJmYVXsiX3lTo/6HSsOlfH2AiMXsCv7dEb64FArQSEj1qVY+DBvP7kibBpVbOPfByMdsbqVnjNya4HOdgklu+djhVLpYyTQPkCAkj5plokUFsB4aO2pelrYKdnwePnTnLdw6FYrxXKDiWJ5md3x4qmVAZKoFQBAaRUTo0RqK+A8FHf2vQ7si2bpsIKv7UXceW35L1kk6Mgi2AieUAIiaRQhkmgRAEvZSViaopAXQWEj7pWpv9xPT+73e6F2e1nLUsLXLShHfJ/ljgFhJA462bUBIYV8Nt6WDnbEYhEQPiIpFDLDPN1pzj1ahmi8IZTGS1nVOfnhZA6V8fYCJQrIICU66k1ArUSED5qVY6hB/Ps9a1wfoM+7XxYqGdmRs/gNCxfLbYTQmpRBoMgMHIBAWTkxDogUI2A8FGN+yh6fa27PPXN6khR31S1XTEPIT4xvbblMTACpQgIIKUwaoRAvQSEj3rVo8hoNq4I4Tmubeib8LmZ1Ukr+17dijUVcIvemhbGsAiUJCCAlASpGQJ1ERA+6lKJcsbxo8dPhIZ/4PlAkO3sOv2XHOtakIHQarqy07FqWhjDIlCCgABSAqImCNRFQPioSyXKG8dLj/NmelDNl2WhzZKGgBCSRh3NgsChAgLIoSJ+JhCpgPARaeGOMOyzp1thc/ZJ35bBBJ6QmZ21httgavVd2zUh9a2NkREYVkAAGVbOdgRqJCB81KgYJQ7lwvV+RQ/L6bqZYeXquZ1rQupZF6MiMKyAV7dh5WxHoCYCwkdNCjGCYVzg4vOhVS8Q3oa2q+uGTseqa2WMi8DgAgLI4Ga2IFAbAeGjNqUofSCT2RlE569zGtGwsM/OPjU+N7SkJSCEpFVPs2mugADS3NqbeeQCwkfkBVxm+GeuaYe1bn+1jNLhn57Obof1RNeBHB4o4mdcExJx8QydwCMCAohdgUCEAsJHhEUbcMhnuPh8QLHFq5+xyiGQxSppPOKakDTqaBbNFRBAmlt7M49UQPiItHADDnuzN88Dii1efZMQtxgloUecjpVQMU2lcQICSONKbsIxCwgfMVdvsLF78zyY11JrM1xKJa3HhJC06mk2zREQQJpTazONXED4iLyAAw7/cSsH3MDqiwQet9IpWItQEnzANSEJFtWUkhcQQJIvsQmmICB8pFDFweawzi2cBgNbYu11LuJfQiXNh1wTkmZdzSpdAQEk3dqaWSICwkcihRxwGmuyuzhZiglMCyDFACPb2ulYkRXMcBstIIA0uvwmX3cB4aPuFRrd+NZOdkfXeENanp5g2JBS/8s0hZB/ofANgVoLCCC1Lo/BNVlA+Ghy9UNY2XIEpOgesNpRpKKEUW7vmpAoy2bQDRMQQBpWcNONQ0D4iKNOoxzlvD/eF+ad60AsjBhpA64JibRwht0YAQGkMaU20VgEhI9YKjXace7vevNcVHgfwqKEUW/vdKyoy2fwiQsIIIkX2PTiEhA+4qrXKEc7u+AUrKK+exeKtmD72AWcjhV7BY0/VQEBJNXKmld0AsJHdCUb6YDvO9AZaftNaPyeAw6BNKHOy83R6VjLCXmewPgFBJDxm+uRwCIB4WMRSeMfuOdA4wkKA9wzV7gJDSQi4HSsRAppGskICCDJlNJEYhUQPmKt3GjHfbe/3hcGvme/IyCFERNqwOlYCRXTVKIXEECiL6EJxCwgfMRcvdGO/fpZb56LCl/HsChhcts7HSu5kppQpAICSKSFM+z4BYSP+Gs4yhlc681zYd7rZl1HUxgxwQacjpVgUU0pOgEBJLqSGXAKAsJHClUc7RxuyN48uw59eON9Wfa4ca+jSMMLpr2l07HSrq/Z1V9AAKl/jYwwMQHhI7GCjmg6+Rvoq/b4C/6wvN/Y3RXghsVryHZOx2pIoU2zlgICSC3LYlCpCggfqVZ2NPO6YpcAMqzsFbt8CMiwdk3azulYTaq2udZJQACpUzWMJWkB4SPp8o5kcl/Y4RSiYWG/yG5YusZt53SsxpXchGsgIIDUoAiGkL6A8JF+jUcxw+9kp2Dd5layA9PmZtfMOHo0MFyDN3A6VoOLb+qVCAgglbDrtEkCefj4+/s6X75jf3eqSfM213IEPvOAN9KDSn56G7NBzawfgiMh9gIC4xMQQMZnracGCvSOfNy5vyN8NLD+ZUz5b+9bCE7E6l8yt/r7+13/0b+YNQ8WcCTkYA3fExidgAAyOlstN1ygFz4c+Wj4jlBw+rfs64av7hRB+mX88o5OyM0sBIYVcGH6sHK2I9C/gADSv5U1CfQt4LSrvqms2IfAJ+6d72Mtq+QCn7jX0Q97QnEBp2MVN9QCgSMJCCBH0vEcgSEEekc+nHY1BJ5NlhS4bHsn+GT0JWke8+DW7MLzLzzo+o/HoPhhaAGnYw1NZ0MCywoIIMsSWYFA/wK98OG0q/7NrLm8QH5C0QfucBRkOan33eF6meWMPD+YgNOxBvOyNoF+BQSQfqWsR2AZAaddLQPk6UICn82Ognxjt7/uHw7xa5nN5x39OByPxwsIOB2rAJ5NCRxGQAA5DIyHCQwi0Dvy4bSrQdSsO4hAfhTkbbfMhwXXVy9iy03efvO8u4UtkvFAWQJOxypLUjsEHhYQQOwJBAoKOPJRENDmfQtcO9MNf53dltfyWIH/kl147hqZx5r4qXwBR0LKN9VicwVazZ26mRMoLtA78uGaj+KWWuhPYNVEK3zqKVPh9FV+fedi+aee/+tvzYXZjkND/e1B1ioqsHFFe+6Hj1t43rvP2XB50bZsT6CpAo6ANLXy5l1Y4LevmX22TzgvzKiBAQX2ZecbvemG+TDv/fZDBr+aWQgfA+5EVi8k4EhIIT4bE3hIQACxIxAYQiA/8vGp7Qtfcs3HEHg2KSzwjT2d8Pu3uSvW7946H65yYX7h/UkDgwu4JmRwM1sQOFhAADlYw/cE+hBw2lUfSFYZucDH7l4In36guXfF+h8PLISP3+N6mJHvaDo4rIBb9B6WxhMElhVwEvGyRFYg8KiA8PGohe+qF1iV/Qnpz86eCueva9bfkvKjHj913XzY65Zg1e+ERhBcE2InIDC4gAAyuJktGiogfDS08DWf9rrsovRPnDsVzl7TjF/n1892w09cMxd2CR813zObNTwhpFn1NtviAs36s1lxLy00VMAF5w0tfATT3p29Ef/56w6EG/amf1V6Hj5+5toDwkcE+2XThujC9KZV3HyLCjTjT2ZFlWzfaAFHPhpd/mgmvz47EvKfz54M561N8+9KW2c6WfiYDw+6/Vc0+2QTB+pISBOrbs7DCKT5SjWMhG0ILCEgfCyB4qFaCuSnJP3U1vnwuQfTuzD9Szs64VXZ3ISPWu56BnWQgAvTD8LwLYEjCDgCcgQcTzVbID/t6tLtHbfabfZuEN3sswMh4ddPmww/fdJEdGNfasD53b7ek91y2CUfS+l4rK4CJ69szf3I0e2L3v7k6SvrOkbjIlClgABSpb6+ayvgyEdtS2NgfQr84DHt8K7Nk2HDZJy/5vNrWy65ab7Rtxrus9RWq6mA07FqWhjDqoVAnK9MtaAziFQFHPlItbLNm9dJK1vhnZunwkUb4vpV/5WdnfAbN86Few40r2ZmnJaAIyFp1dNsyhOI61WpvHlricCSAsLHkiwejFzgxdnRkEs2TYVjp+o9kZ3ZBebvuX0h/M29CyH9e3rVuxZGV56AIyHlWWopHQEBJJ1amklBAeGjIKDNay2wpt0KP3liO7z+1IkwnX1fp2VfdrrVX9zbCR++cyHkp15ZCKQmIISkVlHzKSpQr1ehorOxPYEhBYSPIeFsFp3ACStC+PLTV9Zq3M/9xv5wn9OtalUTgylfwOlY5ZtqMV4Bt+GNt3ZGXpKA8FESpGaiEKjjG/06jimKYhpkVAJ37e9OfWp79ysXb915QVQDN1gCIxAQQEaAqsl4BISPeGplpAQIEIhdwOeExF5B4y9LQAApS1I70QkIH9GVzIAJECAQvYAQEn0JTaAEAQGkBERNxCcgfMRXMyMmQIBAKgJCSCqVNI9hBQSQYeVsF62A8BFt6QycAAECyQgIIcmU0kSGEBBAhkCzSbwCwke8tTNyAgQIpCYghKRWUfPpV0AA6VfKetELCB/Rl9AECBAgkJyAEJJcSU2oDwEBpA8kq8QvIHzEX0MzIECAQKoCQkiqlTWvwwkIIIeT8XgyAsJHMqU0EQIECCQrIIQkW1oTW0JAAFkCxUPpCAgf6dTSTAgQIJC6gBCSeoXNrycggPQkfE1OQPhIrqQmRIAAgeQFhJDkS2yCmYAAYjdIUkD4SLKsJkWAAIFGCAghjShzoycpgDS6/GlOXvhIs65mRYAAgSYJCCFNqnbz5iqANK/mSc/4rdfMPO3S7Z0v3bm/M5X0RE2OAAECBJIXyEPIZdvaX9yydfeTk5+sCTZKQABpVLnTnuw7tu59/GU7Ol8RPtKus9kRIECgSQJ3HuhOfWZ7uPLt39l3RpPmba5pCwggade3MbPbcsPuE/7XjoVrbtrbXd2YSZsoAQIECDRC4OZ93VWf2z33jffe3j2mERM2yeQFBJDkS5z+BLd0u+1vPti68vrZznT6szVDAgQIEGiiwLWz3fX/564938pf85o4f3NOS8BOnFY9GzmbW6+aueyKnZ3TGjl5kyZAgACBxghcsbt76u3fnv0fjZmwiSYrIIAkW9pmTOyXv7P7t/7pgc4LmjFbsyRAgACBpgv847aFF//yt3f9etMdzD9uAQEk7vo1evT5XUH+aXv3km6jFUyeAAECBJok0Mle9P7xwdY7t1y357wmzdtc0xIQQNKqZ2Nms+Xz3cmv7Axf3D7nwzQbU3QTJUCAAIGHBB6c67Yv3xkucz2IHSJWAQEk1so1fNx3HT3zd9+Z6R7dcAbTJ0CAAIGGCly1u3Pcfd+a+euGTt+0IxcQQCIvYBOH/+atu5/3v7d3XtLEuZszAQIECBDoCfzj9s4rfvPq3S/s/ewrgVgEBJBYKmWcDwnkh5uv2BUu3dsBQoAAAQIEmi2QvxZ+bXf4b07FavZ+EOPsBZAYq9bgMW+7evYjV+/pHtVgAlMnQIAAAQL/IvDtme4x2789+/5/ecA3BCIQEEAiKJIhPizw5qtmT/n8gws/w4MAAQIECBB4VOCyHQuvu/hbs6c++ojvCNRbQACpd32M7iCBmzrdTz9wwF2vDiLxLQECBAgQCA9kd4S8e6Hz31EQiEVAAImlUg0f5yXXzLz4Sw8ufF/DGUyfAAECBAgsKfCFHZ1nveXa3S9Y8kkPEqiZgABSs4IYztIC35zp/Om8TxxcGsejBAgQINB4gbnsgvRrdrX+vPEQAKIQEECiKFOzB/kbV+/5qa/t6p7cbAWzJ0CAAAECRxa4fHfn8W+6Zs8rj7yWZwlULyCAVF8DI1hG4Ot7uu918GMZJE8TIECAQOMF8tfKq3aH9zYeAkDtBQSQ2peo2QP8ja0zP/ftPd1jmq1g9gQIECBAoD+Bq/Z0TnjrNbOv6G9taxGoRkAAqcZdr30KXLWz864+V7UaAQIECBAgkAlcPdt9JwgCdRYQQOpcnYaP7c3Xzv67q2a6xzecwfQJECBAgMBAAl/btXDGlq07LxhoIysTGKOAADJGbF0NJnDtnu7vuPZjMDNrEyBAgACBuezF8/p9kx8gQaCuAgJIXSvT8HFtuWbPU6/cvbCp4QymT4AAAQIEhhL46o6F89++dd8Th9rYRgRGLCCAjBhY88MJ3LI/vC+/p7mFAAECBAgQGFxgb/YaesuBhQ8OvqUtCIxeQAAZvbEeBhT4pdu7q6/c3blowM2sToAAAQIECBwkcMXOzg/84ve6Kw96yLcEaiEggNSiDAZxsMD+7bNvfmAu2DcPRvE9AQIECBAYUGDbXHdifu/srw+4mdUJjFzAm7yRE+tgUIEb9nZ/dtBtrE+AAAECBAgsFrh5tvvzix/1CIFqBQSQav31fojAKy/ff841M52TDnnYjwQIECBAgMAQAlfPdE79ictdjD4EnU1GKCCAjBBX04MLtFfMv33BvXcHh7MFAQIECBBYQmA+e02dWjn/tiWe8hCBygQEkMrodbyUwA2zCz+81OMeI0CAAAECBIYTuGm2+yPDbWkrAqMREEBG46rVIQR++Zo9L7p5X5geYlObECBAgAABAocR+N7e7vo3Xbv7BYd52sMExi4ggIydXIeHE3jwQHCnjsPheJwAAQIECBQQ2Lav9WsFNrcpgVIFJkttTWMECgjcvLf7nAKb25QAAQIEhhCYbrfCpjWtcFT2jmBd9mfJtZOtsPqRP0/mH2a3J7uIYHf29cG57IPt9nbDTMeFekMwV77Jjfs6z618EAZA4BEBAcSuUAuBt16z+9yP3dNdW4vBGAQBAgQSFVg30QrPWt8KF2xohzPXtMPmVa2wccVgk73nQAg3ZUHke1k6+erOTrhyVxZQ3D1kMMQK1r5+Nqx/5437zvzNM1ZdX0H3uiTwGAEB5DEcfqhKYHun/cud7kJV3euXAAECyQqctrIVXnp8O7zgqHY4Z7odsgxSaDkxCywnrmiFCzdMhJ86cSLk2SO7fXr4wo5OuHRbJ9y+zxGSQsAj2jiv012zC7+UNf/6EXWhWQJ9CwggfVNZcZQCd+0PPzDK9rVNgACBJgmszlLGS45rh5dn/56enVdVMHMckS4PNOetbT/07xdPDeHr2flan8yCyD9k//Y6MnJEu3E/ede+8P+Mu0/9EVhKQABZSsVjYxe4YabzuLF3qkMCBAgkJpBfz/FjJ7TDa0+ZDMdPjX9yedB5RhZ48n+/8rhu+MQ9C+Hjd3fCLkFk/MVYoscb9i6cvsTDHiIwdgF3wRo7uQ4PFbjkmpkX3z/XnTj0cT8TIECAQH8Cq7LDEG88dTJ86fyp8JbTqwkfh4706Oxi9l/MxvT5p0899DUfo6VagfsOhImLr9v9wmpHoXcCIQgg9oLKBbbNh39b+SAMgAABApEK/OAx7fBP502Ff3/qRFhbwzf5+YXvv5iN7X8+ZSr8wNHedlS9m+2Za7+y6jHon4DfBPaBygUemOs8q/JBGAABAgQiEzghuxj8T86aCh86cyqcnF1oXvfl1OyOW/l4/zj7V8XpYXX3Gdf4HjjQffa4+tIPgcMJCCCHk/H42ARu3x8eP7bOdESAAIEEBC7IbqX7d09eGeURhRdlR0H+4bwV4bnZXbks4xfIbvqyafy96pHAYwX83/9YDz+NWeAPbu4eld2ycfWYu9UdAQIEohTIz7DKr/X487NXhPwISKzLMVOt8NHsSEh+jUgNzxqLlbWvcd+yrzP9wWt87lZfWFYamYAAMjJaDfcjsG1m74vm3DK+HyrrECDQcIEV2Sv2e5/48LUe2c2uol/y4JFfG/L+bE4rvRsZWz3nsk+1v7e1//lj61BHBJYQ8L/8EigeGp/Ank7novH1picCBAjEKbAmSxwfzo4YvDi74Dy1Jb+I/k+ftCLkF6tbxiOQvfZ+/3h60guBpQXS+0229Dw9WlOBmW7rKTUdmmERIECgFgJHZbez/etzp8JFG9J9yX52dk3LX54zGfK5WkYvsONA56mj70UPBA4vkO5vs8PP2TM1Eth5oHNajYZjKAQIEKiVQP6J5h990mQ4ezr9N+bnTLfDR86aDPmcLaMV2N3puvnLaIm1voyAALIMkKdHK7B7oXXMaHvQOgECBOIUyK7Tzq6PmAzft7Y5L9VPzT5BPb+t8FRzplzJzjm70Dq6ko51SuARAf+L2xUqFdi10J2udAA6J0CAQE0F3rF5MjyvgbeqvWhDK7wt+zR3y+gEds6HdaNrXcsElhcQQJY3ssYIBXbPh4hvJDlCGE0TINBogVdsnAgvP36isQY/fsJEyP9ZRiOwa6GzcjQta5VAfwICSH9O1hqRwN5OsA+OyFazBAjEKXDmmlZ4y2nefP9WdhTk7MzCUr7Afq+95aNqcSABb/4G4rJy2QJzna5Xl7JRtUeAQLQCq7ILsN+fXQORf236kn82SP65J6u8Uyl9V9i34LW3dFQNDiTgf+uBuKxctsABH0JYNqn2CBCIWOD1J0+ETauEj14Jz1jdCq892fUgPY+yvh6QP8qi1M6QAgLIkHA2K0dA/ijHUSsECMQvcHoWPH7uJKdeHVrJ1whlh5IU/tlrb2FCDRQUEEAKAtqcAAECBAiUIbBl01RY4VV5EWV+S95LNjkKsgjGAwQiFvCrLuLiGToBAgQIpCHw/Ox2uxdmt5+1LC2Qfwp8yp8Ev/SsPUogXQEBJN3amhkBAgQIRCLwulOcerVcqd5wKqPljDxPIBYBASSWShknAQIECCQp8Oz1rXB+9gngliMLPDMzeganIyN5lkAkAn7jRVIowyRAgACBNAXc5an/ujpS1L+VNQnUWUAAqXN1jI0AAQIEkhbYuCKE52TXN1j6E3huZnWSz/DuD8taBGos4LdejYtjaAQIECCQtsCPHj8RfOZg/zVuZ9fpv+RY14L0L2ZNAvUUEEDqWRejIkCAAIEGCLz0OG+mBy3zy7LQZiFAIG4BASTu+hk9AQIECEQqcPZ0K2zOPunbMpjAEzKzs9ZwG0zN2gTqJSCA1KseRkOAAAECDRG4cL2X4GFL7bqZYeVsR6AeAn771aMORkGAAAECDRO4wMXnQ1f8AuFtaDsbEqiDgABShyoYAwECBAg0SmAyO4Po/HVOIxq26M/OPjU+N7QQIBCngAASZ92MmgABAgQiFjhzTTusdfuroSs4nd0O64muAxnaz4YEqhYQQKqugP4JECBAoHECZ7j4vHDNz1jlEEhhRA0QqEhAAKkIXrcECBAg0FyBzd48Fy7+JiGusKEGCFQlIIBUJa9fAgQIEGisgDfPxUvPsLihFghUJSCAVCWvXwIECBBorMDjVjZ26qVN/HErnYJVGqaGCIxZQAAZM7juCBAgQIDAOrdwKrwTrHMRf2FDDRCoSkAAqUpevwQIECDQWIE12V2cLMUEpgWQYoC2JlChgABSIb6uCRAgQKCZAmsnu82ceImznp5gWCKnpgiMVUAAGSu3zggQIECAQAgrW46AFN0PVjuKVJTQ9gQqExBAKqPXMQECBAg0VWDOH+8Ll35fF2JhRA0QqEhAAKkIXrcECBAg0FyB/R1vnotWf8+8o0hFDW1PoCoBAaQqef0SIECAQGMFZhe8eS5a/Fkhriih7QlUJiCAVEavYwIECBBoqsD9c52mTr20ee+ZdxSpNEwNERizgAAyZnDdESBAgACBuw8wKCpw+/6iLdieAIGqBASQquT1S4AAAQKNFbhrv7/eFy3+LXsZFjW0PYGqBASQquT1S4AAAQKNFbjBm+fCtb9xnwBSGFEDBCoSEEAqgtctAQIECDRX4OoZ14AUrf7NAkhRQtsTqExAAKmMXscECBAg0FSB/AjIARlk6PLvXeiG784CHBrQhgQqFhBAKi6A7gkQIECgeQL5TbC+5SjI0IX/2u5ucCOxoflsSKByAQGk8hIYAAECBAg0UeDLO/wFf9i6f3UXu2HtbEegDgICSB2qYAwECBAg0DiBL+10EfWwRf8qu2HpbEegFgICSC3KYBAECBAg0CSBdvZB6K/a6CV4mJrfmt3CeKvT14ahsw2B2gj47VebUhgIAQIECDRBIA8f79o8GV5+/EQTplv6HC+9fyE4dlQ6qwYJjFVAABkrt84IECBAoMkCwkex6ufB49Jtrv8opmhrAtULCCDV18AICBAgQKABAnn4eKcjH4UqfcWubrjd538UMrQxgToITNZhEMZAgAABAgRSFnDko5zqfvjO+XIa0goBApUKOAJSKb/OCRAgQCB1AeGjnArnF57/351OvypHUysEqhUQQKr11zsBAgQIJCwgfJRX3A/c6eLz8jS1RKBaAQGkWn+9EyBAgECiAq75KK+w39jdCZdtd/SjPFEtEahWwDUg1frrnQABAgQSFHDko7yizme3vnrbzfNuvVseqZYIVC7gCEjlJTAAAgQIEEhJQPgot5p/cc9CuHbWJ3+Uq6o1AtUKCCDV+uudAAECBBIScNpVucW8I7vl7vtvXyi3Ua0RIFC5gFOwKi+BARAgQIBACgKOfJRbxbnsoMev3DgfZjqOfpQrqzUC1Qs4AlJ9DYyAAAECBCIXED7KL+C7b50P38wuPrcQIJCegACSXk3NiAABAgTGKOC0q/KxP5Pd8Sq/9sNCgECaAk7BSrOuZkVgrALrJ1ph85pWODb7jbI6ezc2nX1dN/HwEHZn7yFmsg8v3pudRrFtLoSb93bDrgWnVIy1QDobmUAvfPzo8Y/s8CPrqTkNfz076vFrN8y561VzSm6mDRQQQBpYdFMmUETgqMlWePb67N+GifCkNSFsXtUKx0y1BmrygSyI3LSvE76b3dnm8uyTjf95VzfsyO+1aSEQkYDwUX6xrs9+J7z2uvmQ/XqwECCQsIAAknBxTY1AWQKbspDxsuwvvC84qh3Oyo505G+8iizHToVw7FQ7PHNdCD+5cSLk15heN9sJX3iwGz65bSHckt35xkKgzgLCR/nVuXV/N/zcdQeyI6Tlt61FAgTqJSCA1KseRkOgNgLT2Tuslx/fCi/Ngsf3rR3t5WL5m7lzptvZvxDecOpEuCo7BePSbZ3wyfs77oBTmz3CQHoCwkdPoryv18x0wquvmwv50VELAQLpCwgg6dfYDAkMJLA2u57jJza2w8+fPBE2ZKdbVbE8dV075P9+5bRu+C/3dsJH71oIO52iVUUp9HmIQB4+3rV5Mgvnrvk4hGboHy/PTsF8w3fnwx5HPoY2tCGB2AQEkNgqZrwERiSwJntn9fpTJsKrTmqH/Ps6LHkYek0WhF55Yjv8xd2d8CdZENnrAvY6lKaRY+gd+RA+yiv/J+5dCO/Kbrc755qP8lC1RCACAQEkgiIZIoFRC7zw6HbYcvpkOGllPYLHofPNTwfLw1F+p6H33DafnZ7lT6WHGvl5tAJ5+HDkozzjPdkfEt5603z49AOSR3mqWiIQj8BoT+yOx8FICTRSYOOKED72pKnw4bOmahs+Di5MPt7fe8Jk+Gg25vx7C4FxCDjyUa7y17JrvF76nTnho1xWrRGISkAAiapcBkugPIELN7TC3z1lZfj+7M5WsS3Pz8b8qfNWhOdFOPbYrJs+3t6RD5/zUXxPyK/jesct8+Ent86F293prjioFghELOAUrIiLZ+gEhhHIryt/46mT4TXZKU31POGqv1kdnU3kI9mRmw9n14W874754NKQ/tys1b+AIx/9Wx1pzQPZWVZ/c/9C+KPb3UziSE6eI9AkAQGkSdU218YLrMgOdvz+E6bCDx8T31GPpYqXv0HMrw05M/tskl/63pwPL1sKyWNDCfSOfLjgfCi+hzbKbxjxN9mttD9213y458Dw7diSAIH0BASQ9GpqRgSWFFiX3VHqI0+aDOdnt7dNbXlRdhH9x86eCq/LPkF5t0MhqZV37PNx5KMY+Y17H/5A0b+9rxO2z/lQ0WKatiaQpoAAkmZdzYrAYwSOmWqFj2dv0PNPMU91eWYWrP7q3Knw09fOedOTapHHMK9e+Ejhmo/81rb/ITsyeFf2CeM/dMxE+KFj2+GJq0fzO+C2rI8vPJh9eGj2AaJX73FnqzHsqrogELWAABJ1+QyewPIC+S1s//SsyaTDR0/hSVnA+mg211dtnQ+zHX957bn42p9ASqdd9cLHZVkoyJdrZ+fDH90RwinZrbbzo6BPX9fK/rXD5lWtkJ+aOciyL2vy5uwi8utnO+Hynd3w1V2dh0LOIG1YlwCBZgsIIM2uv9knLjCVvbH4QHah9pPXjuavnnXke8radvhgFkJe8905H25WxwLVdEwph4+Dye/MjlTcuX8hfGrbw4/m8964ohVOXxnCySvbYXW7G9Zkp2vmHwKaR/iZ7JTG3dnH7sxk/7Znd7G6OTu96u4D3SDfH6zqewIEBhUQQAYVsz6BiAT+0+bJcFF2u92mLRdtaIff2TQZLr5xvmlTN98hBJoSPpaiyYPE3VkouXt//qwP+FzKyGMECJQvMOCB1/IHoEUCBEYj8BMbJ8JLjpsYTeMRtPqy7FPTX5EZWAgcSSC18PHGG+ZC77SrI83bcwQIEKhSQACpUl/fBEYkkF9s/qbHO8D51szg7OnmHQEa0W6VXLMpho/PbncBeHI7qgkRSFBAAEmwqKbUbIHV2bnb7z9zKqzyf3fITmkPf/jEzCIzsRA4WCC18JHf7Ur4OLjCvidAoM4C3qLUuTrGRmAIgX+ffTDf6dmdbSwPC2zKLF5/slOx7A+PCqQWPpx29WhtfUeAQBwCAkgcdTJKAn0JPCG7x//PnOTN9qFYr85MzhjR5x8clH77iwAAH5lJREFU2pef6y2QYvhw5KPe+5zRESCwWEAAWWziEQLRCrx101TIPnPQcohAfjvit2V3xUJzCEzDfhQ+GlZw0yVAoLYCAkhtS2NgBAYTeOHR7fCc9d5iH07tWevb4blH+ZV3OJ/UHxc+Uq+w+REgEJOAV+OYqmWsBI4g8FrXORxB5+GnfiG7PsbSPAHho3k1N2MCBOotIIDUuz5GR6AvgfzIx9PX+d95OaynZUb5kRBLcwSEj+bU2kwJEIhHwCtxPLUyUgKHFXjNKT7z47A4hzzxOkeKDhFJ98fUwodb7aa7r5oZgaYJCCBNq7j5Jidw8spWdu2H/5X7LeyFG9rhpJX9rm29WAVSCx9utRvrnmjcBAgsJeBdy1IqHiMQkcDLjm+H/M2WpT+B3Oqlx7kWpD+tONdKMXy41W6c+6JREyCwtIAAsrSLRwlEI/Cvj/VmetBiCSCDisWzvvART62MlACB5goIIM2tvZknIHDOdDts9gF7A1cy/1DCs9c4bDQwXM03SC18uOaj5juc4REgMLSAADI0nQ0JVC9w0QZvooetwgXZtSCWdARSCx+u+Uhn3zQTAgQWC3gFXmziEQLRCFzg4vOha8VuaLrabZhi+HDNR+12MwMiQKBEAQGkRExNERinwGR28OPpPvl8aPJnZUePphxAGtqvLhsKH3WphHEQIECgfwEBpH8raxKolcBZa9phOn/3ZRlKILd7gutAhrKry0aphQ/XfNRlzzIOAgRGLSCAjFpY+wRGJJBfSG0pJnDGKr8CiwlWt3Vq4cM1H9XtS3omQGD8Al59x2+uRwKlCGxeJYAUhdwkxBUlrGT7FMOHaz4q2ZV0SoBARQICSEXwuiVQVGCT04eKEgYBpDDh2BsQPsZOrkMCBAiULjBZeosaJEBgLAKPWzGWbpLu5LSVSU8vucmlFj7yaz4ue7CTXJ1MiAABAssJOAKynJDnCdRUYG1+GyxLIYG1EwwLAY5x49TCh2s+xrjz6IoAgdoJCCC1K4kBEehPYE3+jsxSSGBaACnkN66NUwwfrvkY196jHwIE6igggNSxKsZEoA+BtZPdPtayypEEGB5Jpx7PCR/1qINRECBAoEwB14CUqaktAmMUWNlyBKQo9yqGRQlHun1q4cM1HyPdXTROgEBEAo6ARFQsQyVwsMD+riMgB3sM8z3DYdTGs01q4cM1H+PZb/RCgEAcAgJIHHUySgKLBGYWHAFZhDLgA7MMBxQbz+ophg/XfIxn39ELAQJxCAggcdTJKAksEphZcARkEcqAD8x2GA5INvLVhY+RE+uAAAEClQu4BqTyEhgAgeEEHg4gjoIMp/fwVg8cEECK+JW9bWrhwzUfZe8h2iNAIBUBR0BSqaR5NE7g9v2Nm3LpE75jvwBSOuqQDaYWPlzzMeSOYDMCBBohIIA0oswmmaLAzXu9eS5a19v3FW3B9mUIpBg+XPNRxp6hDQIEUhVwClaqlTWv5AVuEkAK1/gWR0AKG5bRwLs2T4aXHz9RRlOVtjHXCcFpV5WWQOcECEQi4AhIJIUyTAKHCty0zxGQQ00G/fnbe7J3jJbKBYSPyktgAAQIEBirgAAyVm6dEShP4LrZTtjrTlhDg+7O7G4R4ob2s+GjAvmRD9d8POrhOwIECCwnIIAsJ+R5AjUVyN/0fH23oyDDlueqzM5deIfVs11PoHfalWs+eiK+EiBAYHkBAWR5I2sQqK3AFbudQjRscf7PDnbD2tnuYQFHPuwJBAgQGE5AABnOzVYEaiHwlZ2OgAxbiC88KIAMa2e7EBz5sBcQIEBgeAEBZHg7WxKoXOCa7CLqW93JaeA65Nd+3MZtYDcbPCzQCx+XCbF2CQIECAwlIIAMxWYjAvUQyI9/fOr+hXoMJqJRPH5VK7zqxPhv+xoReTJDddpVMqU0EQIEKhQQQCrE1zWBMgT+7v5OcCLWYJKtbPW3nD4phAzG1vi1e+HDBeeN3xUAECBQUEAAKQhocwJVC9yZnUp0xS4RZNA69ELIKzc6EjKoXRPX7512JXw0sfrmTIBA2QICSNmi2iNQgcBH7pqvoNf4u8xDyCWbHAmJv5KjnUHvyIdrPkbrrHUCBJojIIA0p9ZmmrDAl7Nbyn7Hp3oPVeHekRDXhAzFl/xGvfDhyEfypTZBAgTGKCCAjBFbVwRGKfDHd7kYfVhfIWRYubS3Ez7Srq/ZESBQnYAAUp29ngmUKnDZ9k74hg8mHNq0F0JcEzI0YVIbuuYjqXKaDAECNRMQQGpWEMMhMKxAfhn6JTfPhznXow9LGFwTMjRdUhv2jny45iOpspoMAQI1EhBAalQMQyFQVOD62W74xD1OxSri2DsS4pqQIorxbtsLH675iLeGRk6AQP0FBJD618gICQwk8L7bF8Id2Sd9W4YX6IUQp2MNbxjjlk67irFqxkyAQIwCAkiMVTNmAkcQmOl0wxtvyE7F6hxhJU8tK+B0rGWJklqhd+TDaVdJldVkCBCoqYAAUtPCGBaBIgL5LXnffZvPBilimG/bOxLidKyikvXevhc+nHZV7zoZHQEC6QgIIOnU0kwIPEbgL7JrQf4puzOWpZhAL4Q4HauYY123dtpVXStjXAQIpCwggKRcXXNrtEB+Fciv3TAXrnRr3sL7gdOxChPWsoHekQ+nXdWyPAZFgEDCAgJIwsU1NQL7swMgr71uPmydcSSk6N7QOxLidKyikvXYvhc+nHZVj3oYBQECzRIQQJpVb7NtoMCehW547Xfnws3ujFW4+r0Q4nSswpSVNuC0q0r5dU6AAIEggNgJCDRA4N4DIbzi6rnwTadjFa6207EKE1baQO/Ih9OuKi2DzgkQaLiAANLwHcD0myOwc74bfjo7HeuLO5yOVbTqvSMhTscqKjne7Xvhw2lX43XXGwECBA4VEEAOFfEzgYQF9manY73++rnw8ewOWT6qsFiheyHE6VjFHMe1tdOuxiWtHwIECCwvIIAsb2QNAkkJ5G/EfueW+fCG7LqQ/KiIZXgBp2MNbzfOLXtHPpx2NU51fREgQODwAgLI4W08QyBpgfzN2Mu+Mxf+eZdTsooU2pGQInqj39aRj9Eb64EAAQKDCgggg4pZn0BCAnfu74af3DoX3pidlrVtLqGJjXkqjoSMGbzP7hz56BPKagQIEBizgAAyZnDdEaijwD9mn5j+w1cdeOjakPyzQyyDCzgSMrjZKLdw5GOUutomQIBAMQEBpJifrQkkI7A7u0A9vzbk+d88EN5/x3zIf7YMJuBIyGBeo1rbkY9RyWqXAAEC5QgIIOU4aoVAMgLb57pZAFkIL/rmXPjdW+fDd2cFkUGK60jIIFrlr+vIR/mmWiRAgEDZApNlN6g9AgTSENiR3SHrY3cvPPTv7OlWeNlxE+EFR7fDplX5W+xylzzibJ3phM9lF8avarfCz588UW4HY26tdyQk7/av7l0Yc+/N7a4XPtztqrn7gJkTIBCHgAASR52MkkClAtfOdMO1M/PhXbeGsHFFCBesnwgXbGiFJ61phU2rW2FNFhoGWfZl15lclwWOb2XtfntPN7sT10LIP629t8x0uuE/nhr3rychpFfN8XwVPsbjrBcCBAiUIRD3K3wZAtogQGAggTwoXLptIfv36GYnZqFkcxZEjppshXXZv+ns5M7phw5itML+LEzszA4C7M3+3bGvG+440An3HRQ2Hm3l0e8+lJ0Cli9CyKMmvju8gPBxeBvPECBAoI4CAkgdq2JMBCITuCcLFPccyE+kKu96kTyEZFklXHxa3L+mekdC8oNEf5l9Ar2lXIE8fLzxhrngtKtyXbVGgACBUQq4CH2UutomQKCQwJ/etRDefdt8oTbqsHEeQt5y+mR41YlxX9tSB8uDx9ALH5/NbiNtIUCAAIF4BASQeGplpAQaKSCENLLsy05a+FiWyAoECBCorYAAUtvSGBgBAj0BIaQn4WsuIHzYDwgQIBC3gAASd/2MnkBjBISQxpT6iBMVPo7I40kCBAhEISCARFEmgyRAIBcQQpq9Hwgfza6/2RMgkI6AAJJOLc2EQCMEhJBGlHnRJIWPRSQeIECAQLQCAki0pTNwAs0VEEKaVXvho1n1NlsCBNIXEEDSr7EZEkhSQAhJsqyLJiV8LCLxAAECBKIXEECiL6EJEGiugBCSdu2Fj7Tra3YECDRXQABpbu3NnEASAkJIEmVcNAnhYxGJBwgQIJCMgACSTClNhEBzBYSQtGovfKRVT7MhQIDAoQICyKEifiZAIEoBISTKsi0atPCxiMQDBAgQSE5AAEmupCZEoLkCQkjctRc+4q6f0RMgQKBfAQGkXynrESAQhYAQEkWZFg1S+FhE4gECBAgkKyCAJFtaEyPQXAEhJK7aCx9x1ctoCRAgUFRAACkqaHsCBGopkIeQP7xjvpZjG2RQrWzlt5w+GV65cWKQzaJa9z98by58dnsnqjEbLAECBAgMLyCADG9nSwIEai7woTsWwrtvSyOEXLJpMrzqxDRDyGUPCh81/1/J8AgQIFCqgABSKqfGCBCom4DTsepWEeMhQIAAgaYLCCBN3wPMn0ADBISQBhTZFAkQIEAgGgEBJJpSGSgBAkUEhJAierYlQIAAAQLlCQgg5VlqiQCBmgsIITUvkOERIECAQCMEBJBGlNkkCRDoCQghPQlfCRAgQIBANQICSDXueiVAoEIBIaRCfF0TIECAQOMFBJDG7wIACDRTQAhpZt3NmgABAgSqFxBAqq+BERAgUJGAEFIRvG4JECBAoNECAkijy2/yBAgIIfYBAgQIECAwXgEBZLzeeiNAoIYCQkgNi2JIBAgQIJCsgACSbGlNjACBQQSEkEG0rEuAAAECBIYXEECGt7MlAQKJCQghiRXUdAgQIECglgICSC3LYlAECFQlIIRUJa9fAgQIEGiKgADSlEqbJwECfQsIIX1TWZEAAQIECAwsIIAMTGYDAgSaICCENKHK5kiAAAECVQgIIFWo65MAgSgEhJAoymSQBAgQIBCZwGRk4zVcAgQIjFUgDyH5cvFpcf+6bGVzeMvpcc/hoUL4DwECBAhEL+AISPQlNAECBEYtkIeQP7xjftTdjLx9IWTkxDogQIAAgT4EBJA+kKxCgACBD92xEN59WxohRDUJECBAgECVAgJIlfr6JkAgKoFUrgmJCt1gCRAgQCA5AQEkuZKaEAECoxQQQkapq20CBAgQaIKAANKEKpsjAQKlCgghpXJqjAABAgQaJiCANKzgpkuAQDkCQkg5jlohQIAAgeYJCCDNq7kZEyBQkoAQUhKkZggQIECgUQICSKPKbbIECJQtIISULao9AgQIEEhdQABJvcLmR4DAyAWEkJET64AAAQIEEhIQQBIqpqkQIFCdgBBSnb2eCRAgQCAuAQEkrnoZLQECNRYQQmpcHEMjQIAAgdoICCC1KYWBECCQgoAQkkIVzYEAAQIERikggIxSV9sECDRSQAhpZNlNmgABAgT6FBBA+oSy2mgEWqNpVqsEKhfIQ8gf3jFf+TgMgAABAocKeO09VMTP4xYQQMYtrr/HCKyeaHUf84AfCCQk8KE7FsK7bxNCEiqpqRBIQmCN194k6hjzJASQmKuXwNhXt7sCSAJ1NIXDCzgd6/A2niFAoBqBNe3QqaZnvRJ4WEAAsSdUKpD9FcafhyutgM7HIeB0rHEo64MAgX4FVk8Er739YllvJAICyEhYNdqvwHFTrR39rms9AjELOB0r5uoZO4G0BLz2plXPGGcjgMRYtYTGfMxk6/aEpmMqBI4o4HSsI/J4kgCBMQkcMxm89o7JWjdLCwggS7t4dEwCR012rx5TV7ohUAsBp2PVogwGQaDRAuunWl57G70HVD95AaT6GjR6BBva4a8aDWDyjRRwOlYjy27SBGojsH6i85e1GYyBNFLAraAbWfZ6TfqpX9wzd8+BzmS9RmU0BEYv8OqTJ8LFp9n1z7x8/+ix9UCAwEMCG1e057/1vLVTOAhUKeAISJX6+n5I4MzV3RtREGiigNOxmlh1cyZQrUD2mntDtSPQO4EQBBB7QeUCp69u/UnlgzAAAhUJOB2rInjdEmiowONXTf1xQ6du2jUSEEBqVIymDmXNudPvO2mFzwNpav3NOwR3x7IXECAwDoETs9Ovbr125QfH0Zc+CBxJQAA5ko7nxiKwpdXqPG1d63Nj6UwnBGoq4HSsmhbGsAgkJPD09a3P/e0rWgsJTclUIhUQQCItXGrDPqnV/tl1E6Gb2rzMh8AgAk7HGkTLugQIDCKwdrLVPW2q/fODbGNdAqMSEEBGJavdgQR+56lr7rxwQ+tLA21kZQIJCjgSkmBRTYlADQSeuz58ccu5q2+rwVAMgYCL0O0D9RHYNN39sfz81PqMyEgIVCPgSEg17nolkKrAcVOthaM67X+X6vzMKz4BR0Diq1myI95y1vptLzy6/UfJTtDECAwg4ML0AbCsSoDAEQVedMzEe//wGdN3H3ElTxIYo4APIhwjtq76E3jJP+++88pd3ZP7W9taBNIWeMOpE+E/npr2hxX6IMK092Gzq1bg/PXtuz79rLWnVDsKvRN4rIAjII/18FMNBJ69dvJCt+WtQSEMoRYCTseqRRkMgkCUAidMhYVnTk8+P8rBG3TSAgJI0uWNc3JvOWf1rf/vMa1Xr2y5KVacFTTqsgVcmF62qPYIpC+wInsN/cHj2q/ecu4qn3yefrmjm6EAEl3JmjHgdz157cd/fOPkb086SbAZBTfLZQUcCVmWyAoECDwiMJG9dr78hInfe++5a/8cCoE6CgggdayKMT0k8PtPnv6tl54w8Z/bQog9gsBDAo6E2BEIEFhOIH/J/FfHT/zZHz1l7cXLret5AlUJCCBVyeu3L4EPPmX65/7txsnfXSGE9OVlpfQFHAlJv8ZmSGBYgfysgZccN/HhD583/bPDtmE7AuMQEEDGoayPQgLvffKaN/34xvab1k64KKQQpI2TEXAkJJlSmgiB0gTy18hXnBB+8yNPnX5daY1qiMCIBPxdeUSwmi1fYMv3Zi/4wv0L/+u62e668lvXIoH4BF598kS4+LT4b9HrNrzx7XtGXC+Bzatbs889Nvyrdz9p3efrNTKjIbC0gACytItHayrwwWu6a6/Yv+czn9/RvXCuU9NBGhaBMQqk8DkhAsgYdxhdJSUwlb2Le95RE5efN73mh379Sa3dSU3OZJIWEECSLm+6k7tk674f+erOub/8zkz36HRnaWYE+hOIPYQIIP3V2VoEDhY4e01rx/nT7f/vPd83/Q8HP+57AjEICCAxVMkYDyvwpqtn3pCFkEu+vruz8bAreYJAAwRiPh1LAGnADmqKpQlkwWPXU9eH9/3BuWsvCS3XRpYGq6GxCgggY+XW2agEfmPr3lfdsrfzq9/Y03nyzrmumyuMClq7tRaI9UiIAFLr3crgaiCwbiJ0n7aufc0pqyfe+wfnrv6zGgzJEAgUEhBACvHZuG4C+TUit3Rn3nDvge7LbtnXOu/mfZ1p14rUrUrGM0qBGEOIADLKPULbMQrkt9N9/Mr2zOmrWlcfN7XwqaMn171vy7mtPTHOxZgJLCUggCyl4rFkBLbc3F11YHbmon2d1vfv67bOmF9YWD8XWusXuq1VyUzSRAgcIvCqEye+8+z1re2HPFzbH3/h+vnn13ZwBkZgxALdbmduqt3atWKivWMqdG9e0+5+efW+6S9teUZrdsRda54AAQIECBAgQIAAAQIECBAgQIAAAQIECBAgQIAAAQIECBAgQIAAAQIECBAgQIAAAQIECBAgQIAAAQIECBAgQIAAAQIECBAgQIAAAQIECBAgQIAAAQIECBAgQIAAAQIECBAgQIAAAQIECBAgQIAAAQIECBAgQIAAAQIECBAgQIAAAQIECBAgQIAAAQIECBAgQIAAAQIECBAgQIAAAQIECBAgQIAAAQIECBAgQIAAAQIECBAgQIAAAQIECBAgQIAAAQIECBAgQIAAAQIECBAgQIAAAQIECBAgQIAAAQIECBAgQIAAAQIECBAgQIAAAQIECBAgQIAAAQIECBAgQIAAAQIECBAgQIAAAQIECBAgQIAAAQIECBAgQIAAAQIECBAgQIAAAQIECBAgQIAAAQIECBAgQIAAAQIECBAgQIAAAQIECBAgQIAAAQIECBAgQIAAAQIECBAgQIAAAQIECBAgQIAAAQIECBAgQIAAAQIECBAgQIAAAQIECBAgQIAAAQIECBAgQIAAAQIECBAgQIAAAQIECBAgQIAAAQIECBAgQIAAAQIECBAgQIAAAQIECBAgQIAAAQIECBAgQIAAAQIECBAgQIAAAQIECBAgQIAAAQIECBAgQIAAAQIECBAgQIAAAQIECBAgQIAAAQIECBAgQIAAAQIECBAgQIAAAQIECBAgQIAAAQIECBAgQIAAAQIECBAgQIAAAQIECBAgQIAAAQIECBAgQIAAAQIECBAgQIAAAQIECBAgQIAAAQIECBAgQIAAAQIECBAgQIAAAQIECBAgQIAAAQIECBAgQIAAAQIECBAgQIAAAQIECBAgQIAAAQIECBAgQIAAAQIECBAgQIAAAQIECBAgQIAAAQIECBAgQIAAAQIECBAgQIAAAQIECBAgQIAAAQIECBAgQIAAAQIECBAgQIAAAQIECBAgQIAAAQIECBAgQIAAAQIECBAgQIAAAQIECBAgQIAAAQIECBAgQIAAAQIECBAgQIAAAQIECBAgQIAAAQIECBAgQIAAAQIECBAgQIAAAQIECBAgQIAAAQIECBAgQIAAAQIECBAgQIAAAQIECBAgQIAAAQIECBAgQIAAAQIECBAgQIAAAQIECBAgQIAAAQIECBAgQIAAAQIECBAgQIAAAQIECBAgQIAAAQIECBAgQIAAAQIECBAgQIAAAQIECBAgQIAAAQIECBAgQIAAAQIECBAgQIAAAQIECBAgQIAAAQIECBAgQIAAAQIECBAgQIAAAQIECBAgQIAAAQIECBAgQIAAAQIECBAgQIAAAQIECBAgQIAAAQIECBAgQIAAAQIECBAgQIAAAQIECBAgQIAAAQIECBAgQIAAAQIECBAgQIAAAQIECBAgQIAAAQIECBAgQIAAAQIECBAgQIAAAQIECBAgQIAAAQIECBAgQIAAAQIECBAgQIAAAQIECBAgQIAAAQIECBAgQIAAAQIECBAgQIAAAQIECBAgQIAAAQIECBAgQIAAAQIECBAgQIAAAQIECBAgQIAAAQIECBAgQIAAAQIECBAgQIAAAQIECBAgQIAAAQIECBAgQIAAAQIECBAgQIAAAQIECBAgQIAAAQIECBAgQIAAAQIECBAgQIAAAQIECBAgQIAAAQIECBAgQIAAAQIECBAgQIAAAQIECBAgQIAAAQIECBAgQIAAAQIECBAgQIAAAQIECBAgQIAAAQIECBAgQIAAAQIECBAgQIAAAQIECBAgQIAAAQIECBAgQIAAAQIECBAgQIAAAQIECBAgQIAAAQIECBAgQIAAAQIECBAgQIAAAQIECBAgQIAAAQIECBAgQIAAAQIECBAgQIAAAQIECBAgQIAAAQIECBAgQIAAAQIECBAgQIAAAQIECBAgQIAAAQIECBAgQIAAAQIECBAgQIAAAQIECBAgQIAAAQIECBAgQIAAAQIECBAgQIAAAQIECBAgQIAAAQIECBAgQIAAAQIECBAgQIAAAQIECBAgQIAAAQIECBAgQIAAAQIECBAgQIAAAQIECBAgQIAAAQIECBAgQIAAAQIECBAgQIAAAQIECBAgQIAAAQIECBAgQIAAAQIECBAgQIAAAQIECBAgQIAAAQIECBAgQIAAAQIECBAgQIAAAQIECBAgQIAAAQIECBAgQIAAAQIECBAgQIAAAQIECBAgQIAAAQIECBAgQIAAAQIECBAgQIAAAQIECBAgQIAAAQIECBAgQIAAAQIECBAgQIAAAQIECBAgQIAAAQIECBAgQIAAAQIECBAgQIAAAQIECBAgQIAAAQIECBAgQIAAAQIECBAgQIAAAQIECBAgQIAAAQIECBAgQIAAAQIECBAgQIAAAQIECBAgQIAAAQIECBAgQIAAAQIECBAgQIAAAQIECBAgQIAAAQIECBAgQIAAAQIECBAgQIAAAQIECBAgQIAAAQIECBAgQIAAAQIECBAgQIAAAQIECBAgQIAAAQIECBAgQIAAAQIECBAgQIAAAQIECBAgQIAAAQIECBAgQIAAAQIECBAgQIAAAQIECBAgQIAAAQIECBAgQIAAAQIECBAgQIAAAQIECBAgQIAAAQIECBAgQIAAAQIECBAgQIAAAQIECBAgQIAAAQIECBAgQIAAAQIECBAgQIAAAQIECBAgQIAAAQIECBAgQIAAAQIECBAgQIAAAQIECBAgQIAAAQIECBAgQIAAAQIECBAgQIAAAQIECBAgQIAAAQIECBAgQIAAAQIECBAgQIAAAQIECBAgQIAAAQIECBAgQIAAAQIECBAgQIAAAQIECBAgQIAAAQIECBAgQIAAAQIECBAgQIAAAQIECBAgQIAAAQIECBAgQIAAAQIECBAgQIAAAQIECBAgQIAAAQIECBAgQIAAAQIECBAgQIAAAQIECBAgQIAAAQIECBAgQIAAAQIECBAgQIAAAQIECBAgQIAAAQIECBAgQIAAAQIECBAgQIAAAQIECBAgQIAAAQIECBAgQIAAAQIECBAgQIAAAQIECBAgQIAAAQIECBAgQIAAAQIECBAgQIAAAQIECBAgQIAAAQIECBAgQIAAAQIECBAgQIAAAQIECBAgQIAAAQIECBAgQIAAAQIECBAgQIAAAQIECDwi8P8DEaU3UaSYj/8AAAAASUVORK5CYII=;" vertex="1" parent="946yB2kiyRNA8O-wq0YF-64">
          <mxGeometry width="60" height="60" as="geometry" />
        </mxCell>
        <mxCell id="946yB2kiyRNA8O-wq0YF-65" value="MQTT Broker&lt;br&gt;(Mosquitto)" style="rounded=1;whiteSpace=wrap;html=1;" vertex="1" parent="946yB2kiyRNA8O-wq0YF-64">
          <mxGeometry x="45" y="128" width="120" height="60" as="geometry" />
        </mxCell>
        <mxCell id="946yB2kiyRNA8O-wq0YF-1" value="" style="shape=image;verticalLabelPosition=bottom;labelBackgroundColor=default;verticalAlign=top;aspect=fixed;imageAspect=0;image=data:image/png,iVBORw0KGgoAAAANSUhEUgAAAyAAAAMgCAIAAABUEpE/AAAAAXNSR0IArs4c6QAAAERlWElmTU0AKgAAAAgAAYdpAAQAAAABAAAAGgAAAAAAA6ABAAMAAAABAAEAAKACAAQAAAABAAADIKADAAQAAAABAAADIAAAAADAlM0/AABAAElEQVR4Aey9SZMcyXW2GznXBBSAHtlNsrtJSiaJ1OZKK21kV/rhWmhF40J2TTIZRZFssSf0iLmqsnK8j8ebecoROSCrEA0gM19nf1HHjx8/7vFEfohXHp6Rjel0WriYgAmYgAmYgAmYgAnUR6BZXypnMgETMAETMAETMAETSAQssPw5MAETMAETMAETMIGaCVhg1QzU6UzABEzABEzABEzAAsufARMwARMwARMwAROomYAFVs1Anc4ETMAETMAETMAELLD8GTABEzABEzABEzCBmglYYNUM1OlMwARMwARMwARMwALLnwETMAETMAETMAETqJmABVbNQJ3OBEzABEzABEzABCyw/BkwARMwARMwARMwgZoJWGDVDNTpTMAETMAETMAETMACy58BEzABEzABEzABE6iZgAVWzUCdzgRMwARMwARMwAQssPwZMAETMAETMAETMIGaCVhg1QzU6UzABEzABEzABEzAAsufARMwARMwARMwAROomYAFVs1Anc4ETMAETMAETMAELLD8GTABEzABEzABEzCBmglYYNUM1OlMwARMwARMwARMwALLnwETMAETMAETMAETqJmABVbNQJ3OBEzABEzABEzABCyw/BkwARMwARMwARMwgZoJWGDVDNTpTMAETMAETMAETMACy58BEzABEzABEzABE6iZgAVWzUCdzgRMwARMwARMwAQssPwZMAETMAETMAETMIGaCVhg1QzU6UzABEzABEzABEzAAsufARMwARMwARMwAROomYAFVs1Anc4ETMAETMAETMAELLD8GTABEzABEzABEzCBmglYYNUM1OlMwARMwARMwARMwALLnwETMAETMAETMAETqJmABVbNQJ3OBEzABEzABEzABCyw/BkwARMwARMwARMwgZoJWGDVDNTpTMAETMAETMAETMACy58BEzABEzABEzABE6iZgAVWzUCdzgRMwARMwARMwAQssPwZMAETMAETMAETMIGaCVhg1QzU6UzABEzABEzABEzAAsufARMwARMwARMwAROomYAFVs1Anc4ETMAETMAETMAELLD8GTABEzABEzABEzCBmglYYNUM1OlMwARMwARMwARMwALLnwETMAETMAETMAETqJmABVbNQJ3OBEzABEzABEzABCyw/BkwARMwARMwARMwgZoJWGDVDNTpTMAETMAETMAETMACy58BEzABEzABEzABE6iZgAVWzUCdzgRMwARMwARMwAQssPwZMAETMAETMAETMIGaCVhg1QzU6UzABEzABEzABEzAAsufARMwARMwARMwAROomYAFVs1Anc4ETMAETMAETMAELLD8GTABEzABEzABEzCBmglYYNUM1OlMwARMwARMwARMwALLnwETMAETMAETMAETqJmABVbNQJ3OBEzABEzABEzABCyw/BkwARMwARMwARMwgZoJWGDVDNTpTMAETMAETMAETMACy58BEzABEzABEzABE6iZgAVWzUCdzgRMwARMwARMwAQssPwZMAETMAETMAETMIGaCVhg1QzU6UzABEzABEzABEzAAsufARMwARMwARMwAROomYAFVs1Anc4ETMAETMAETMAELLD8GTABEzABEzABEzCBmglYYNUM1OlMwARMwARMwARMwALLnwETMAETMAETMAETqJmABVbNQJ3OBEzABEzABEzABCyw/BkwARMwARMwARMwgZoJWGDVDNTpTMAETMAETMAETMACy58BEzABEzABEzABE6iZgAVWzUCdzgRMwARMwARMwAQssPwZMAETMAETMAETMIGaCVhg1QzU6UzABEzABEzABEzAAsufARMwARMwARMwAROomYAFVs1Anc4ETMAETMAETMAELLD8GTABEzABEzABEzCBmglYYNUM1OlMwARMwARMwARMwALLnwETMAETMAETMAETqJmABVbNQJ3OBEzABEzABEzABCyw/BkwARMwARMwARMwgZoJWGDVDNTpTMAETMAETMAETMACy58BEzABEzABEzABE6iZgAVWzUCdzgRMwARMwARMwAQssPwZMAETMAETMAETMIGaCVhg1QzU6UzABEzABEzABEzAAsufARMwARMwARMwAROomYAFVs1Anc4ETMAETMAETMAELLD8GTABEzABEzABEzCBmglYYNUM1OlMwARMwARMwARMwALLnwETMAETMAETMAETqJmABVbNQJ3OBEzABEzABEzABCyw/BkwARMwARMwARMwgZoJWGDVDNTpTMAETMAETMAETMACy58BEzABEzABEzABE6iZgAVWzUCdzgRMwARMwARMwAQssPwZMAETMAETMAETMIGaCVhg1QzU6UzABEzABEzABEzAAsufARMwARMwARMwAROomYAFVs1Anc4ETMAETMAETMAELLD8GTABEzABEzABEzCBmglYYNUM1OlMwARMwARMwARMwALLnwETMAETMAETMAETqJmABVbNQJ3OBEzABEzABEzABCyw/BkwARMwARMwARMwgZoJWGDVDNTpTMAETMAETMAETMACy58BEzABEzABEzABE6iZgAVWzUCdzgRMwARMwARMwAQssPwZMAETMAETMAETMIGaCVhg1QzU6UzABEzABEzABEzAAsufARMwARMwARMwAROomYAFVs1Anc4ETMAETMAETMAELLD8GTABEzABEzABEzCBmglYYNUM1OlMwARMwARMwARMwALLnwETMAETMAETMAETqJmABVbNQJ3OBEzABEzABEzABCyw/BkwARMwARMwARMwgZoJWGDVDNTpTMAETMAETMAETMACy58BEzABEzABEzABE6iZgAVWzUCdzgRMwARMwARMwAQssPwZMAETMAETMAETMIGaCVhg1QzU6UzABEzABEzABEzAAsufARMwARMwARMwAROomYAFVs1Anc4ETMAETMAETMAELLD8GTABEzABEzABEzCBmglYYNUM1OlMwARMwARMwARMwALLnwETMAETMAETMAETqJmABVbNQJ3OBEzABEzABEzABCyw/BkwARMwARMwARMwgZoJWGDVDNTpTMAETMAETMAETMACy58BEzABEzABEzABE6iZgAVWzUCdzgRMwARMwARMwAQssPwZMAETMAETMAETMIGaCVhg1QzU6UzABEzABEzABEzAAsufARMwARMwARMwAROomYAFVs1Anc4ETMAETMAETMAELLD8GTABEzABEzABEzCBmglYYNUM1OlMwARMwARMwARMwALLnwETMAETMAETMAETqJmABVbNQJ3OBEzABEzABEzABCyw/BkwARMwARMwARMwgZoJWGDVDNTpTMAETMAETMAETMACy58BEzABEzABEzABE6iZgAVWzUCdzgRMwARMwARMwAQssPwZMAETMAETMAETMIGaCVhg1QzU6UzABEzABEzABEzAAsufARMwARMwARMwAROomYAFVs1Anc4ETMAETMAETMAELLD8GTABEzABEzABEzCBmglYYNUM1OlMwARMwARMwARMwALLnwETMAETMAETMAETqJmABVbNQJ3OBEzABEzABEzABCyw/BkwARMwARMwARMwgZoJWGDVDNTpTMAETMAETMAETMACy58BEzABEzABEzABE6iZgAVWzUCdzgRMwARMwARMwAQssPwZMAETMAETMAETMIGaCVhg1QzU6UzABEzABEzABEzAAsufARMwARMwARMwAROomYAFVs1Anc4ETMAETMAETMAELLD8GTABEzABEzABEzCBmglYYNUM1OlMwARMwARMwARMwALLnwETMAETMAETMAETqJmABVbNQJ3OBEzABEzABEzABCyw/BkwARMwARMwARMwgZoJWGDVDNTpTMAETMAETMAETMACy58BEzABEzABEzABE6iZgAVWzUCdzgRMwARMwARMwAQssPwZMAETMAETMAETMIGaCVhg1QzU6UzABEzABEzABEzAAsufARMwARMwARMwAROomYAFVs1Anc4ETMAETMAETMAELLD8GTABEzABEzABEzCBmglYYNUM1OlMwARMwARMwARMwALLnwETMAETMAETMAETqJmABVbNQJ3OBEzABEzABEzABCyw/BkwARMwARMwARMwgZoJWGDVDNTpTMAETMAETMAETMACy58BEzABEzABEzABE6iZgAVWzUCdzgRMwARMwARMwAQssPwZMAETMAETMAETMIGaCVhg1QzU6UzABEzABEzABEzAAsufARMwARN4RQSmZXlFg3kYEzCB10qgwf9/f60T8OAmYAImYAImYAImsGsEvIK1a1fU52MCJmACJmACJvDaCVhgvfZL4AmYgAmYgAmYgAnsGgELrF27oj4fEzABEzABEzCB106g/dpn4AmYgAmYwH4SiC2wjUZjPwn4rE1ghwlYYO3wxfWpmYAJvKEEQlq9ofPztEzABF6agAXWSyN0AhMwARO4DoFQV2F4Bes6/BxrAttBwAJrO66TZ2kCr4WAFMB1b/+hG5jzdfuuP00yv3zCSpJ8trn98gNxLnnCvEryxaZaRlwP0K0mYAKvjIAF1itD7YFM4DUT4I5euYUv3uNjioqsxEfremOx12QyWd+l0tpsXn3/Jp/kYuZKxzXVPE8eRs5ounH+yKDMec58LOwYIo+pdK90cdUETGAbCVz9y7KNs/ecTcAEflQCq278q/xSD4utuWDaZMLKEHnCiDzhWZ9tVVioHLqviskz5/F5l1wk5fFLc+KM+Ss4wvCTipInsW0CJrDVBCywtvryefImsJyA7tyLN+zKSlLc4MlSCc6blo+x2rt5XwZdGpxPJg9Y5V89l1lLngRXnifvWwmLpohfFRCRMtaERao8EoHVarUqTZWcrpqACWwXAT8i3K7r5dmawEYEVt2q8S+99yO8Kl0UFs6lvdZP5bpd8vgYlyFyO4/JR1/lp+/SpqXOPGHYi5G5Z1X+fM5KJQ99o3veN5wEYy92j/nYMAET2BYCFljbcqU8TxO4CQHduTmGoSyqYm9iVLrkvdSUH3NxEMkrj8YiPgLCUJNW2iJVGNHxJY3KcJE/jEpADLfKHwEyIiwSysiPeRfOly4RnDfZNgET2FICFlhbeuE8bRNIBOJGvhSHWjnKIGY4HCoyPDJ0aw9nZJMwyv2yc08Ey6ioBEWORqNK2NJqpM3HJWH4o9eiJ5rWGEt7VSYc3fPgPCb3R3DFiJjoGAaR2FHUkWpkoG9eDb8NEzCB7SJggbVd18uzNYGNCEjQLN6nDw8P494vI6rkxc6rdB+PxzFe3hTOiqGYGFdVju329f6pWTVW+COzph0jVuazqro0HmfsUYuBlD+OShitkSc8CogVOwVEGAIXu1LoEvHq7qMJmMAOELjev3o7cMI+BRPYJQLc12OxB5s7N0c9b8LPvmlOVvd+3dSpYohAGGuAKMNiwCZ9F3vdzKP5q++rHPdms6300uTjojB/7IuLi263C1t0MEdUbKfT0XXk2llsVRi6agJbSsACa0svnKdtAolAfjMOIcJdnNs2RwoxHGmSHUbgUy+1hjOMVf58rAi+lrF+3DxVzCEGzVtlr2laDF7jibHWxFyrSQl1ZJKsILKIpXWy8/NzUp2cnCCztFJYOQuqtc/nWpN3sAmYwMsQsMB6GXruawJvCgHu2RTux0gujpR8Zqrq/r30tl25tUffSp7wh7E0W7SuMlYNtype/hdOZn3319vKdRErtO/BwQGi6unTpzh14WiiMMOtPsfXS9ijm8CbRsAC6027Ip6PCVyDAHdlbsnl3TkddHvmSJFTuaKKUcm+6MkDSJJXK/Zi31XxlchKtZJ2TXXD/GsyvJqmfJ6Vk0VUobE49nq9wWDA40ICFB/Gq5mkRzEBE/hRCVz9HsWPOoyTm4AJ/EgEuDfr9sw9WyXu6PLHuPJHa/jXGASvKYsdVwUvRu62Bw5LT5BHgVwjWjnycBCldXZ2psukLrJzz9I8dpqACbz5BCyw3vxr5BmaQJUAN2AV3ZV5zERVt+0IzatqzW/hEXYzQ6PfrO8mvci/SdibHANtAY9JUkVXUeXsuGSsYLHVnS1ZPC6kGmE2TMAEdoOAHxHuxnX0WewRgYr44N7MHRqnHjxxF8ejGzlQVKVVd3f1VfVlkL1kHiaj0ZVn6UwqTdFlk+ClMT+Gc5NZ5bQVH0f2vKOxLi8vEVv5VfsxpuqcJmACr5iABdYrBu7hTKBmAhJYHLmR6/ETNrdw3cVxqimq1xqevkvjlY1jRQZVqtFX8armvVbFE5l3obom8oWtGneTY2XQ6LJq9FV+naNaKzl5SshbwaSA2e1OefToER5Q6/Llg1b6RpMNEzCBN5+ABdabf408QxN4joBu3ri4f2PHl/y5c/f7fW7SLGVprw8xvAuAWzjPoeTHWNQEFU/lpq4qRxkEq6gqBSa5gF/Gc9PNKgRktStTqa7q81OTZzZe2ZdTi+AQf/nE1CVioglDRXPAVlriw4+H+SsgPxKzeF4KiBnGuGRTTgKYrcL0nlU1ySmbUzg9Pb1//z5LWfilseiiVuX00QRMYEsJWGBt6YXztPedgO7cCCmKZFPc2lEDiCq+oYbBbZu7OzabqSW21LGCb9VNHfVGJJlVsNU94lVlIAKwQ/RU8tMaHnWJVBh5q8KUX34d1Qs7qvlYOCNtGXJVzf2RnAnjV5MSaj5hKzKOClY8R4VFcPgjnositYSHx3/37t3jUWB4FE8TGbhAvGWUeFWVQUNEfjl9NAET2C4CFljbdb08WxO4IsBtmHs292btko77MQaSi6Zbt27FuwAkwljioheFLBFPNWwZCuAYN378KtFElSSqhsC6mtzzlsLkiwy5U9kiIcZsvEyZyakY+nKCkUGCiSZKTIxWtAsehYW/jErO3C8nOWUsHhWvLrRqehGvVk0JG0XLRYE5b2FA4H700UcffvghfmSWMmNrPggsrpGuDmexOK49JmACW0rAAmtLL5ynvb8EdC/nCAIEkErcsGVwg+dezp2b+/eTJ0+I4aUA0gTqTl/d4DGib+7BSZOEi/zRPe8ihaEAdaF1sUQGNWkOMa6cxFQyqBet8kc8Rl4IkDTBqWAMaR2twMmvUSod5YxjSJxIpSZxwFZ3jMUzEgpQ0wp2jprD48ePHz58+P7777OsSHc6UmIaZCZYwpcuURQZVRsmYAJbR8ACa+sumSe81wS478b5Y3M7R0NQsEMcEIDNXZwbPE0cj46Ojo+PUV3E41eGNQYBalXOzW/26pVPUmPlGRTDMZzyRCTG0gzhz1uVRx6OMjhlCjarR6VvBk2tHGmNbBpXx5hJROatYUfOYK6cpNV8MBhahRiqlOheMejLZYqhK62umoAJbCkBC6wtvXCe9v4S0N1dR+7KlRszftAgpFjBwlYrd3psnkPxyCw6EqZWdcmBhm7AUHzeKlt9FakjkSzGVLKpKmGnLhxlRM6oEiwbOSJDRyXhqIITQ3MjCXYco9fSmasjwZqwJqDu2NEqW615jJLjYXqaScREk1rhQAzAGYh1RJwSwXm8hlOeEL5UlSoIRBcbJmAC20XAAmu7rpdnu9cEQgpAQTY3YxU8GEGH2zm3dhWcqnLXV3D0VTzOPLNSKVueU3ZE5lVsCk1q1VHJZWvoGE4GxzySKknkZOaqyhORxKvgUYnqvCWJrZhM7szj8eeZVcWD0Jnlff4PTZTIwPToQlVHGYrhSCuiiiaw04S65fRxRgbl4aguRFLUGkbE2DABE9hSAhZYW3rhPO29JsBtmPPnyDqHSgWHNndzg9etnbs7hTs9AiJu4ZX7feSUP+79lcyVVvXSZLAZRfG5H09lrPAwecXnR/pq9HAqm/yROVrDoEkFT25EQG4QwCizDiVPqswfj8Jk6KjzUrCSKyb8VPNzZ287O66ATxewayB10RF/nCNGNGm4qNowARPYXgIWWNt77Tzz/SKQ33p1w46bNLf2XGZRpQkPMks3bwXkz6HELu7xShUJaZX0UfcYLidOMEUeDKWil7rkkRGz6MQT8TIiVfTSKPkxInFqnmrFjyGb7jprjPBUbPXVQBypKlJ55MemhB3BkRNDRd2xMXg+y463ULSQZzLqSwAJo4qTeK11YYc/jBjRhgmYwHYRsMDaruvl2e4vAe7K3Jvj/HM7nDLUxJE7N/dpjCjc8nESJo8MjqEhlCGqhMkTkZWAaF3vz/MoUtPQQDEcTbkdOdWd45pWmhSQGxEfE1CrMscxwpZOIMLUqlTKk8NUEoBjhGDK+66yY26rAuw3ARPYRgIWWNt41TznfSew9JasW/4qNLr906qwqOJRtqU582zqkocplXLmkbmd94pBSaI8sU6TN1W6K7IyylKn5hOp8jxLbcXnTdE3msJTCWMCitFMKmFU5dEx77vUjtNZ2mqnCZjANhKwwNrGq+Y5m0AiwF25cmPmdi5Pur2XhbC5mZ5zseISXfCnLHPJJbty1AJY7oxeci6tagiOldY8z2LmvLVi53li/mHQmtuVvqoqQyWMat53aUeclRhVddRZkIdCpAyOtFJWJaz4iddKWMXvqgmYwFYTsMDa6svnye8dAd3IF097ze0875LbJCllwOzJWiWnEhKfZ17sHr0qTUqu1jyDPLFwFb3CUICq6pgfESJUozV6hTPGjZg8oezKUfkjTFW6y8iPeYwCaMWIB4Wq5k14KJURF6shsGLcxRh7TMAEtouAf5lhu66XZ2sCGz3R4z69WGAX9/swFLYKayVJHlbRDXk1t9Ul98jmGDJLE6skz7vkTQrOW+MUMBRJax4Q3cMpI6qrAiJbBGDkfWNo+WmicF4yOOYdY3rhlEdJFlsjzIYJmMA2EvAK1jZeNc/ZBNYR4FYdt/a4bePJ7Ur/aAq/kijPYmvkzwPCSZKw6Rvdw0mA/LlHtoJzv4J1jBgMRSpPxGCohH/uqP5VhshDc9iLTZXOiwF5X4LjLPBX+laqcRYVv6smYALbTsACa9uvoOe/jwSW3pXjHg8RbEoYUa3Awk8qRVaa1FdOhV0rQDk1TzrGKOHHQ+FNUXlaPArQUR1xhhGtiuSoEvF5Nmz5icHgWGlVtdI3r+b2+r55cg23ZsTFVIvdF2PsMQET2C4CFljbdb08WxO4IsAtnL07cW/GkK1bu7b16HEVfVSVYtARJ/Gy1fEqdWmldPOAvCmcGPKTRHkacw0znSQLiddIh6R0dFRY6UiKJzKk1qzkfrpQjY5EpW7l0Dg5waiqKUtztZIkp3rlYZFHAfko4dEEVOWoqo6RMFoVoOtCK2F6G1a8hKwSSUy8/ZVeOp08xrYJmMCWErDA2tIL52mbwEw9rAchBcCRws1+VfCqJnqt6hL+Sl/2dfKiLZyLfSueSsdIiFGJrDRFayUDfnkiYNHIU2FXMkQr/uirsDXV6JUbeWbsvJqH2TYBE9hVAhZYu3plfV57TUBqID/eDMdSWbDUGfmX/PbNXDCFWEtyo1R7uWqJDBhqxagEVKrRZVV8BOQGwavy5GEvb2ug9WOpdX3My8/EGUzABF49AQusV8/cI5rAKyXAbT7KjQcmA30XdYD8S9PSFPGz7ilBWmSSP4zF7oqv+GdJ5hnWdI+OMYHwbNJLMZtERtpFg+7hXGXH9MKILjZMwAS2nYAF1rZfQc9/7wjoZnytWzI3eG3G0k6s6yILfYAR44Yzzza9EhWley7LFNzU6pYWsnj4WAnOE81tjRjjKg9zkEEUtkrY867r/kbCPCh3yo5RImzRE00Vg8g8OLcrkVHdJCaCbZiACbzhBCyw3vAL5OmZwHMEEBPU8+NzzfPK4q0az6JzHr5kaSqaKr2oMnrFGcFLDYIp0UuTJzJ5mhuIrKVJF5xko1TcjCtPNIVRiVxTVRedwpqwSlM65/noYVRiVCW/hljaaqcJmMCWErDA2tIL52mbwDoC5c39Sru88Ba+XgFURloTrBWs+C5hdJSAoDVNLN+lNZcgESljc8GxOJkX9iUgTSNbjWNQqhzVpDlUAuTMjy8MWAzWKLlfdmXO+TQWg+0xARPYCgIWWFtxmTxJE7ghAW7VKjwcXHV3J/WqJvrecODnu5GHITSKjrRrYs8HvqBW6RKpopsG4iiPAirOCL6usTjc+gzXjV+fza0mYALbRcACa7uul2e7vwQq2qICgnu5it7ApOPcl/4SL40lW0dy4qSJHVqVhHlVwfKEdskDwl61dvVchsbsieS0SEta0RcjwlaNotkqjGOEYago25o8NFGUJ4bGU+kYVdJGWG6oC0cCRA+DtPlLragSQKEjrRUDJx51oVckXwyLJhsmYAJbRMACa4sulqdqAlUCuhnj1f2bI7acHFXkwc4NbFVl/HhHjav8ml5u5x78Uc175XOrCEHCoksetsZW/A06rsoZqSJzeFZ1sd8ETGAfCFhg7cNV9jnuOAFu7SpxntzjZeOXIU9+zP3RcdGIVBEfOReDc0/esfrtQuKWLwylBHTMh1DgLDzrpRiOMvKO4UnpyrLoqYwyD7xaRZNnVVilNc9f6VKpxkDrDXqtD3CrCZjAG07AAusNv0CengnchIDu93pExZGqPLrZyybvj3cXj8wyeBpYOQ3NJMLUGtWYYaUX1XQmc9WIobOjIyX8Csv7qpWjnIqsOPP4G9jkVNroS35KVJca6lLpuDTSThMwge0iYIG1XdfLszWBlyJQuZFTXaUAVvkZfk1TMZknDEFVCgyNO3sN1lwekeq5n3qePyJclz87e3IqraYUdoSU7TGP2cKYkkdwZaxKValwRnwkX9O0mGTRo+6r0lZGcdUETGAbCVhgbeNV85xN4AUEdEfnmJelfXSPJyxvrVTzpvX2Ysfn8mdbxGYPDa/0z1XiNbKDPVi0smp1FX0ji3muGeVGKa865ZkZKMbCj30VZ8sETGCnCVhg7fTl9cntOgHu2RTOMr9z44lqGDmJilMZIqDSGv4NjVAQPJiky0xBzQVNmm75Nixl09DXHZH4DTtGZBpX85njiqYNz2tpmHIubVrlvO7JrspjvwmYwBtOwALrDb9Anp4JbEogVwyx7ypUhYy4u4eBP+w1IynmxXqi2ZjylLDQClODN7UPi8a4WQzLTViltin0olGCeIv77OUQ02KCLiu1WGua/J3GtMlrJcrQUpFNmhPJtbSCFYUJy151CtMG3cqOkyJlmExHBbMqmi2NTFOaatJ85ehBYNPzjQ4Le/OzFpsmYAL7SMACax+vus959whIZ+i8EAcUPDxQQ2mNRiNsjHa7jaGYMKLLeiaV+KXByBTE2rgx6SS9NG02uk/7o/FB58mkeDIqRoiYUdIzLbQOmkbbr8a8gqsYTorxZNrsNLqtojstDibFcXNycogiQp41G63WcNjvTMadZmec5l99ZZdOdskMm9OiXVwOh51mu0uWs1GzaE273Yti0h8zlaJXNDqdbn/UH47GRwddQBGgU1uSrWxgLP7SqpJAz5/6xYPL3EkwVTVFpDJEGK0KKEdIyfNIOX00ARPYOgIWWFt3yTxhE7geAd3IX809ezAet1vNyWgwGo07vd602/lhWHz64OKzhw+GRas57TRpnyL+RpPmOWqr1ehOJ2ixcbPTRmKNB5N3Dg8/unfy01stFNA4rSwheWjsdUbD5rRx9TrOzRig8kqpmZbVmpPWuGgNG+0RM0xDTyeXw/F42m51m+1Jk3Wz6bhoVLbdV4dZVD8zqTVXrnTAU+3mugmYwP4RsMDav2vuM94DAnGPR1+wjvVq1BVc28W0nZ4Btlg0YxXr237xf0/7f37w6NNvvrnkoV/RbjZ6SKYpK1aNPutriJHyJeaTRqs5HCKwxu8dnTwb3Ckadz5oHXQbnfaYlqLJ6lVaFBtzJqP5tq5VlzHOnYDpYNROM+pMpq1xr1d0es8axYP+xcXg4q2TkyOmNCY1I0wno3XiTTJNI0b+3LlqMpv4SRg5N4l3jAmYwFYQsMDaisvkSZrAtQnono0IoFRegH7tXJt1YBtTq5VWgNhGVbQOHg6K33/53f89Oz9vNMetbjEZT9ITvhHLO/xlTi0e/xXDVrfFZivWjtrHJyd3DnA/HI0//fr7w+7775+0ecpXjIvJkKxknla2SukckzxZtmjEfNiC1W53x9NOf1K0O4ejTvHZ44s/fPn5dDz69Uc/77UPOuNhenzKU9Ri3OIriivOFIbpvLJR8FDVsdJpqbMSE1Xl5EjRKNFkwwRMYKsJWGBt9eXz5E3gGgS4hV8j+vqhPNArvzmIWmpdNhrfnRV//u7R/YtB59bJh2+/SyO7r9hBNZq22XLUbEzazclgctluN1nEYhvWpHOLdabzs6dfP3h8fPfgcjBGFLVY70LbsPiVJA6PEZPU2rg022z1YlPYlMeSaSvYlw8H/9/9+59++c07p6c/n7bfa7aRfU0eQ06bbBJD2zHkdcuiKrou5+vGX3eGjjcBE3gtBCywXgt2D2oCr4hA3LxlLKqBeucxZkcV60DNRn9UPBpNz4vWoNkqhsP37rx3p9s+7rbZ0s6X+RBL7fR4kFWl9C2+0aQYTIsHl8Vn3zx+fN6fsC29extRxcIVrSyKkQNjOhqnrwQih1YoxfDPTjYN1BiOJmPEXaf1qF/84Zvv//eHx5ftw3ePb03bB+Mp30lspO8lJi482USAMk51Ez2IIjM2sVHN7SCZkq0us9HKgMgTxup+bjEBE9gyAhZYW3bBPF0T2ISA7vG6l3NUoeP6e/8mmdfHpO8t8kyvWVyMi8eD8UWj0er2WKk6bUw+OCjePkrLUQR0mkWXJatRen0D3y5EM12Qd1B81T9vjAaHvdZBr502w6eWtNE9PVpssC9+lN7e8Hzh1J53PFcrW1MaHgE+GhbfXo6eTVvd44PO0WkzKSsEFbvA2AHPfnoeYTbiW4TPZZlXgh7GmnHXNM0zXf0lOErkv2q2ZQImsLUELLC29tJ54iawloDu1ty810bV3Mh+9AFKaVpcToqnl8On/eG002In1Umv9fZB+60WgmlyOZ12ixZ73SdTNke1Js2CLww20vuyxsWY3hPWkti1xaPDXodd8yluOLlsttgIzzb3yaLGWnUOaCY6t7u94bj9bFg8HU8H7d6w2eUrjK20dT7pvE6bfwOHbMIq2jyMbLIAV3kh1mLyUFcVtqGTFruEJ7pYSwUTGyawqwQssHb1yvq89poAN3JtbNdXCNnztPQlWJXbfOX2H0piFcqIJ0Cp0h6paXswbvDVvUfnF+MWG+wb3S5vWUDRoKNQe0P2tpdP4nj7AvujpixiTRrti2kxbIwfX56zM6vZax7dPmq22a016UwRYEWrnfbpcxZplPLBXwydTzLsMFBSPCEcstW9U/Qn0wdPzxqtdrfVOD08bo8KtmA1pqNpY9RoI9uQopPW/D1YS09Zg8bQTClsEYgqhlox0oazsihmdhblAMxTYYrRoDgx6ChDTh9NwAS2joAF1tZdMk/YBK5NYOmteqnzWqkrGVj7QR0lEcQK1qDojwZNdpkX00OeEjYQM2xu4glfWiRilFI/sB2eN6vztnf+TJ8NBixuse2q1T3odQ87nXaHRaXJdML7E9A+vNh9ggCqPiJcP+H0DJAXXk0byLjzEd8YZOwmqY+b7aP0OJAHhENe8V5OJ70aNT2/XFZCOS1rtM8ETMAElhCwwFoCxS4T2E8CSRpttnAiaZXLDnkm43Gzxfs8i6f9wTnvZ2AL+ag4PbzVa6bvA7JtHanEkhYKS48u6aUXvPcnjccXl0PeNTqZHHaOu60uj+xKIZZe4pUkUqPNFxCvflJn2RWK+chI32pM2iyNOZgUFwNeK5rexXCr3bndah6y0T69HYL9XWx2T+lYTlqW9cqXJluWWf6Fx6/lTJc/k425XaWzZQImsNMELLB2+vL65PaYgO7ooQlEAmfFUyGUt67RBItN4UFdsQerPxgMeXPopNWaNu8cHPaaBWtZrD9NJyxmJcmTXlLFexfYac4i06TgNZ8X531ETmvaOu4c9qZtdsHz5qv0w4H8D3WVflynxQO35fqlchrzaqmx2OE+GYxaZ/0LHheyhHbUah81ioOkqNLPHU5ZdEuvcW/yKz/45l3X/V0jpNTEkfU2pVgTvG4Mt5mACWw5AQusLb+Anv7eELjWfTrkDnjoyDE8GPIEOWWuOKN1jRE5iVH3Rvq5wPQu0SE/9jcZs5bFw7jTTsGW9g5BaQs5L8BKAistLqGcxmwzLyaDYjQYD/rDNq9qnzRut3onTX4okB3u6YefUWwjHg6mt79PZr/RvGZOWRMnmr6DSPfxZDBsnbOCxQaxadFrMZm0/523X/GMkpkzEYRgwcu50rTWFWLzs14XWjIXFrps3mt9TreagAlsC4EXLIlvy2l4niawhwR08978xNff49e3Lo5SiS+r6d8Tvgs4GE0uLvs8LpwOB7d7HaRSl5ZS5qXdVhRs/cf3AnlRO18tHPYHI16qPu42Gzwg7E2LLo/v0nYtvjaYXu6AsOFh4eI0Kp7KrMpNX2xFbwzGo8vhAL3Gi7iOe920u4v3MvCKU7bOsxO/wUatpO2WvgRLQ4RUihFz/rkdAblRnVjeZtsETGAXCXgFaxevqs9pRwnEPf6Ft/PNASymwrOJGojJMNYsidalWMEaT88uLqejYafRfefuaZfFK/aT87t/vOqKl2Q106tGR/zAM2pn3OBNpHzZ8KIY9qdDvoKYdqAf9XiBQno+OL7koSLfNuSHmtmSxY9Er3nTemXOqZpkGaIMAdXiu3x9BFyj0eG1ESfHyCxeXoq6KqMSrRYb6NlQn3Z7LYE3O8ElLclFa2X0iqfSuiKN3SZgAjtFwAJrpy6nT8YEXpLAeiURyUNA5PFomfSADWU0ao1GI374uddt/OTu4e1O+XyQR3wsR/HuhfLxYPoBG54Bpmd+U17cgARpTHkOOD5oTU4OCjQZL6jiAWJ6tMkm9PGYVx2UMSt/LjDmlhu8VJ51r7RERf7RsDsZHzc7d3qtbpMfxklPENN6WrlwlZ5bzhbV8gQzO86XeppGWdRGdUmH0rWmaVUX+03ABHaGgAXWzlxKn8i+ENDNPo4Y+ZmXt/6Zhxu8CgF631JERi8CwolRqeZNpS6aOead0jNBHq7Ji1AZtHjtAb8yWHS7vV999OH7t08/OG6+d1h0xpP2ZMT29vSILm1c5xuFqVcptqajwfSDu3f/4VcnX37z7b3jwyP2SHXYKT/p8nvQae0rvUcqJoaR3gtarhslSTdhFapcdkonzRZ2tn5xFqkdm+8MXvQHJHjntPP//PJXf7l//93jHu87PWZL16Sfnkjyc4dMt2gOGadRdNFOzG9+emRRkSeg4cxj8lbZzIpgpq2t7rooNMlQd2WLgNlIcwEXVRsmYAJbSsACa0svnKdtAssJ5Df+PGKVP495eRth0x/xpb32W/feOT7ssXZ1yJtCR7yYgf3j6T3u6V0NPIhD0fBedp7/TUdtXkTaLab94uSw8+G779w56HTS2x3SAhdPB9Nrs4hNs2c5q1xkek4QPjdlolIgg8zLgI3svOR03GHd7PS4/dEH77/F88bxoN3ml6fTAPweTzt9jZAnmDxSTMtY/E/Sp0w1T1T+XfQ815xVyBDBYWTtNk3ABHafgAXW7l9jn+E+EOAuvngj13qJ5AIQCAi7RibatMRW9FRYuBm3nzwZ3r//3dHRQfe9e83DJruvUDBtXtTAEhbqikWsKW8gZREpvehz0CjO+ZXAx+c/PBucPXl68uG7J3d7ehCYzog5878yt46YaU9VElLhSM2lZyatpG/GvMK0UZxNpo8nxZdPzu8PJs+ePTt99+7BQQ9Bl4ZIq1W8Z5Tt9HzPMT1FTKte87LIqhziubWreeySv4vdFz3RTZmjasMETGAHCFhg7cBF9CnsKYFVN2zu1j/2DZuhlw7Baw8Go+LBwyd/+exzNE97+sm7H/2k0UNIFby+gbWo9GSQJ3Zp73r5CoZJqz8a/3Ax/NOXX3736Hxwfvbh6XH3XV6bVb5fPbuwIXxi6MUJVDw8KrwsWudF64fL/v9+9c0XZxejy/5Pbx20TnvlD0mX2dOqFbNJL4/gNVgSi9mwVTOGEPyoVuPm9RcGzAOv/q66rFcRtkzABLaBwGzzxDZM1XM0ARNYSaByV65U6cad/gY3+5XjpWWkqydxKX+5RYvfonnan5z1x+2jk2mnfdbvp/enp4WtYsS3CHmpVVojKr9GyEvd0TQjNr23HvUvv37y5Hw6unV699bR8eAsvZWUvVppdH7Ubz4JesQp5KPnNgFRxRrwIzmt7uNR46snz54Nh0e3To6Oji4vhuWaWMrPtPkuYTn3cqEtdNx80FfzN51YWpNzMQET2B0C8W/X7pySz8QEdp4AGkIyQkedb9hh5BxwLvXnMde1KwkRT5f85N+keMpL3NlF1en2jo9avQ6qK2ksibD0Yqs0TqqyBapVDIaTh+f9SzZnHfSOb50ctNmDlbQVK11sQteU+HeKtSU6zh5HzrVdLkpKiTLTKLOJTZut9uHlqHjMvrB2p93tHR6ddPnV6/TrhCmSOfBmdwRWqbE01AuOccr5cGv6RPyaGDeZgAnsJAELrJ28rD6pvSCgmzdHFc4ZQ2ceng11wMvwQqqk/0oB1G8WZ43i4eXg6XDAzzZ3Dw8ODtK6U5pbiqKwS4tVphSvLmeDyeMLBFaDDemjyXAyGh7x1T7FlpnLXksP/PMV/4LltoKThyeRF/3p47OLCXvZGW80nAyHh920NULqaoS64oVYfPmxwXtRWVMTsHTMh5RXnmCbByzalQwELHqi15qmiLFhAiawXQS8B2u7rpdnawLPEQhFFd5FD00/3v0b0TITTqwGFcWwXTwZjc8n44OT4xO+qcda1KQ4aPJTgvySIJIlySoC2efOS6/YlXUxRNy0+aVnfibwoDk+OTo+6HV400OTt7+n7/PNxVkSjgim2YJWnGzF4DSfP/3m5QAh1ehPikF6RemU/EfdzmQ0e7NDeg7JLxCW46S3Yj1fBC1PKHsTmHkMvfLq84O4ZgImsLMELLB29tL6xHaeALftvCy9/fMqJkqrpXdtVvTHFaFcRlx5sXi7AotP6ct8sxWdkCHpBU68i12/1lx6eTnV+aB4NrjsDwej8fjdw+O3jk9aowkvtTpIC1ijUsMwB2ks+nf4lt+T/vhsOGKXOQMdHR4etJqHvXLEtMZUKjJ2yDOR9ErS9DL4pLwypYWmShD4qiHvnUrLVEy0PJT76HmqSI8nZ/3RpNHrtA67vGJ02mvzBnnGm50aGpDRkzYrp5YSzEsFS96kkIpHVXpR4KMqRxWcGBzn6Wd/iaTkfoUtDa70ddUETOCNJWCB9cZeGk/MBG5OQHf0/MgtXFWS5vfyTcag42IYTpQCaia95CC9OyoJHzQRA6Hn2IXFPy4sXB21W4domfQ7y7xrCk2G/EnKiTIsOhdsih+M2AffanVOOr3jbrfT4jle0e6QlIxp3NQn/UGC8Ceps6XzSTELBQH39HLKD/RM2+i21nHSb1OeQiYxxQ4tpSsXx8ibUtdUILxYasrtNCZgAttBwAJrO66TZ2kC1yWQq5AkhhYWTjZMKCFFcHXhpRQ6pFVylpnQTf2L4vzZBa/u7DZaJwdHvIqd3VSTIW9UR8ywjJZ+fJlf0im/QZh2sF80ikeDwcXlsDmednsNfum5w8/nJMWDtrpa1GEIlFx63pgsdJBe7H51UrRmp8MYqZq+ujgtnlyeX07Hl2PW15oHnUanwYNLtl2l7Vm8+TT9Gk86saT+gDQt39oQqRjrxtwiiQ0TMIH9JGCBtZ/X3We94wQWl09yobC5bijVzHJWKeFctKF9EE3ptwYn6WWe/BAhjyUPj27x0I6vFrIFqleqM9aTysUr/tnheWHRbxTPCl4EyubyRmfaOGy0u/wYM7+Tg8IisJRMLF/xME/qicmUS1rL57PUOxhNzgcXPAEkCa8SLXeDTVjESuthLLBpcYyneeXzxLGWyjTHpek2dpZTrR427u1AEzCBXSBggbULV9HnsJ8Ecs1UIRBKJAwCsJd2WeqsJKxWS6VDxySySgFEcn4jh19WPj/rD0dFu3dQHBwhoZ4iZtrFRVJMBY/qOJZaK/Xh1QwPR8XFKP3uc69onh4eHfEOhWYxZHNWkweP6Tt9bI5HovHwDlFUnktaMKtMppxB1amYS955dXkxGfEbiZN7RwenvU6vPWiwpFZ0CWixAR4sLHilF3Tx/HIuGCsDuGoCJmAC1ydggXV9Zu5hAq+DwKKwWDMLgpeWxS5JnVyzqAvd0D3jtHFplgLlc37R7w+Gjd5x6+DwYjr99qIYno/5YZpWu8MjOlaw0nO+JGmmvDyd6veD0dlwOBrwIqrRSat72EmvF52mNS3Spo1d2udV7pJifQl/Gq1svZp0pXrVkDaBNVimGj495+0Mx417h9NpZzohf7wnHnHFQ0JGQcYh/vj5ngoOkt8MEb0qJZ+YbRMwgZ0nYIG185fYJ2gCdRJANOTp0B+IHikJtMlgPGr1uge3b4+ajS8ePfy+Me5dnndSRHdQtHhwSN92eu1UeuHUiAeFB92LMS+m6h1O2qdHbEFPT+mabcQOaXmNQ3pYiPphYSytL7HkhLiaPTDMZ7HUTt9vPD08fP/0zt2HvGerfe/gsDPmpRBMjR9E5EFh0laIKt41ylvm++m8mj0Clq+FLR3CThMwARNYScACayUaN5jA9hKorJ1E9SXP6EpdIUdKbZXWm8qfteHRXqvZOD0+fvf27cHRwTdPn3z96FGbd42Ohr1253KEMGpNmultEfzsH2/31H51XoZ1987tt0+PbzdbH9w7POkVbIRnFSuptnIfOgJIgir9RvT864f4yJNClhc9h2SRbHLaa/zy7VtnPCe8vPzk3q1brWGX/PzodNkZacVCWvlwkDHRfM9px+W5N/OWbKqHzbo6ygRMYEcIWGDtyIX0aZjAUgKlEJnqNUuyOVIiGBVAtRQ084UoJM1cvORvLkj7oMrFKvqWW69SElaJGjzwQzBNpyft9ge3mv0P3v/9l190njw84muCnVaz3eIln+12p5m+ppc2UqVXvqPLWqiccXF5fnfQ++SDt372zr23D4ojVrBImCQVb3jg2V25w70UUvSZ0JUJJZlFplSYgIwW6iu9/mHWJKnEL+K0B8V7re7/+4t7T58+PWqcdxuTXrM95D0QDMMArek4zYoHk0WPXfp8kzC4lEaACkPtjCVovGMMtjGN6E2rAsbp/fApWNU45oYyRF8bJmACu0HAAms3rqPPYo8I6N68/oSJWR+wqlVqYFVrxU8wHjRPKXyKzrS40yp+frvdLd79+VvH5+zQarXYrJ62PKGVeMaXHvOlPumFWI1GiyeE09G948N3T+/cOyqOGkWn/DofSqn85mDqFCMm6cSCU/nS0XCGERplNqVSGPLu+O5kwDC8ur3bHtLU5fUR43E7vVheby9NOXkhFuForTLb1YiRfJWxCrLmgPZiyz4236nU9FbFr8pvvwmYwFYTsMDa6svnye8RgU10VQWH7vQV5wurq3ppAtEahhLSyiuvTqZF56C42zk6nx7xjis2tksRpc3j5TcBWZxKa0csepUKkN917rWL43bBT+N02GPOf2kXPOtLkjtsxUriLa0RpZ5Jm+XzjznIiCoxpZphWQ2thnvMbyLymLDdbJSvkEhLcSmj/uQZV9iKLHOmCKHAWJUBPzHpJfqswd1U7K6Yi90mYALbQcACazuuk2dpAhUCcY+v+CtV3ek3ucevj1FrDJoLCzXhabEyNZqyE6vLa9MbU97CwPIV6gIpVb479EodoZr41p4KS0bILyQV/6WwJMTYPcUOd5X0kqqk01hzWqGHNKvFVkag13iCzEvrbEgdPbC7msdsiE3/MIROdmmH4EArkUvLmu5Lc9ppAiawvQQssLb32nnm+0hAYkLH9efPDX59QN66/sYfrZWcVKOpNMZNXi3F+hSVRrnJKv2WoX5EMMmspKnSWz3T8tX8gVz5SC49oUNglc/qmPXsaV25PpS6ldIK4VWuelXmEGeRhizno4DyOOZri9PxqN3qTIaDVqs5GHBExaWJkJaUUdITy/npKEM05UbE5E5sjR5OqjwWRM9J0lGlRKsNEzCBfSBggbUPV9nnuHcEdDuvCIVV4iCnk8eQRBnklJ0HLxENSS8l1dXmARlW+rkaFo/STqekL1KKcod7qZV4bNgqeCUDLUk6lQEEJQEmCcS3/fLVpmZax5qnyecxt2PCs6HIiWqbTJBZ7IMqpRWrY6Wke/4ncZQgTkd5ojpPP/u7yGExgFEIU6GVVCqVSFdNwAR2mIAF1g5fXJ/ajhPgnr3hGW4YiSAgIceIlxFCIYbDr+DwpI5lhc4Y5VapUm0hiaiXUqlUR6wpsXyVHh4S3piOiObx3axzyoAYQ0nxlcH0dUMEGo8Oywmkn4vWEOU4Lz6kGdI96bIRv4XIke8yaj0sX7tamigILG3FqdNfhBDxZIgNWGvCIt6GCZjAjhGwwNqxC+rTMYFXRGCZxuKtUloaSqJI3wHkn5i0ZkSNNukSnhqW70/X+xpKkZiay9Wu9KW+CW+wQmYlR5kkKTDUFR4UE56VpaJjmOF4MuSrfKPREK0zGo17vR6b3Akrl81W5llsCL2lISoDLcYrQAILm8eFL+yymMQeEzCBrSZggbXVl8+T3zsC3KdV4szjFQD4cSZVwZsI2s/9f21ieEDG/V69iAzFIA8BuUepYohFIwLyXtg8jiuXqdhTNVtdSxpJoogVqbSiNPOjsSjlMhZfNCyjaU/1NEnC0iatdEblWljB5i46p4WteeLUnRIziWruaTfTq6545RZD8xXC8XDAAOUMZtNQrzjqdCKDDJzhUWTFoyoxKsRglPuvnnsJVoxiwwRMYB8IPPev8D6csM/RBPaBADf4ymnikXqo+KlGcEU3LEau9yTpUw7LAhQlPfsrj7NeOPlvLmx4LEj8ZPasMD0RLB8jls8T00O9SMW6V/rR51RYxCr1Vj7P3J4NtOxPnOOyxnW+VdDW9Snb6KhdXzreOM8LB3KACZjAm0nAAuvNvC6elQlsSmDxzr3oUa41Giu6YEiLhGfTeShutnm8XCqb661ZhtSEqNKK1OzIVixpp2bapDVXYKHDrnQVFv+lZbbFp4Qx59lA2Z+5nJvlLlvKgbIYmVoYy+Px5xDCXqXVYhoyFM+qIaWyQLgwuB0mYAI7SMACawcvqk9pfwjEXZ9TzvUTNmUVh7zXqpib+ZNuCgmVvjvIUlQ6sviUpFXSL2mtqiwptpxi2puVzLRARUiaN2tgaU97+u9KD6UzYp1rLgFTcGanHAtlDYSF2HWOzYlpSon+vKCuMHXcPM+62bjNBExgGwhYYG3DVfIcTeBFBLiFLw1ZvKMvepZ2vKEzKSr2c6GQJKRKFVVKK74RSE5mGatE5ZzTu0Xx40w/NshzzHlE2tOeRGM6sbR9i5U1uif9xd9Zye257/m/pWhLrvnerbm8ez4sq70wpySUjlm/50y1kgpdpULzj0v+ufFdMQETeP0ELLBe/zXwDEzgxyAQt/MwGCW3ax8UbRTLTUlFzaUSJpIra0wiKX3hMD0fTD1Yr0oCK1WSiOI3m9OGsZSAhjJTWgwr20p1lWug3F51RpvEqO/mkUvHAq8y8FhQRiT8UckvnYydJmACr5eABdbr5e/RTaB+AtzLdTtfNNYMpi4EYEgWhLGmV6WpmX6mmVIqJY6pkra8a0s7FVaxkqRieavc5J4WlnhfFDpKy1JJP43RJmN0VVJYpd4qt2elpatScdGbwgw1SVVXHyX5lD1FaaD5VrDV/TZoWcWn4t9snhuM5xATMIGtIhD/B+dWzdqTNQET2JgA9/uNY2eBN+hCT7TLc+oKl57QaXNVEkss7PAVQaLSvzyzeEmljPYtiwAAQABJREFUtE9rJoPSVwjLonmXAi09XqSUsfPmsipn2fhGHIRO8wxpVZn2GzFRT8IETOBHJuAVrB8ZsNObQK0EdM/WXZzNPVR5CwAGnvi2mmIqN3U5FVnRT5VqzFddorrUIIbuikT4zKTc7M+sR2x74oULkTOcBGEjqtL/SJDWs5KRXnnFX/7TWlb6DcNZoUGFOgZH5iAaUVVoemV8alZt3XG2hLYu5KpNp8xYQqdBozmqtHJ1dIHCGWFhKElUbZiACewGAQus3biOPgsTeG0EcumQy6bFCeWRasUz0yjlFiucOJIgQmTN/0siq1RR6l5JEuoEI5rCWJxD7R7GUokzwohZ5U21D+2EJmACbzIBC6w3+ep4biawTQQQE6umm6ufSsyaXovqRMGL/kpOqopcM+5ilxd6yBnKScEaJWxVIwxDhYBKxxeO5QATMIFtJ+A9WNt+BT1/E3gjCKAk1swjWmeKY0WwwiJ4MeGq7vITj46RlNEx9yxmu4GnMrcYJU8VE1jamkfaNgET2GECXsHa4YvrUzOB+gmEwsjVQzjz8ZY6I4DWPAN+xccRI2z1UjXPsNTGGRKHjVmKwVPpHn1vYCyminNRkzaE4YzCKDRRvcFw7mICJrCNBCywtvGqec4m8HoI5MIi5IKcOoaAyCNjrmtiIkluRBIMFfJjkFDHSmacMYHFmAi+mbF0xBguWjXDqGosnJSbjeteJmACW0rAAmtLL5ynbQKvmkBFNDD8oqfiXBUQaiMPyG3yRIzOM1rxyw5PHpA7c1sJKx51vO4xT4IdJZ9GDKfW6w7heBMwgR0gYIG1AxfRp2ACr5kAMuJaMyC+op/UXXmiNWLkj+d9+VjRBafsSEWVV1fkwSHOcueNbfLHDElClSJDA1GNl0fgodx4LHc0ARPYOgIWWFt3yTxhE0gEdC/nnj0ejyUj8MQtHBunqrmBn0L3iFQqYuRPqedl0TNvSX+jlVQUVfNjHixtRJgmozCqEYMfmzBOh1ZV1RrBmqR6KZIjTkpU6UKAYpSQVgySUPBT5ahq7sdeXyInYUoVHmXjSBNOvfiKKakaR4ywlYFqGGWjDyZgArtDwAJrd66lz8QEKgTyG79u/5WASvVmN/tKr6UD9Xo9BIeKBg11omr0Kl/M2UJm4ZeTowoe/NERI5dW7Xa72+0yxHA4HI1GEjrRkSpFOYkJG49sGcRjrC+LMSl1Jtoq3dVUcbpqAiaw8wQssHb+EvsE95SAdIAURq4JuN8vEokADAWEpxKc+yvBeVOl1+XlJWkpWkDCUEB0wVCRnwCqOuYeVFSE0SqpFEekFcH4UWkY8hMvJ0Nj46RgK20c6RX25oZ6aYjopRlWnNFqwwRMYE8IWGDtyYX2ae4XAW78uvfnp43nZe76lb6qcswHkjP3aAIonnASE0VLTTRFkQCiSkcdlUFd9AARD9Xwo5YopKLgZCyqBJBKkcoTg6pj5UhrPlylNaoxrjx5NUbByP2LkZENg8jF4DzAtgmYwJYSsMDa0gvnaZvACwhU5EKlqs5LnUvz5iIgtwmmulRS5Hk0EJESPaUiShro8PAQD7JJfrpgsxAVa1HKrI4cWcFSX0ko4jGIoZcM8qjgRGlhaxqRgarWt+TnSFPEhHPRiLC8KZyaJ00x4TzMtgmYwB4SsMDaw4vuU94XAtzso+icqb7MyYeeUBJVySkjqvkQciKYtLCkCeBEErHghACSgU2TngBiExxTlaHjYDCgiTCqkYFsnU4nRpd+0hDMRH4ZDKdphPDCTypiFKZR8vnLVuuiP/eoL5Fh5K3Y0VTxu2oCJrCTBCywdvKy+qRM4EpYwEL6IFSCFEBFTERr6IDcWAQa8WpSNc+MR4UAyRoMVBFiC33DEbWEMKJJBdnEXnhsehGWp6IjTo501AqWYgij4KTIjl7ykA1DE6BJrcoWNlUKVQ2h6o2PSlJLqhvPwR1NwATeBAIWWG/CVfAcTKBmAou3eTyUiqpYNSqRi01LnYthix46oqV0ZLc7AXzdj4Kcko0MkjziqGUtrUhpRM2ZI0VPBomhI1XCKNh0pKohLi4utAaGYqMJJ4Uh1D08ysBRBjEEqLr5Me9SjpO4YWyYQZGbx2+Y1mEmYAJvAgELrDfhKngOJrARAW7nlMr9GM1BZ5wSH1qwISzPmFdTirI18lCVHR71pUoTCWWEU2GSL9oshXyhaGjC8i5IH9QVoodUiKrbt28TGTF4FBBDcBZKpUmSCiPOUR3xUDQKTdj4OWIflEU5EXMxE/IzVYQXMQxKFYNCJEV9qeKnkE1H/CrE4MyLAuSp2FSVOfwYYUcXZaaKkTvDE361+mgCJrBdBCywtut6ebYmUAMBbvb5zbty788HWNokZYBewUBmEYP+QMpgo6U4opCQMtgcJWvQVYQhO6SuZDOQxA1OPFFIq+TkJAC/pkSVhLQqDwNJx9CKrTlgs6aFymJ57OjoiHh69fv98/NzgrVmRlUaDg+FeHIquaan4eIYEwhPGNEUBqmwOeaFeFWjow0TMIGdJ2CBtfOX2Ce4swTipn6tM9Ttf8O+yI5QBtEFj0bEE048+BE6GBI00jHHx8d37tyRYKKJhHRRWtSMBBMd8aCQKMqD7sGgYBBPgAZi8QknaonkCCMps6SSmk3kFLqKVhauNLRUF13w83XFJ0+ePHv2jF7YzIeEDMe4JKHQMUbBfplCnkr3RU8lwFUTMIHdI2CBtXvX1Ge0swQkMl7m9CRWIkNerSRXVQHoAwkjDIq6I19olUKSrUdyiBvWrlA86CqtGEld0REnfZUKI4ZA6GBTCFAYaWUTFoZEGGoJDyOinPDw8JHuxGOQAT9Ki0IrYRw1H4x33nmHGZ6dnel5pdLSRaNTpVCNiWHIjlOWZ/GoXvgjMjwKrlQXM9hjAiawewQssHbvmvqMdp9ALTdsJeFYkQV5delA0SVa0SioKOQLR1aDpG+0LIT0QQaxbsRVUTzBFGwCOEpvMSjaSF2IlNzBGUNgUNWqFQM9fvxYXTgi46IvE0BCPX36lEj8LFZxxGZEBqLKENJYykx3jcWgBCz96MQclrbKSYxKpRpOjDXd3WQCJrB7BCywdu+a+ox2mUDcp+POfYOzpS/CIjpGTnkqVZwaK3phIEpQThjoFXQJa0KsWlFFzbBWRMHGg6zB5ikhy0gSUvhVpGw4qkpCUlFN4qvshUetMSsiacLJKGg4JqCCqGKUaDo5OSGSEXkmiA47PT29desWvaT/EFssrbEMRi9i6EUw+oxRmGEovBgUg76qLh7zGeZdKpEMgYfjmlSVLq6agAlsOwELrG2/gp7/3hHQ3frGp63b/IZJQhAoXnpCKz0STBxRKhT0ECqHJSJ0FcIFGw1EL6paT1IqqSgmT1VqJjKTQSdFE8opBBZVCk2MhR5CJ0nM4UEYMRCRKDzlZGgK8fjZWc/EHj169P3336Ox7t27h5MMBFDVnOmIQWZNjMloLM1ER80w9+S24jeJWcyc57FtAiawYwQssHbsgvp0TOAaBHI9UZEIqqIJKOiPPClNyBQUCUcetyF3JKdYWMLGj+6hF0oInURfBBCRZMCpPMpAK/Hy00RHIinYKjQRSaEaBgEsiSGeyIw2opCEqlazFKaJsRee9SpWsMiDyPvss89Y3Lp79y7d2e3ObKkyVWwySGNpRIbD2KRoYhHJ6NiasE5BR5yb54xsNkzABLaagAXWVl8+T36PCKAAdP/WTT3u4hUD/YG8UIzu7uqY3+AjT+4USjUFVlIhnrQrnMdqrP0QgChBzWCjYMjAEze0EaMQLHmEQaGJSPwEk4QYPNh6VMcQBONUIRIj5sMoFGJQSBx1CsSHn0gKC2Yai74Y6CSK8jMQvZgkVdar2OGO/cMPPzBnNBbSii46nbfeeguNxfNExqIXRzJrRE0JW0DwY2hi2DKiSdWYIX5iBEQdFRnxYSy25pG2TcAEtpSABdaWXjhPe+8I5PKCk6fKjT/u/XF3z7nEzR5j/V1c3fO+shFGbGNC/bDqg8xCf8hg3Qg/+gaxor7EIGWYFQIFXaKFJUQPGSSDUDYU0iLUUDzEYxMZg2q2OjJbpVWV04xWxROgQgYNjcHcUE5SWpJZyCaqjEt3Hlm+9957LGV9/fXXTIBFL4740WSscjFJ/OQkPwnJRpPwijx+PDFbGRUP3fHoGAF4KJWOrpqACew8AQusnb/EPsGdIiAFoFOSHfdvjIpn/Znrrh8JQwSEQXd0EpIFXaVFLMQTBus9HFm4QrIgQVAwSkKVeJaFtA5ElQxUeYyIRiGGVOgtkkiy0JES50IAhSZ58tPBI61D92ilL87oQry6oI14/McoVJFcKC22YbF2hSJkzogqJkZVehGBSBJsMrPKhSBj8kguqppJmXWlPKJV84kj85FTHaP7YmR0sWECJrCTBCywdvKy+qR2kEDcqjk3NAFVaY6kSuYLJzptebBzYxUR3fjj9h9GHo9kYSwEDQb6gwUhlnzQLlqmYu0HNYOOIQAPHakSmR7XlV8kZBqsWiFZcNJKKpLgZKFIp8CglLCJiUhsNXHERq6heyh0p0rBz7iSU9jKTAAeYsiD2FJBYKG0WLhi8ixlPXjwgCUrzgVdxdyYOUdakYM4GYgqMyQnhYFixHLY5Q8K1RRH9dUxnDZMwAT2hIAF1p5caJ/mLhDQnX7pmXD7p7UiAvJImihrMhC82Ip2QZ1oUYqFHxZ4KCgSRBUGEoQ1Ia1a0VcahTwMhI26QjPRCymm5KgfwkqBNHsFA7aa8KvkMguPqsSo6BRwppOZ74hSR1V1JICZ00VSjNlyFkwDgcXyG+Xtt9/mLJB9yCym+v777xPDaWrVjYQ6ZbJphqTCyVH5NRkd8ahJVdm5Jw+2bQImsD8ELLD251r7TLeewNK7e8VJteKJ067c9StVwuhYcSJBWPhhXYe1nPv376M2kCaEoT+0LISUQaCwfMVaEcGsG/G4jVZiJGtiLYpIkpMhPFpt0ogcFaAq8kiTwamJ6SzUlxhao6ipUiWGwnwYhRnSqgeUnA4FXUUVdch5ffXVV3zB8MMPP0RdIQq1jsVA0lgYyqxRyClj8yPdNw92pAmYwM4QsMDamUvpE9lxArpPxw1ed32JkvzMk6woRYCM/Jjf6RUTHWmqeNSENEEnoVFY+yGARSAitaiDnOJpGkVrVEgTwhAltNIFXYK4CT2Ek0IGlBORJFceqjg5C4xcYOEknrAQWArj4Z06cpTBEETqWZ7mLD9ODJQfR4kkjsyZKtIQFYjM4sjjQm290ruytNhGNi1l0Z0JaCaas4bIj0wsr5I/PNh5ycNsm4AJ7DwBC6ydv8Q+wR0hwG077tyc0qoqd/RoVUwc8UfrIhSaiNRRrbIRGRSUE9vD0R/IIwkaaSmECCKMjogSmiTI0DEhSiSeJHFIK92DnCIyRJX8xJCEI0WyRhPQrJQHWxkQc8yKESmE4aTk3XUKeNSFKiPSi+RsbKcL+o91LAqvaaAvAgux+Mknn5CQLoShwzRPhqaqhJUjkXh0JGe0ykNVzrwpYmyYgAnsNgELrN2+vj673SGgmzR3bhVODA/3fo7yKEAe7FJyzA5UVYgMI/IEI+QIqkXCAqe+W0cY60YsSqGuEFV05yEaTYgPCnJEcootWRg8dNOQhDET+pKHtFSxiUficFQTHoSLCr00jYhkLAZF9OAhhkGVgWw4GYsHl4yuh5IYFCZPlUI2uhA5HCVtNJ6UK2GNotPrTsd8I/KMxbXbt0/azRbPPR98/wPrWG/fe+fp2bP//d8/ffTxx6nLeMy+fMK++PxzTrxVzm4wLPfmd3rMnwAGmozSahwTywsenQVHFbXqBJceCcj9VOmoY+63bQImsEUELLC26GJ5qiZwPQK6r8dxsTN3cTkxEA1oFEQDGghbiz0YCB0UBjuWWAFCsqBs0DHkJIB4FBXyi8dtPGiTrCEhvThGcoKJxClppSZSKZ4wRRJGDIUAJA46j6GZDwZO3l/FHIhhGgRQMDQTglldo0phVvQiXlPtdA8YmoCkz4r0MzvFJL2aizw6r5/97GfffPMND0Bv3TrlXPB/+umnf/1Xv0S98SJVqr/45S//9Mc/ctYkQekxVZwceQSKwZIcp6v5LD0SU4YtbbTTBExglwnM/q/GXT5Fn5sJ7CsB3d3zIyTifi9ZwzEvgQonNuKJeCQOQoeqnCxfoVrwI2uwKcgRVAsxCogkxCCqCJb0oUoASoVI4ilE4kQPcVR+ZaAqAcQilsQZIo+B8JMQ8UQXchKsjlSxSYgSkhjCg5ziC4PEk5ng8XDEkhV98VCYRrPd6h0esHxFFQFHEzZJ/vjHPzLWaDDutntMDu2IbiODxmIVjuTkpJdmi10pcRZ0UakEuGoCJrDzBLyCtfOX2Ce4vwTiNg8CbvMVELlH61XoHmRNUh7lAzuexKEz2KJER1QOwgWRgWRBiFBF+hBGlW1YCCxlkNBhXAr5kSBJ2ZQ/oaP1KiWnNSYT0yCg7JfW0lA59ML4n//5H7ZJMdbf/M3fcGR6xDABpWVKdMeW4iEDHSkoQmaYVrMu0w4tDdFpp1adC0dOVkmQbnR/8uTZowcPb53eRk59+cVnv//973/9t39HhsGwz4uz0GoUwspsBRmLNM1Js5VOJIao2IxLDEcCKLS6mIAJ7A8Br2Dtz7X2me4jgbi16wbPzX5pQQdAB8GBRkFVUEVaoVFQKugnVBGtHPETg1NK5eHDhzxWY884kZJHgViRUjCMSF9UEUUCizACkFCq5nPDT7yE1H/+53/+9re/RWAhs/7t3/6NB5FaJJP2YkQisTmSmST0ZSYMSn4iEWQ8VeR0zs/OWHYirGxl7xQLciiwERnoOJ4Wt+/c5fUTtLKTDB30wQc/hQfvbqDLQe/o7On53Ttv9bqHxWTaQFk1EEzTZmPaLtWVTjk4B4E4qQiIJhsmYAL7QMACax+uss9xTwnorh/3fgwUAyw4ypDNETmCh0Ua5BSKBI3Cw0GcEigIEUQVftQM0godgy7hmRoLSCz/KIn0hIYgDLFCIRIJRRdSSQPFiESSlioGRX7moCqZ2Rf1pz/96ac//ek//dM//eY3v/n222///Oc/E0YepSUn82RWeOjIQBQMDS0PeZBZBBCJaCNYA2FodIVxJBtrV/TlvDjZd9999/79b9BbnAtTapfPNDGoMrqKpq0jaSm5LY+OMVbutG0CJrDbBPyIcLevr89uTwmgGCg6ee76KlTDwI4A+aVUOBLD8hViBWmC7JAfiYBAQVigltBhxBCgXeFU0TESIuTEQM1wxEbZSFqFwohB5SFMk4wjmWki53//938z4j/8wz+wQsZMEFgsKfETN++//z4B5CGSo/IwSeaDzVF+pso0CDzo9Vg3Qy/ybnkCKPgZjjnrTRHIqaTJhuOTW6eXg/TGr/7FYDppvPf+B59/+dW00UzC65J1u0NmC5npaNJoQa9gosWy536agKjqiIcS52jDBExgHwh4BWsfrrLPce8ISMfoqFs7NkX24s0ezUFBxyAvkCDIEZayYmWIePQKR+QLSbCRPuzNkohBoOCkFyoHDyqEgodgMlBookrJLwORFJpUSK4YHT///HNm8sknn3zwwQeMhUr7xS9+wQz5ih+j0AVbBvlRRwSQQUPTilNzTmc1HDITluKYJ6nYWMYQxCepNH/VOwGcOx7tJ+PRJ/KLLfyNovXD9w/RW0ixg4PeyUl6oz2ZKfm5LLUVs0nk0u52moAJbDsBC6xtv4KevwnMCMS9HN2AyFBVegU7qkTLyVE9pYeQDigMjtpUrn3raBeWrMiGLiEYXYJeIRU7lpSEJgw8ykY8uodI8iBopHsQUjGoRuSYJtRoKFhKiy5kQ+tQ5eEgCRFVePCT9qOPPuLXbBBeaCw6kplp08RRXTQBmjDIwJFCABPmhQssNvE0E9nEiDwElBTTPFFRrFcBg//4FuLtO3d4M8STZ894KepPPvzw8dOnX3/7be/g4NlZv2i07tx7i75p0e6wO56kzfUUZWM4RicnVTnLKaTJMChHtQYBGYqpOF01ARPYAQIWWDtwEX0KJvACAtzFIyLu+vmtnXs/BQ9SBn2gnVgIF3QMykD7saQSaNU2rMiJQYwK3anSC3UlwcS4itQQHGMmGERKokm30YVFpi+++IIvJ6Ku7t27R0LC1EtfJEQescKEh2BaiY+ECmM4FfwoIWZCQTsSicbisSYdEZGSZQxEGHPgvHgNKQnx80zw/Kx/cX6ZHhS++yGLWN//8IinnQgn1NidO/fIzzToiMGRcSkxKB4XEzABE/AeLH8GTGDXCHCzXzwlSQGOuRSQrSMKiV4IER6WaU8VsgODtSs0B/oDP5u+o5VgDURO+iK/iMGmF7IJEUMAVYrCYkp5Vc/viCGeJGRgxI8//pi97eRB7qCQ4iWiPJT813/9V4IRTASrF2Fkphpp8WssPKyJTUbjaSO1EkkY58Li3Ndff8tTP1b5iCUTM50U0267g6IaYTVat+/eQ1Y2O5PuwdG02frqm295Rda0MR5NxofHR+1nncHlRRqavGXRoBxlVE6WkPDYMAET2BMCXsHakwvt09wLArrZc6r5bb686c80R24HEZwoD7QOBYmDkqApUkmUcKTgZ/lKciFEA37UlQQW8osARIzmQGbCECLKFl1iaIKxyUAXCklQVExDYyGk9JIq0iLaWDSSQSSZiSQeQ0cMpcVQoUovsiHUEHBMA/mIjROtpoGYQDrt8iX1nHuzo9eQTnkvAy9o6F/yctHi9PbdZ0/PHz19VkyRaNPJuGBHV7eT9vUzEKPo7ObDzqYRJxuGpuejCZjAnhCwwNqTC+3T3GsCIThCEKA2KEDBg5pRQCgYqrQiSniChspBiyBE2HWOsJCqCNFAJB4kTkgi5AtplTPCgn7FQxhqiYGQOCRh+QoJRTCjkxaDVh7tYZOWmTANFBI6iQAipcnoqPw6Cx3lkbRiaYrXuDME8UyAhJwICUlLwJhlK35rcNocDVlC48uBrcOjk4vL/vGtW5f8+GCzzcYsfojx62++6w8HPDRlEYv3v/MfS3aLI2pcH03ABEzAjwj9GTCBLSaQi4nKadAkNYNRaaJKk/zKoCPChW1PCBGJJOQINrJGOgYZhB9JhC7JxRlVebRKpFTkp2hcPLmdTwZthGaS7iGMPJobR7QdTyc1ENMgA4qKAIK1rIU2opVBUUs8zqN7nllVdk2VydM3HNnFjk0MNn15UPj4EZLyKUIKP042WLFBXcKL3fY8KOTVDM8uzpnhndN7X93//PHjWycnB8UENZbWxkjFKBoIe/Ec8ahETD5D2yZgArtNwAJrt6+vz25PCVTu6KrOb/dJ92jBCX8U7b6SvCCAYDQH8kWaBq2jt16hRZA7BNBRYkuqCD9CBKf60h0jivxRDYMu2DEQ72pHKlHIidTTmyCksYjBz+Z0BsVD4f1YiCSWoxBJaCydSGTGwMP86YiYJJ7Fq8mYd7GnVTHW5NKXCo8OL4fpze+0soLV4NXsDVb1mheXaSMazypv377D+7fa7W7voHdwdPzw0ZPT01vHhz2mx8xJrlHirFWNI4aLCZjA3hKwwNrbS+8T3zsC6ADpHmkRyQLZqBZWjHjpFAbP6dAcKC20C1qEALQXRlIh5Y8SysBPMEV5CJDgEFY5saXqoppDx4n6YSCS3L9/nwkwNC+A+MlPfkIqRqdKPDFEoodQUTThQR6htCi8tQH/J598ohiNUhmRqmaqc9cEpLHIj/PBg4d0Pzm+TRNPC8dF2s7P6PxyNG/XSjuxLtK2rXv33v72668ePHx80H2LN4IdHCSBxbJXDEr3ytAaS/6wbZiACewJAe/B2pML7dPcHQK6i0su5DZnGDd7GXgUFifPriHEAUKLDevoA6QS4oYYlo5YkkFGJM+It58fnD+7YC0n7YZq8Q5PVqeS1uEtV+1mp1m0Bv3LdrPFb/NdnJ3jR5Hk6krjam4aWjYLP0wMW4MyFtUvv/zyL3/5C4qH9zL8/Oc/J5UEnNQV3cnMxDCI4UgXqrzP/W//9m95cQPO3/3ud+izSIuHgXgIWBrsUk+/dUNh7aqY77bXEtTTx09Obx1x4ig2ERMQ9BYGi1sseB3fOhmOebzYvOyPj49OHzx4XEx51yjvYu3zvgYW1cis86KL1vYYl5JGLEsQ0BCqVo5Lm8hQCXPVBExgiwh4BWuLLpanagIbEVh6t1ZPRECoAQyKtA6SQoImSQJ2GCEoSvWT1mfmv0KDJku6Yf7rMIgJdAlpEUAU4tdMjjTIBcYikjDG5chLH3744QfWpT7++GM9KyQnYYpZmi1Nr1yPYjgKjwjp/rOf/ey//uu/WND6q7/6K5yst/EeL7aOYaACJVNSt1KcEUBmhuChJ6tfjx+fsWZGJARYv0JhIkqJSbOFzTQpLcj0+5e8JQvFxDtL2ZV15/YRX3RkzoySM9Tcls7cThMwgX0jsO7fxH1j4fM1ga0jUMqGJbOWqqBBARGWdEP5tgUZ8qMtcCJKZr2aDV7Hzpfp2JZEBlo7vMy9fME6woMuFDaXs5rFKhFdECsIrxhryWzKhTTyoEgYiF4YaCmWnViIYisVIoZW0rI0RbZyhOUHhiNYw5GKIDwIoH/8x3/kdVn/8R//wTtIec3E999/r5PSGSmX4mWzCY3/RuP0WlRi2O91dp5e765poMq0BEUXWiHDnJkbcooqQ+gciWFQZdDpa2LMcCkEO03ABPaKgFew9upy+2T3kQAKgNMOHYCNSqBKQQpwZL8RsgaZgh8PpXxk1uCBWvnmp7RNil6oDzZiSaYQgxyhrySR8nOkkERGfiSYIfDQkV78bDN5WHBCkeDBr3UgCRSa5MwzyFYTQ1DIQ8GPjf83v/kNq1n8RDQLYzxqxImMm6aXiD5X1IUj80E2sYh1cXHOQhgvoUDzIRylIZGSzAstyjjoKlLQylyhRP7L4bupYTpFe7HFPgZg/oSpqoGiyYYJmMC+EfD/pbVvV9znu7MEQjroDFEYlVNVANoFbTAep5d5YnPkYRkaAnFQPgTsNFvNIXu32XhVrloVLR7/ISfSBnAeHfKec14chR6iNFrtTu9ASWIsRtFA4cEI5YTNfi8k3XvvvYc4Q44wgQhgASmlzWaOXSkkp4t6MbSK8vOs8J//+Z9Rb6yNEUYqwmIy5IkpKQlnrUU4ngDyjUVNRk0cyUwXdm7xlix0FY8RcabVrEu+z9hHikGJcVNMWUguI6oxnIx8ApUmV03ABHaPgAXW7l1Tn9HeEeCOXjnnuJfHLV8BVNENHCVQOKIwKAiIWZIkF2bJpo0mQgsNgadcy2GhiB1Y6WkgWgT5wiIQIkljcSRzTGOWLerlo0YC+J1B9Nxf//Vf65t6SBwiWTAjIRkYS7Im6/ecqbGUnCNzoHAW+Dmq+7/8y7/wW9HIrLwnASo46UjRQPTCZvTj4/TaUrJRxYlB/PyEJvx6UBpoOmr3uq1OW6tWiuEUlJmE9MWOcalquPDYMAET2B8CV/8g7s85+0xNYE8I6AafnyyahP8QEDgRBEgEFo2QCLxRE3nDW8sRGCwqFc0W/08bkjrd3nBc8At9LOQk9YH+GBd8sY6lLBRJpzPbRZ4Li3xE2Ugo1JjWrlhnwskiE6pOuorhJdSYD0WiRx3LAeeKb/4kkZmrMAEKNsHqS06eDP793/8930zEL+lDq/JwxMbJEIyIsqQ7HTnyJnk0Fqcc4xKmUTDISXw69wli6+jZs3OEmZLH1x4JphWnMkSevGrbBExgfwhYYO3PtfaZ7iYBiYbNz00qATWA4lFfHnuhHtAd7FYfTSesJqESaOKHYljE6rRRJ0mgMERaxJkmKZMeF84f/GFIVSgmZpJXU/6i4I0M7GqX0uKNVqwDaSBkDQoMuUOViSkD3VWozs0k6SgaLvyKZwiapJnYg/Xxxx//+7//O9mWBqsvTQyNeKKK1EMqcWrY+BlRRqPJWhezaqACFY/BXPleAPKSFasQXqgrSVL11ZEkLiZgAvtJwAJrP6+7z3r7CEhkMG8ZOuZSQHd0JAWG/ByJT3qoLGgIlp36g0s0DP+xEQpNwOs9aUQ3lasvCQsZhvzCTLuLiDg4OrpkTYd/J5oNfqaPNtaukFcoCZ4VHh3NXgSahmNibFcqixZyJFZSxjLnH/7wB/Y5salcX/RjXEmWckN92iwvgUICDPVKEyuf1ilh3kQArRpOto7SWNg8hWTP+xdffMV72BkCD/Mp9RZLdJeElYtniCekFXopoSglGtKKd2ix6z+9+p0uRLJYBUGeDJ6dn6MO8ZCNRSyUGAzpRVq6MwpNzIqqzl3z18QIwHAxARPYHwIWWPtzrX2me0oAFcKZS4tw75cI4H5PYb1HskMBLEulfUalnhikh4fpeVlashqlPVjz/1BX6SmedIY6ckxGkRZ+oomxcCI7GILFKqqoKzZgsWKELqE7o2sIuiTFVu7BogtJqEqjECZNoxjl55iGmz+MU6Q6Ei+txih/93d/9+mnn+p9V7RScKKrmAnZ5OFIfh4s0gsbzUc2jZLSNjgd3jKKMks/PsiIiEh6MlPmzjY0PUTUDHW+JFHyAI4/phqD2jABE9h5AhZYO3+JfYL7SEASJM5cN3uOyAVEAgqAABZpEAOIg/xlTqgKVA9PBlmvSjvaeVUBaz9sUUdg8T3CshAzmox58Sb5k9ThxQYYKSqplsrQEh+8UBTtgkZBbzENjoSRB7lDF7JKaWHjpIpOKmebxlNCZApOSugYglVwEowdQyPdqPI4kkUsnktGmIZjJgimUv6VP/w87PNCrLSONbzkaSkTIA/jMjuNpeRMnseqrNuhrtjq3k/CMS1WkbxsWvJvKR1VNLeYnubjowmYwG4TWPKPwm6fsM/OBPaNwPwun/6iG3T63OzRJYgJjuw9SkKG3UaTYsj7y3mVebuFrmHtSItEqKgkDli9SQ8K0zIVBVVBKvQPO5Qw8HBkCBJqiHCyhkRBu+ghmjQWWofIMtPV+xSQWfhJkmdgkhQiNf8003lAfjrqomkoM63sdv/uu+/4QRt1R3hpZz3BmiprWkhAWpXq8DB9qzFGR4MSRsHJaenUOPa6B7yclTB1lF8dCVZyGYqJhDZMwAT2h4AF1v5ca5/pHhGIu3sYOnmq8qAnUDP6iRgM+UNaSKCgPPjCYHoyOFMSs6UvxA4rN+wpLxeunqOqpSMtR2l1h1QsX5Eqlq+kljgqgJkgTTQrNRGsp4c46U6YZkurgiVlGJgAPBSaNA9snIzFkTBeE4+E0m56YiQKSY7NkVUrohiOIcq9+yxZpTT6riUZKDTNjbRSRStTIicZKDQxIhkYK82j1K9xOmUqajPpSXDK7mICJrAfBCyw9uM6+yz3noBu8+luXxakAPoAJST5wk5wbv8sUfHqdtqx2YPVaLd4QUOpsdjlnZQWv3pMF0qn05UWEdf044VlQXnwt6IkWEDiUR298LNAxYh6VMcECJYoSaOX4yJfcOp5osQNR5yImDgqWAPRikFT3h2btEr14Ycf8ss5UlFEspbGZPTFScJYTmMyBGMnxTROW7LUnWCM8ogWTNpIZ8eDQjLTo1xsS+PSRVNSHp2Rus8zzPjgdDEBE9gTAv6pnD250D7NvSPALZ9z5gavInt2ZNcUjTzdazZ5Pih9gMSI35VBVLHLnK1KyAjySHmhGxBJpQqZLQUhuaQ8aMIoHyIW/OYMv8HMQARzZD87mobvD7JihECRzMLP0NgSRlTJQCGA0YhH98QiFpE4OUowSR7hYSby0KQMMjhfUnGkyjcB2Yn12Wf/V46FvEt7s1jQ4pQ5cT21JJg8xE4bPDOdoO2GF0O6MwRNLNWlVGz/R3t1O5cX6QkmhTwIrOmU71Gmp6XKQBKaNLpiCKPktjw+moAJ7DwBC6ydv8Q+QRNIBFAJFHQEL1kQEekApAZqB89knJap0BVoqvLrhLzEvcn3BdnUTTP+UTFlDWpYbn4ve5XecmmHzOzPQtf8+f/+zKbyX//61/oJZwQHMihpl/KLgfRCiKBL2AiF5qAplAcCiPkgbohEAP32t79FYxGAdqEXTmyOfA/xV7/61S9/+UukWCQnCU35SUl40aXVbNGFalq4un0LgyF+97vfEfyLX/yCn+shOe+koJom+f+z915fkiTHmW9qWaJ190yPxkiIwQBcggC4BLk8uzhn+Xwf7uF/ydc9BO7hcsHLC0EMwMFozHRPa1FVXSK1uj8Lq7L2isjMyqqu7s6MtEBOlLm5ubn5F8D4B3cPC/k7LJUL2XaeY/7sT+JW3gTg2BkLfqz2ZQS9qCfYGPELk+O1QtzSnDuR2GARcIeGCz96IaP0yxFwBJYBASdYy/CUfYxpQEDnaUZiwpGjwpJLzRCY8iNCIJyItwMH2VG3P+BrgjAG9gshFruNLgZwDpI15EvlrqQVHdAmPxSGJFQil+2TjLSfg4qwYJWPPowM8WJf8eGDjT/96U+cKIe1KNXQfvk0stImqJIyKmpVUC5CYNop9spCPv30U0jYT37yEyyp4kLgQsmXdj766CPyiEKw0GOvA+TOpUUTaAJt44RVqVLt9Lo1OSCVI2d9sVj+8ssv7917gJ/33nuvWq2zWgZBapH+apghZ4O8RDnM9geZclFO+2fJ1DAagU+HjA2ZDPkZMGZQnOFiCNmMpL8nOwRZSxkXWGJD14QXyfI2IhrolvJAwqMYXjjXYrIqNHPZEXAEFgsBJ1iL9bw8WkdgJgSYs+0KGzDLQwI04QLTOTxAJ/XImM84CznQ6V5Yl3zcWbIzRHtuvFwouUbZ9htkM5VKmW1EToqTrGFnZwtK9PDOg3Kx9P7771+8eFFPXEHU8La5uUkRF2EYVqR3lSM6sp+jASIFfzp37pxuNYYNoWtwOAyUdWkVHiZRE9gVPZOHot2Wr+JgjwfWwAiSxKfQrLt3737rW2/x9R6c1PmQM5yJ5BSyaCUfC2JdjsUrSVXBWpXsqkZLfSxuSZciC888fKGJ9H5zBByBZUfACday/zfAx78kCEBB5CLPQvQunhAafT0OMiFv3rEdtr+ABCDUcsmylV7Ru4SwCznyHq0DwZ14746P62xuPvyPP34Ia3nh4pUffP8D+JbyKjiQAkvGdngSbkKcwyJBaRVK7Zc7TljxQmDrkFqqoEcoWTfCniGEHjBT8hR2EcowPA7aqx+M2b5k3xACx/cQP/vsM5bEqGLbMVrH2t/Xy3PuTNJ7HcQWBWmdQj3tQsmFW4LlL8yL4kEt3gTlQHNQ438dAUcg7Qjo/wlL+yh9fI7A0iMgLCBa6WG+5wIPipCCSC0rQPnDpAEeJZwhw/4dC0ti2eOQFm8RsoglMrWyWcmRdq7vf//7P/3pT/W8vFIiyJC0jnpBo71ocewdpYQVXcjwM1pxpyGrWVwoVQ+7YmNOGZVEKOfQ9/89Rms1M4EibAeuhgca4pOD7ZzHQoBj8Tmdv/u7v+NAGKtZ1GqrXHTkClkW96Jz+6ofQTBz+VEur4HiWfV6136td8IONS47Ao7AEiLgBGsJH7oPOf0IhLO+kRuGHXEeXbmSk09cnLLCmH0xKIHSAtkZ1NcMD0iY8Cs5/J7pDjN8iZDlo2yUTFQ4ULcL46iWypLKPUq7EKMddKF6elf/ybs9j1jbUK9VYRfRcITDaZUZh4LyHAxiNvAzgsdbRN7k+zkUZXmMg+68XAmZku8qyjYgqdsZrewYcjBLyvLxZyFbB4wwEnS5K+w5lOW8PGUdeFjhsiPgCKQYAd8iTPHD9aEtIwLM4jqRxyiF6iE7CBHf2D88BEYsAKGEe0UN9VSWkLAMxELWrVjCyrJiRcos+Uxhf5Qnm3vUKpctrK+vsyb0+9///t6le3z7j1b5gpAJ+IouYkGwUEaeHzMhjcEeD0UuihHhExkCpMtU+OF1QjR4w4A7eopYIuhFUaKNLhMOinQqbvGDT2rZKzxz5gxFkqxyZJ4twmazzVF3VrnYIpTQ5R1KCdVIJ6OFUcEvCZFj/nnYEgt5+x3ug4m9XcSjlziLLooaj98dAUdgeRBwgrU8z9pHukQI2ARvY9aZHp50cKyIuR8r4VtcyhZEEpYFpeKTz0PJUoDMYXYhPtnekBWsoZwyGuYa7UyhLMeLrrzwwg9yuU8++eTGjRtbW9uvvPLShUsXNUcDXdOcnTjYDIJFooJpEDQ21asM1+Fiz5H9u7ChrmDBq1DS0ARahWYm0y01kCpjZtCs7ei6fv36/fv3Gdmbb77FASxc4Zy3BkNXdNGXAXPePwul0hQVkqwh6n0gjIuLVbSImEUx0ITLAggEYvYdgwAPFx2BtCPgBCvtT9jHl2oEQjYQDjQ2zZsZQmz6pxjtlBWVeEG1hEFFedt7kvIJMsFe2qifyfVI6xBtH9IkV5IvEw56w1x+SF4G1oQe3t/6+OOP//CHP1x+4QpHsvRgO6yFs+TwGY0t7DqULXIlTHAgNGTDghhhxoUGhqTLTlAiY0vI2sQ8xAQO9LPmxaEr0o0KSxyNCPW3v/3t119/DYEjckJdXz/LFiErWPQCNcrBloBJNgiFw8kNupkhDRg/jvnzvWfOsfNCpbAoDKTeL0fAEXAEEgg4wUpA4gpHYF4RYNYnNJnUD/ae4EZCBaJLqQaisIMDSzVWezWATESVkpShkOMokuQvgHyUynk5ecQZdr6EUy11d3uFTFm6E8ohKbBIi9WT9aDsgMNLHMbigzZFSS7KxemlF1988YUXXvjkkz99ff0a2dvJjEAM7O6xgsXLehY2MRAAu4r0Ak+ia4o0Rw/j0UhIAfq73/3uX//1XxkdGqVTeFAn77zzjg4kGmW0ChcdeycM1euQFQFN06AyPbIkBm8jPKL60Y9+RMB0gR7P7BhKR3LGSj6J0wNYsormsqV8gRxaZKaAarX7Gd6NbLc7a5Viu9u5dHZV0I6eBU60X+4WBs4p6qXRRoOI3zQ8HZ3JcSMvOwKOwKIh4ARr0Z6Yx7usCOg8zegPpmz5OwWMsTM6TdDLElXUFlICrYk2CuVtQaE7feEHbHpx1ojtNZSQKY5ddQayfAXBgnBlB8NGJ1OryQ4ZvwO6I0s53/nud1+4+iKrVnimC5aF4FKsYCn7QQPnYNfPuJTGjxIDlSE3LDKxsARlQY/zkHOwMIZzeBLGVksvFM2MXjQkdbizs4sBjIojWPRL1euvv45Gk2xF7Gr/xLo4yRU4czZgmKAkH/8RHjlEOWQBL9MaDPlMNGPucBINJPNsHbKRKme86B30ImxljBaMxuB3R8ARWEIEnGAt4UP3IacNAZ3Xx46KKruEE0Q8gOUZFl6UEMA5aEgVDAfa0ZYFrSKH2SEikA/oDZZYs0HWGw0laXu0orXbaFyq1w96hEvheL8EAcJIN91wArNhZYj1IZapuOwDOGjgXlgqGULAhVIT+BO5QJVyUasGOoqDHiUO06isVchmgwesSMRFDOhhcdwJhggZO6OLFvMgRvKpZlpxZh+22Jb1uRHH6WX7Uy7JTEG6iN4w2+oN+K4ObK7T7/ElbOCShsASfefHwqAN+jCSKCQ/gGVPxgVHYCkQ8P/NL8Vj9kGmAAHlE7H7pHHJxJ+4VAm3oAYZqsEVsSjhMBH5yMMuWLnpy7ntHN+EkRTm0C85mMUp7wxnruAZ8I9Gq2PuYTTypmHks9uT7Tacw6VwCtXgzu4hCdOhI/TFAhU7dBgobVJSwp0LDQQLBkYrTk3BwJDhQHoZicGGi17UA8ZcFPGgXeswVYMl3cHYELQL9cOdCw9EhaUW2fVjVarTG3GYPfpaToYhd/qDzmDYHg5bg0yT/VSOvWdG3R6fGCK5lrzqyAVJxT9x0oUNDbdcGgx3DU+VfncEHIFlQMAJ1jI8ZR+jI7CPAByEH/M9F0yL7+sNB6xMPV5xgSgoX8FAmA3fOB5COEa9zJAtQrgPbAOS0Wp39r+6Fzk29lAqHVoUxxVVr7766sOHD5HhMbrqA3liVQnqo92hp1bJiroiNr1QRsEKX6RK5ZgGS621MHCLBj0j0E4hdmxN0gsa9HiAXCJoVOqZvvgsDlwJdsXyFefMyFHBghYfnWa0nT47g0O4F2fRoJ6FUlHAjHghq2MRg6IkNJErQmX/BtKwwSjCUO2yI+AIpByBQ/8iSPlYfXiOwCIjILN34jKqYQJDRMYwOVZrHVUJ9YFhwEV00cjs0Yi3vJzEktcJI05GdgdOfbNRiMC91e3ttaJlqxyaaJ0mWjKDKUGbcAWtwQ8kBrbBl2pIl0UeBwT6QgnNUjPlOkQC0eGioQavxeRdDZTB0IouuGvkNmo0yKrc2Nhg+YrlNDWmIUyLKrXBPx6IASUh5YslIuiSiUKyXo3YB+wN+l1+vUGr1292e6zP9VnN6nX54ZPmEbUStJWu4V/DQKMB+N0RcASWFgEnWEv76H3g6UTAuIUOj5neLjRKTbDhgh/oEg7rSchoWAlSykUTbY5edglJuhkdxpJj75LSfdTqtLd3dzDiNDj7abiVFjlOLu1vuim1wgmuIDHvvvsui1iQKnbT6Ah7OtXVLC1iaWwJQfqN2A93qrDRS9bUIo0qdTgaLTKXyTjRFwbhdughfFw4gUshMEwiVJ8ItNJtvnZn2O6SlWLYIcFpt9fpyb3V7bBkxZ0VLJa1KBBfrVahOWFw4TDql0U4CdUijBau/N+xCpLfHYGlQ8D/x790j9wHvKAIKBuI3WNjsSkfPVN+NOsfMolIiNxgU9QicIdbcGffLC8MqaBEh2Ug+AErRPzY3IM0cJgbzkPiTT6Ys9cf7rQ4rSTrW/xLJKJZ0UoXvcmyjrAi/HAREkTqpZderNer177+M3uIdMrnC9kipIqulfcga7QaEgQIDVcYPQayzhRtCKoeYy7M6Eg16gQZz5ubmys1UpWWWDaDT7FJyJLUoNeHBbEqxd4oBQYXMUYOnhXq9TIbgk32BIcZDl01WY0bDtuDDD9eouz0ZZNU1vAgprkMjkvF/bTyOgpi0N4tBsKIDUGD9Lsj4AgsAwJOsJbhKfsY04aATdvM5Tqdq2B3Bgzz0GErI4EWKBFBzzqQMhVeJSRbQavVKJeL7U6TRahqrUx6TzHmG3yZQqPVg3nAo7rUDrrkzmIHbVQst3Kl2zt77AXKSpckfYB7yeuFEK58jpWhnAh5+EcesiVvH2aGP/6rv7x5/VqruQddo3esW+0u60nwEgiKBkz8SlNgXWh0mMLtDlbUwgHq6KT/iCmqQHMGSBM8dFrtc2fW2NDjEBTJFdjpKxbKfAinkMmW2QDtdTPkvMoPOUvPt6BZo2MsGzuNfqm8N8zu9EbNUW6nP2rArka5Xqaw0x50oZsRwaqWi8Vcf9RrM0J2RXO5AtStWCxDWxVbDUaYJjkuJF2+/KCnFrMJjFGHaWO0KhccAUdgoRFwgrXQj8+DXzoEdBpWnjHL4HXyNkttDq2BgkC84CJcvLLX7bFYA0kiUwMbhZIglEoYA+ka+nxeR8jZKMcnCbnnC6Qo6BeKj7qD+492B6xyScL3fTIkREh/ool+eVlhggTVq5Uf//jHH330Eb3SNe8IsnnHdwCpJR48QE2gRxS5KOoYw7v1EqtVvS4jQd0oknnr5s2bb7/7jlapTxap2Ojcd85YyJ9ayMlWZoEsX8N8tbyxO2xyxGqQaQz6rGM1+F6hLGJlmqzYdWFXwywJLGB+o8EqeR/Ij8pCFkkcov1BBRPnCNqF9HT4Amri8csRcASWBAH/H/ySPGgf5sIjYKRKSdJxx8NcTxPuNIdVRJxJzkJBbqAmMCqqOHRELnPetoPryAahnK/KSdYEzl5BJqILM7bVcsVSo9O7/WCDbA0UeCdPyYMkdOCAOAneJSPpAdeSnKVCZ15/863XX//Wb379O2hQMV+4f+8eG4XEAEdRagU7oROlLEattF/uaIgFgRhiF1UMBK+MhdNdbEGSG2Jra4tvM2NNF3z+hk80E+yA5S1JoSrKAsttMMZ8sQdpKmZuP9ris9K8M0iyK3YuYVTsGLblrcnsXpf1L/nqTq/d4ls56/UaC1J4oF961GUzDY87RYtZBY02powVsYlpvOgIOAILjYATrIV+fB78UiPAXD7j+HXy5q4MhobIymmi9AUVsnHq6SsIzFp9hd0y8hmIWSHPMSVJi5XLsss24rvPmaGc8c7le5n8ve29e7stckfx2h11tJVT3vxLBRoH0+IYFsSFH6/lCXvIdbrdD37wAxK1/8dvf8dXlfkmdKOxCx8iEllJivYu4XZKXBgaAXAJwYsuNEqwYqOmkuGYJV/mYW0MG9hblMdLUJIv4LA7yD36sZpFqnpGw+cUMyPO9pc3W8PNdqs9yrIH2h3KepW8P4icyZIdi6WsAePipcNuc7VeqRYJVw6x4VnplMaMTISqiUI+dIuF7UVHwBFINwJOsNL9fH10jsAhBGAY/GAAUZYBOacFNVlZWdvaeMQSE6tKEIRalU2zbKfdlEWpbJ5NQPJtSur3aEWKpSmoBnmhSLW528lcu/2wJURKflCh6NQ7zGr/BwHhRwG+ArUpl6t7e82f/e3fvvbaa7/+9b+3GnuslmlKUngVC1dKAblLXweXyjoMqsJaVWKIALOBq127dg3eRo543JI4lCP5BMxCnP7ECt+6CMfYRwX55YvZUubGo52dTLbBC5KDEUkZ2oMevK9NStVRBiUciyWvXreZG/Uurtf4Ro4CSL/EA4x6hTIaDRWbg6FInH45Ao7AkiDgBGtJHrQPM4UI2Pw9+9iY6WnFxYYai0b6LiFcgYPtnMSSA0xDGEemVMyzgsULexiwLAU9IiMUi1hywptM5rlchw/25SudfPH21t7D3QGfQIYUQTRI2RD9oFvQKvYFObnFWhGMrcCCEPkPSIXFO4dvvfXWX/zgB3/84x83H25ArfTcErEpTdEVIB2UUpNwgEZWGIXqacU+HRuC169fh7rRhW56YqkG0YgZuJK9fcoli3LZfKFYyeQzO73Mne3tJvm9Rtn2cCA7g30SsI7YAOUMVovj7JLbPdPtNFZr5XMr9XymX+ID2NEnosMFNg3JyFbU76FbOJCkrM2Tetc4Ao7AIiLgBGsRn5rHvIwI6ETNyE82De8353yUECH5KE2xXII0UCDvJytJ5OQc9Qds9UEc6pUyW3z9rhzMku8fk8x9wAoUp6/kXTgEshVQ189Xd7qjr24/2OvJCpa8RUh40Q+RE+DRXZRcsBn+w1EmZAJ46eWX/9vf/y1H0e/fv8/KExxLeRLcaMoAQ76l/Al+Rr4rspgS/3vvvYdzinhjf7BConoStkfnw8SnJEll+JwQy6Ac9Pn4Ty5TzDX7mRv3t3c7w9aIA2dCp1qDPp9z5s1GJVjkawAU6a7fvbher5fkJUSyjuazBVip7lpyF6wOJcGSUeulVdwPFDP9NYI4k7UbOQKOwJwh4ARrzh6Ih+MITEVAJ2mdsKcaPq5MzutoyPkJocGI/FDQEZI1bG9vdbotJnUWelYqxUJmREoFbDjdjlJpBALMDLbBq3Tso3WzeXIZXLv3cLM5bA0zXXbiMizs8BMqEbEJOYIFOcEnbxPSHYe62CzM4z43YiPvv//8f9A19Oj27dvC+fTzyY9jPyTpqAlJBbYUOToGP7t169bly5ffeOMNiBpx6juJeOOKjoSJuRy9Mn4jx/xLPfmKc47D/I+6mW/uP+ywA8jnnNkfHEjedjgW71ViI58GUs436hey/fOr1UJmSFKHbkvef9RtTUVSOaKyIsJACK9DI0kUJEK/HAFHIF0IOMFK1/P00aQaASZsnbl1lBR1YlYBWWd0FczGatFABZQqQWXIGQoXgRbANmTnbjTa3d6plIvdNvmuMhcvnOu1mqXcqFyMclnJMSz58YXjfr8nyc5z+Uetdq620hrm/uPTL0jYIMRryDuA8q0Z2RuE0vSH5H3n3LUxnCoAAEAASURBVJfyB92yk5NaXCyNRatW77zzzgcffMASGht8nKBi/QliRFS04VLuwm6mci8twngePHgAr7p37x6e3n77bQzgOsgMVokOw4RdFTmmz0d+YFrFQj8rcfGKYClf5cg66byy1UInl/ny9r293rBYWeH7Pwxqr92BWsG0oFatTpfdzRyxwLU6e5fPrZ6pl6Geo25/dWWlsbtHVPRIv3RqAkWNUzUUuZAVeS3aHT2XFk2wWhccAUdgcRE49GXWxR2GR+4IOAJJBCAoSaVq9qd1aFC0uUcRjsUxppXV9UptBapyZqVYLRe2d7dztbV6tbqxtyNf0jm4WNYiOwEf7+vDPkqlrXb7sxv3v/fGpdVspkz2A9lQg8+wmEVuBM5t9bKkcqCthhOdXoJvsAu512jyrUAWsbigTeSvYqcPpoXt6uoqS1wMAQNWqtDAZnZ2dlimgheyA3jp0iUM4FUcIINgaWg6ZO77ZIXkVRxiLxZ3m61SrcRrg+VcmTU4CGIvX8gXM5/fbN56tDMsV7YbLVbzdhp7vELI6XfeLSxzwJ/DV71upZAt9Xv5YffqucuVfKZczPHdnEFOPhStnSbvIVVSssVdhaSxaxwBRyCVCDjBSuVj9UGlE4HHvGHm8dFEr4MWcALhSVGiduEH1GoV2RM+++yziLWsFIUXZS6eW390Z6tcrXfz+Wqputlollfr8rVmuAXpGjiTXiw2+/16odTodz65cXttpf7upTqUjTxTRWiWsBT5kRBB1o5kq1Hc0p/wD365jKycRZ+1gaywCHThwoXz588jQ7Y4XMXKE3RK44dCQVCuXLmCnlBpBRXDAI6VZFc6Iu5UsRmaXynDyfpkZMhkKuXq7k67wLpcJfPVxujrjU3OtnPIjMNanA/jVUZ4JNkbWBwcsPQmidv5rjNHrpoXapUXLqyWeQ+x18UtYXARW8ilrN9QGcpm4IIj4AikHgEnWKl/xD7ApUZA+ZNyFICIBE5EQYEODmWTtyEnX2imCrLyaHNrff0srwXyBcGLZ+sPdpqPWjvF0opsJnZgFHJEvZjl0zF8L1neyuv0OSxfLFdXth49+Pibm2u1dy7WMpAsYW1k5uRdQln3Yo9Q8jXwY9EHkTWsaDlHPmgD/0DGvz4nwqAIg4FjqVI5FnuIWGLP2pV+NBoqRhP9rCFMi4bmQQXhccICC5DC8kpt0O0MR/mtRrNYqWXKmfutzJ9ufrPVHWTrddKKspXJ55zlrUn85Ipsc/b6w2KORa5hvtusDbuvX3mJceXJhNXurNXqbKcSDAfY6DfqR7b5EPa7jv5oSFpLhFyQyNDAZUfAEUgxAn4GK8UP14fmCOxP+TrxM9/bJfxG0pjLS4LM+hAa6MKrL72s7/TJ2syIzb7M1Utnu3tbclB9JHk7+bJNgTxawz4n1ov5bH/AuXb5LnKHTOkr9Vu7ex9+9c2dvQEv38kPtlEggzoH4+FrwluEurB0FrEvfTbaNcGwagX/EAYXpUHnjpIiZtAs2BXhQbn2V6RYUatWoVkwJwSUNi6E8Km3+t1yvYaGM+nlQpk9zQ47k7Crfub3125vdrp7I742SGf5jd1tatg85OIzOtliBS5IPtFaPptrN19cr71ycZ3zZaN+j/wWBMYFhARpPSrISqc0Bo3K4jFL07jgCDgCKUbACVaKH64PzRHQRZzHyyo6x9sdfgDFEZbAi31RsoZKqXDn1s1qpUTW8l5veKZeIO1Te2+Xr0Fzer1ULJO8U5amYEvRqe1CucRh8O12a1SuDkrVG5ubn9+4c6MxJMcBHnt4GQ7Ik0AiLaFl7BPK2hXvGcpX/GQRTbYKJTxCIhJdSIO7KJciMM5XUaWbhhRhP2rMXSOHHWGsIwqft2jorJBvddqszMGWep0+qpW16v1e5sOv7txr7DXJN1EsNNqdR43dTJGUqhFQcgCLA/gFWWvjPFavU8+N3rx6ZRU61e+x0AXb05P4SuwsnrB3VRIDMYdXzMaLjoAjkGIEnGCl+OH60FKLQJJPjB2qrqbYmgqtlM3oXdgOmakiEgBZKZELtNvmE35sukFrIEB8zxhK9MqLl+UtOujVcFivr0KIEHLRSfCC0KUsb+tBp0jR2S+Ve8XytY2Hn127fo9X8vh+M8m0hrIKddCvpMraP4MVRYwrrdUgKbIhyFn7X/3qV59//jlRwY0gKFAoBEL953/+5z/84Q+sXUHFIFtUoactVVxxEMhwWim1+yw1FUqFIifbSey+O8p89PW1rzfudwrFBgtWbPplc93+sFApd6MjVyyYMXTAoQuSUvCJ69devHRxtZrtd0uyblcAHI7JW9gqaNcahkZishXj4XnZEXAEUo2AE6xUP14fXOoQ0Nl6xmEpawmNIw2rT0Jr2Orjp7WwinavCxGpr62y6fbNta9JxyCfbO53z9cLL5yrb9+/d351NTvo16t1TouTIApyAwFi4w6B5hxjapPxPF9uDPPXN7Y//vrmzd29fqaSLXDCSb6LLB2NJIMD7ARGRP/yBWmSIES7bCxEoUWm9/rqCiTm088/29nZ0yUrqmj94YcfPtreXVs/WypXO13eXyzSilSfkCd8sRimv2hEnFpnaJyW751ZXWs02+wMFtZW2vn8bz77+usHm91CaQcGmM3vNRrsk66urzRae3z+hwSqrF2Rc37U79bzucqwv1bIfef1K5LhvtMp5fLlYnHjwUMWsQiV2CI8o3Wvg9cFeEA6oigMuakN3FFHYXoXHAFHIN0IOMFK9/P10aUHgXAuD2dr9LpYglJndwSGjQwB4tL5HrNIT/4n9uYgFfJjD0x+2Wyn162vrPHZZvIXvPLaq9u7OzduXK9Vi7lBJ9trvfvC6ourxd7GfU4zyYeRSyuDTLFF1nPISJQjCrpRGuUG3X6HRFJrFwblM1892P3wq3u39rodiFyhOhqS2EG+mRNtEWbJPcquHkk+4SYc0YIc8Y4glRS5l6u173/ww+3dxseffMYRMfYSi6UK1Oqrr6+vnT33xttvk62UzyPmSwXOodcqdc53cWg/w9Gp0YCTYVGSBU5ykaqrXxlkh81BtljN1Mq3M5l/+fyb/7y70SzWu9kq+5wQJE5ZscrW6TYKlVy+UiI3faM9KudyZwqZUmNzfdT+8btvluRzjMNqocKXoXcebdcq1XazAcLQSgEzusCQvxS59OlA/vRSJbVqo/axOzYxzXT7pLFrHAFHYN4QcII1b0/E43EETgcBm9fVHbN7eMX60B03Pp7DuSI26a5evcpGIVt1cBR2A0f94Q/eeSnb3q3yDb7MCFIlqaQk7ygULc+xd9IbsPtIAq3uKNfoZ9koHNbO3Nvr/vaz65/efdTkjDmZHcjeIEkb5LQ7R7hgWnx1h2zq3CAiIkb/4JnSxYsXX3vtNRIxkPgKe05lffzxx8T87rffgamRIwIeRgvoI6e5OGsPU5M3/gplbFhYwgm0MlesZivVFqyxlPm6Mfhfv/nTl5uPShcubneH5LHi7UkGK2f2o0sBiTZCh6ul0kpuVOzuvXHp3KV6pkBG1iyJKzis3x9Gi1axNSqAjeEpvUcrc3pPGsTsvegIOALpQ8AJVvqeqY/IEXiMQMgepkzz8AAsowUvySNw7tw5irxRmC9WSMRQLkie0Pfffq316H4111sp52tlSQHf7Q67HGvKkS89x+t/LEQN89lmr8PG3rBY7hXKd3cbn9y8/6dvHm73M+RMH+ZJ25AlzcGg1yE9fCWHOe8ychJdjoKxo4cDVtQwhOm9+cZrj7Y2/vOPH7aabYTr1766fOXiay9f5YuAo1G7UBhkht18Dn+yAgf7gZ71eQmRPFa5cqlYGw2L2+3eRj7zqJr53b1H//b5Z9vZUWM0vL/1qLq20pEkDPA0EkjAg6BZfACnkhtwsn24Vsrz23lw/9LZ9e9/6/LeHh+9ZlWM7UZJKsGbjuAjPUYLgI+BjiRFWO9hFWCGRZcdAUdgGRDwPFjL8JR9jEuKQDivh3M/ei2aAeyB1RxWktCQQp1T5GSZuvfg/r0HW5euvEAGTujT1fPFrZ2zXz3YKK6eW6tWOa600Ww0JVFCpVgqw266pDvPl3qZEefKISX1aq1QKu5023/65u5es/PKuTMvnavXCpwTL0cvD0KHukVLfwXXiZ4SgWkehxcuX3n77Te//PLLVutfOJJFqvfvfefbrF71eq1igePmJFmXpFyctofqsS6WkU1GtjjlfcXoeFie3r9pZ768//DavbttvMvBqUG21+8NJMMWQ4aOkTQ1D0Fk3asH/cusl4vn69XdB3dqueHP3n+t082slIoc9h/KS5Xwqy6tiFDTpY79b5XUHlwYHIjC/7ggsmNbudIRcATSh4ATrPQ9Ux+RI3AEAsquMFI2oNbIXMgwLT5NA83a2du9/s3tam2tUi6TLp2kVN95/UKz3byx8zBTP1svVfu51Z5s8EkS9mxeMq33R4OSfM55tNfrsMS0Wi7LUfRs7uuHO81Wb3uvdXmtfn6tulIiUwPfFyRtp35AUKgSfUchRCtSvLc46P3wgx9w4ImFtPL6me9877usq5HavRwZsZLEO5CkLG13ekV2JKNzZfKOYoV/cmTh2t4bkJfr053dG9u7JIpg93O32ebwFmfoORe/Ul1n25Fz8Jzrx37QHeZHHGDPrXEkq7Gda+3+z//xl4QE8yrlhizgtfb4BjRj3WdX8CYBTda15K9exAWdUtmEg0r/6wg4AkuHgBOspXvkPuDlQUAJk46XKV+LOvdblQowJAgH1Ipasndq2vSzZ873h1tffPHF9957t1Qq8omY3LD0/tuv9L745trWZn71/FplpVOu7Lab5EhnUYocWpleezTk+zJCPjqsJHGMvFDitcBsubfDitHmLoeqztcrl86sXVhfqZdYreIFQLnIhyWJIeSiNce7og9LFwrvfefb7377PexY+pE3FhkEydVZUMNxsTzKEfCAA16iI9MVNqPMdjvzcHv39v0H32w+2swXs6tn2N5rtkkQWiXdQ6vdXKnVSdmAqxxeOcPVG7HHWSmW1/iO897DQWf37//qL6Mv+GQKw16VBGDtNnuasCviFLiEhcKsSIgvgl7oCT2GKlVowuvA3P86Ao5A+hFwgpX+Z+wjXGYEdHZXBIS8BBdVVlIzlqBkH2s4hGCxS1iv1WAuN2/evHXz5quvvkyScw6ir1Yq777+Si97636r1W8No88WlhtkTRhAgPg2Dntp3SjXAefC+aLOsMm2GqtEOfbiZB2pnR097PT3Huw+bHTXquXLa+USeUflkhD2yRYrS1kWuMgBwTmpYanEyajMXqNTr5XZF4Ta8N3CTLbAupQcouITPtEyEqtWjU6GI/U37t3b3N3jQFl2/Ux5kOPEF+8YlvJlztPnM8VMsZwfFTvDPhmtGL68eCivDxYlBQMpu/rt//L+e1dWMtlepjSChKHJtnZ3OOIlP05eydF1PgJNl/weA2hIqjAF6pilFx0BRyCtCDjBSuuT9XEtOwLKmQwFnfJRmsYElCwJwXHQwK40+0C5XJY8T8P+1Rev3Lh+7WY28+rrr3XIENUfnimTGupq85M/N3Ya9dVzlRXJBbq10+h0equ1AotP8oKhrPfoPhpnowblUrnVQw0vKvCZQ3rpdOBeZFnfqxez5L6qliE5LGexqAS54vPQmWanXyxinGP7kHf+KvUyH0LMZWU3cAQRK2RaA77GI0JjkLn3YO/+5vZGY689GJEAYlCp9rM5zmNxcJ9tviw99wdsYVZLNfJIwK7qlTppKob9LmngK/kca1e5Tre3s/XDt1599XyFNx5Zh1st5Ue9wub9O6Ry4NNAEYCyaEV0HKyHrKrGYAwFYalR4iuF3e5j8Q8buuwIOAKpQcAJVmoepQ8k/QgwPetUrUOlyCwOMeKOrOtP3KnVKqNNITRqoNM/ZlThkwtZ76aE6pAJC741ePHFG7duQqRW1s5AkEa9/sVS4S/efk2yiW49yI/Ona3W2bPbbbX2djvVEmfQi3iFaEVhDJrdLi8hcsKclA7kvkKZLZXJYjXKjTr9VqbXbw87O80OjomNI1zkDWUXD7thX76r04eqFdlwZNtRfiRRh2m1mhmabDX2yDrfaPebnEPP5we5Eu8lclCfXiBSOXIwRCterKVxRow7/A7ulivxDR8Wxzjs3r24tsKXcLpbmzC+D95+9Z0X66xdcZKe7zD2291ea483HIEFuOibtkQRyTIKQfXgiQiCwSVjPKiKrKRoyCNorSppp1UUxefBhT6mOajxv46AI7AACDjBWoCH5CE6AidAgLmZi5mbS+WkE/QodYKP2aDkKzKkFSV7eyGXee211z798s8ch1ovV2Ec8JOL1fwH33q5dP3uF3c3RvXhpbWzJNGSF+1I6c4BdzbxhNBAHfKlinzWhu/ayOefUfJpaTmeXsgWyCDK6SlsZKtuOCAnFkfJ+9l+ttHcIgAujqHLXXIzcEYry4IUnz4kLSrrYQiyMsULgLwIWCiySdllC5PsVqUSG5JsZ9JnucTbhRA5UndFi2F4YEmMxFokyhoMXji3luddxu2tyrD347/47vl6ZtQh5dWoSPoH4ug0qSQkUBwRBotYhxEkMKWLCFajMphL7QG8yHqpxoxdcAQcgRQj4AQrxQ/Xh7bsCITTORN8SKHCKtWrhjvkAOBYp5GTUaNhuyspGx5sb19+4cqfv/z65Ve6vM2Xk1NI2UvlYvntF8nn/tW9DT6es1Zb7xTLmXZ/2G1Bl9jPYzVpOOJ9QjJpwXBGrB/BXQpkwxpx3HxISlK+csP3ejiuVS5WSmXOYCmNkT1AAiaGHo5Iaip8aMTS1Fan2xllu3KenW8zkxE+WtTKZlrtbqFYqeX5qjT7if1Bh5cZC1VOknWa5SqrUflel01LzmUVoGEtPnpTKq6fqVcyg52Nexeqhf/y3W+fKWUqvPc47BMpG4S9Lp8OIimDsCvQABaWmdgdjJgUq1kABLtS/SEiRU0MatU4wRLQ/HIElgkBJ1jL9LR9rEuDgE7n3G3EqlHyZMpQCI1Nj4N6vc4Hb9govHx5hRcMb926xTn2q5cvdXq9Tru/slL90ZuXyenwybVbe9vdQvXcSrnI+3p7rWZHFrKGRY4+ZdlnrOSjHUjeVeQDyyP27CBTmSLJtPK8Cshx9Rx5EiAsUc+sZnF6CpojXxfMcd6pT5fsTEJzylVWhQrQNjKxc4+WqajjEJdkgx/A1nIVsqNCv9go7BPeCpGQ5IpU9QTSbpNVPrNeK9UrrG0NHt29895rL755+fwap/A7PZbQqqVyv9fptNlyJIkDp/NJ4E7crHtpci5ZkhKmFaXgArFoicrQOtg3jIgXwXJZXaxoehccAUcgrQg4wUrrk/VxOQKHEAgne6swpbEr1UTUQZhMjjRQZEzv9Sq1aqPVeeO1V+/duXP/9q1Mr3v50gv1cqnR6paqpW9frlULV7++u3Xt4f1smbf9yuWVUrsvSaqgLXCUVrMr23QsWLHdKPtq8iFp/tMTtsK7i/LZHaIqSvd96sifIIfZOXJF/ywcFVisoopEoXxwkAPonF8fklUdTZFkVNGSG7uZsrIkb/rBh+BtI05dNVvdermer+aghp12g7WslWqtXi1l+p07X3/14x9877VzVdI0ZDr91VKx3SLYHl8K6rRb9MZriAQlK1gchxfPUD12/qLlK6OCIBWxWEXMgDUBP+FlehccAUcg9Qg4wUr9I/YBLiMC4aSOrMewYkCgN43J2pC9uX3NKNfqNNfOrJO1oQLZ6revXD4PyeArgXzk5vKVl2rF0l6jnatU3j5fu7BWW6k9uPFwe/PRVqG+srq6xoZggxxSss037PFx5UGuKxwlWhTK8kmcTIezVVleE4QmcVKKj9ZkJbsDJ9mjnPLswvEeIx8xlJf2aEi6+WymDO2ShbjoEz0yABlFu93l2Hy+VKRdh6TsnBsjQTsJSLu5fpdPGbZYc7qwsrJWq3Sbu9u3rp+pVf7nX/+owln45uBMLd9vjdqtJstl5CBl8xKH7I6yK8j3dNjmLJCnPqJ56OFYHBeDJBIvJd5TTOZqADoAVOJFEy5FVWW/OwKOwJIg4ARrSR60D3PpEJCllWCLUOf4UBMiQq1WIaDXIndOjhcqVVZvyuTb7I06vTZbZ1evvlAp1x4+fNRofnXlxRdqlQr5DuAc54uFv3r94vm10hc3bj/Y2+lsd0elerW8wp4dX4jODPscTu81u+1Rt1rMZ+plMlGx0QdBoWtZjiLpFMtluQz5Rzm+peERgyx4sYgVndSvsFkJV8rn+tHyUjc6GM9rhqu1KstsLGzBvsibBR2j2G62MgN56/Fsnaym5U5j99HtW3z65vuvv/ry5dVsV7K+18p5TlutVEvbj9osirHORUTRN6D1lDr+8vIaI4fcIyYlSVCDK4pu/9CVYYtgl9miMdkFR8ARWAYEnGAtw1P2MS4dAjbB61JKcnYXZhBdKqh9DCYhP+zrSZasDms9LOpUK3XZamt3a7WVCxcKG5ubt27cvPLCpVqtRIYsjDlK9c759ZfPr392Z/Ozm3d32nsjIURlTmPxZRw+EZ2rcPaJt/0Gu5C1dnu9XOiVcrVMiayhfMMZvlXhdT/SIURv7MGThllJSsXyFbGwmMVRMFJskUiBAtGSpFS27rJZki6QrapQYAtxQNJTuYaSn71WKazW6mzxNbc3Mp3WK+fXX7x4/sJKLgP342hYv99qdVfq1b3dBi0YGpm4JLu7HK+XNTxZA8uQoBRu9Pi4lSAmW4cAKMyPnUxkRdhgjAGuenxOOQMXA9+LjoAjsOgIOMFa9Cfo8S81AkzYTN7clUgx0yszQAgvMNI5HmWIl/IAVeo91ERnoOQgOW/hyZnzKF0CWRfYLyOv1PmL58rV0t27d2/cuH7p0qVz585AOMrDbLfVLBZL779w7pVL57745u71exutIUSnNiK/KJyHYOFBHEOXrwAOO4MWNK4/6DUHvVK+UGOPL58tjiSPg2zD8UIf+3BR7FImHzyH0TucQue7iEJvRpwSY2mJ0/K5AhuDvPcHscK8XCiu8PXB3Ij3BNvbN+CEZ1ZrL75x8cJahZP0vVYHZlYgY0SBY2CjR4825Z1GeFKe81YwScYq5Ik/0DX6gdwJoxKlXGIh/yDyuR2pUmwVushEbsqleBzI9ixMj7ECrs9L25pS2vvlCDgCC46AE6wFf4Ae/vIhwMQcm8tnx0Ab6tQ+vZX2IoRDlmmwjRaLODkun3IWctBo7HFOiU/obG1t8TkdTmW99NJLvHJYKrDslO30Bqu53F++fuWtl698dfvBrQcbrU6rS56GAh9rLo26RUjaIDtYWakUeI0w4kpwmN4o2+zwJqBs/cF2WMfSUOmR5S2CIPW6BEYCUb5GyPF5wpIEEPlemzRbOfhZqQrlKsC84EbZfre3t3FhtXLh5UtrK1VJC89rhsMBrwZyjmrEW5B9El3xriG5tIZEJom7It4UQyZaTRsawdJaoVZTryjmx7eptl7pCDgCKUTACVYKH6oPKZUIKON5kqGFHpS4TPeWtNdWsAYEMiPATuAxpEJ49dVXd3d3v/nmm7Va/dKVK5VanYWZUl4+UbNeyPzwlYvvvXLx9kbn5t17e+0etIfkDHzlkISj3a3tYYHMoDCjKD2okCJYT4cc7GyncR5L14HoUReLeFUwWjEacLKqUuFlxbLsS7L1VocfCQUkfxVLaCSQQIbpvfXmG+VSpiyMihcHe1mO2fNmZLHQ5kM8RB/FL4lO89CyaBfyKNqkiBkyBDYFQ6VXhKfCFEuvcgQcgfQh4AQrfc/UR7QUCNgcP8tolRhhqYTAirO0VRtjEsYVovfssiz/4A2iwwEovie48+jRta++unjh8rnLF6FKvD1YLJVJg8CW3Ktnyy+deWWvk9nYfLSxtdnq7PF+Hl/iGXLwqtuXr/uR1ZSVpx5bgN18qST53SXhgpyF0vyeEoks3g26bAeSETRTLVbKrFbRtN3ca8seIT322R+8eHbt3LlqjQ/2sDbVz5B3FE9ljleVc/hv7LbgYfAeLnEux67IBiEHr5TPSbPDlw3/sNpLjoAj4AhMRMAJ1kRovMIRmEMEIARM9nqfJTwsY2ZJDQaTHMKiQm6BDAXhzkUraimyDgTNIpNn/Xxtlayke3t37t66++Duyy+/urq+1uv3yJjAsXVe8IM/rdcyV2tnRi+d2dhrb2ztNfoFkk/hIdvr5IfC1dgWLEKRxLEsSnGx+CRrUxLkCNtKtZrPr/BJHZKMQqw6UKp+lzcZi5Vifb2+ulKtl2RLs9PJtHe6HPeCnRXZbZTcD3xvkI3KZrfX5iw7fcmyFcOJlr4AlTHBsaKu4rexoIVGaqCwcNdi7H6kk9Chy46AI7DoCDjBWvQn6PE7AjMhoLO78JXoCtsoIVADpQhWGyuqDbXoccX+INwImsUuIQJJpFjHqq2svL62xo7htWtfwbquXLlCbb89KFXKHHIiwTtpsQrl0qWVCr8OKaz6mVYXPsSXl7u8V8gdt1W+Mg0pk5Nf+4edyJIl3eZKpHTgfT+SjZaK+ZXVWo1XE/nX2JDj7pxbFyoGC4PKVThxX+E0Pcf/2RzsNhtkliclVxczTtMrCNw5WiWDkZNmgoye9LLhTxEi42n7g7S1XmIwTnHrVY6AI5AaBJxgpeZR+kCWDgHm72ONOWkv1GKqE2UGSTNa6eYgJ7GolbfwhsPaSp3X+8iawIpWfX317XPre7u79+7fuXWjC80qkQ2eq1SEN8l3b7ps6o1I3VDJ5mu1TK4Gm6r2M1VdQeLcOXHpwhXkSZJQ8SM9giTNEoH0VtErhuRgz3SaJEEtkwWeU1Sjfo9NQAhWEd5XLO4+2pUv6PRJs9XDQ4mdzGhVjJi5lF3te4Rowc9Y6Bp3YTxOva8DjUkGCu90kKd49ipHwBFYXAScYC3us/PIHYGZEAhn91AeywkwCPWygxaRsFBJr7AXLCFVSrN0r5AvO0sa9kK+mq2i57B5oVi8fPkyR6N403C0M+KLhHVSgtZqrGDhucYXayBDrPQM+RYhb/hxHEuybeUKJb5MKHp6pfeI2wjxISsDLzGyPsWp8W6mOyRzFm815larZXJtDUmKOuzTvFqRXFnNZrO1vUXSBsm/IJyM3UdxSWp4alnE2mdX6GWXUD58KJ0JyzrGJeGNY6ji6oCTYaAy97HGx+jPTR0BR2BxEHCCtTjPyiN1BKLtLGCwCftkkIRzv075qlE51OA/5ATWEAE9bEY1WhRb8lGN5EwVGrJ0Si1kqDi6Uq33+p3GXuvhg83+8EGpWmHfsFKprFb5CDS5qLpypEpe54O09QbtDsfbpd+IGJHGQfzzD7uDvf1FO1hRIUquztcD+32oG5SJvKGZZnNvo9XicD2xsUEJdyIHBGQOb0oW2X+USxJ7EW8eakWmryg5w6HFK+zpbjq8EuJhdhUr4gEOymWuENQmtLTa6d15rSPgCCwWAk6wFut5ebSOwLERiM3fseIs7mJNQnJwSJYjUNkCnGV/3YujUfvMCLZSKKxWyitrZ852OGvV41BUZ3tze3M0qJJtoVohVQOEiMQNHEeHQOYyRV4pFDIlDngHECLDjc1CSBxvFpIUi0RYmEQ0KZu9cf2aJHIvsMIlF1yKWFgS0/A0fr0r2dKGsrQFA9wnkfiV7gwQ2sYGblUmHGmjAZi9C46AI7A8CDjBWp5n7SNNFQJHzv3J0caazDL3z9IEG+UZkB/4CotCETXi3Tz5D7Vc/Blw2JwlJj6GU6xUStVhddgfdHN8A3rAN3N6G1s71LKlyDEtcrBH33qOGsJ+9r/uzFIXjKgn7/+R1IpmZMyKthRhVCQ4FWveGIxWquBikrwhMyAI9RLt/UVsjDr2JIOXBWfBIQnmdI0CMsVGgj28+jXF2KscAUdgERFwgrWIT81jXkYEmJKfZNizzOihzSSKoLQgDEYtRQ+xOlhSElcWrtTlh9kBq0clYV3ySRrOW7HQ1Gp0SqXqufr6efmeIIerYFlDSZ/V7zJaHXEksFnIchRH12UFSpgc92y+DP0qsOxFYgY+mEhud9mSk48TSjp3MZQ1KJK2R44kJFzsw3iw1SixRdc4dLXyoImN55AQ+IzrD5UnFyyEySZe4wg4AouHgBOsxXtmHvGSIzB9vo+BM8l4lkk9pA5T7MMuMGPhSD4rE1EZqlg6YrVI2Q5LTYQHU5IsVsKG+vXVdUz6Qqw4tgXVEYJE+5XqCm8a6liM+cDgev0WJ5rwIpt/vBEYXTCqLpm0JIdW9LkbmtFrnwSm+4lD9Xx7iMzjdwUPvO8naDigW6Exnvcj2SdnYeXxZHN1vGZu7Qg4AguIgBOsBXxoHvKyIhBSmWNhQEOd2tWDTfMmTPJ2pAENsdkPTHbmOFIufASNrCaxZxgxGLKpR2fJJUMVF/kUSmXWoiqNTle6lrQLkvVTuuNVQLb+2PuLnMi7fuJELgzzLFah5/vTmEYX+sFwEJ1nR7f/bqOcvoKERXyNmPCKrXqQ7qKYuaMh4P1LhX0qdaA8/Dfm5HDloZJacj+k9YIj4AgsEwJOsJbpaftYlxsB4RPBlB/KsarZcYoxCeE1XLI1lxnk5BA6FwpZmOKFPo6wC11iA5BX/7oY54uciSd5u7xsGGVfEFvWuMhipVuMbO+x5wcjiu405vU/9gflM88aPwe+MIkOvQuhivScxWLnMM9eJAm6ZDcRLV1EHmklDaP3BuFd8hEefEfNuMmrjFNJEW11RNIkuEJ9KAcmLjoCjsByIeAEa7met4/WETgWAsJFoivGKkxPpcnCdOAnURnOAnURTeSABSqOtHNMShWQGDk7lc12OfounAvLfW4T7fORfl12CNWhEDTphn/I16D8hi0+FsM40E53bDzup2A4CFLImPTVl3TzUWNxFTE9LUl/Fraq9ouRUazqoM3x/k53QjRmYMLxOnBrR8ARmG8EnGDN9/Px6ByBAwR0GtaJWckCd70OTA793d9xi3QmY2/TuclojIgcchExpJiGojXUKopmA9WRYrQJyCpSlMFKagf9AanX6ZvlK2kOXZJVpBHfsuEu+3QEoVuB+I/oD2YiSG+Rf8mJJafgNf5oM5IavnAY3eVDOkrCLBbxaQVxv1/CW9RlVJaQooSmUT+8ryhG2qM1UCf7YZjHQMDSahHswkS6jWpRBi1Eb8VYleldcAQcgYVGwAnWQj8+D94RGI+AzvHU2WQfzujWhtqxejMYK8SaUExSBD3bBI2K6IwedZKUCeT2FAYVxQXHiI5p7RMadSJ3mBYdU414iJagk7ZRVBCUaGsvOu8+PoZxgemIdAjS6qAc9fuY9KiBVh6YjBmmVoXD14ahxpqH3lx2BByB1CPgBCv1j9gHuLwIxKZ5ikz/ehkoMRvTn65Ap+rQukNjsvUV01grDMIq0491Yt6mCObBbFSjvSRr1ezE3VkvLjgCjsDyIPD4beXlGbOP1BFYWgTGUoeQu0xBZmxbtadqSi02WhtZ7d9UaRorxhyqQcyD2iQtY/qwOKNs3U2yx2BsVYhh6CTUj23oSkfAEUgrAr6CldYn6+NaagSUB4QzPXBMIgezIGUOMZ5EGqb7pzZsqMVJTdQytEET8zB72EnLsa7GKpNtQ02yiWkQ1DIcddjWZUfAEUg3Ar6Cle7n66NbXgRsgkfQ67SwwNsUV9NrtaHZaGB6D6vMAGVIUMzejJNtqQqbq+Up3o90Pslgkv4UY3NXjoAjMD8IOMGan2fhkTgCp4mA8RIEvfCOkOxjysQ/1h4PU5ok/Sc1k9xiGVYha1HvdDq237HKZKdjNVEPjzGZ0dWMZmN7dKUj4AgsCQJOsJbkQfswlwsB4yUq6OBD2eA4MVc4suGRBlOisvAQxoYdGoQync7Sr+GjbcPiLM1pNdbMlCaEsbnsCDgCS4WAn8Faqsftg00DAkY4bBY3jQ4PvWoQNAOWWmoxBoFZxvTmSgXrQl1ZMdYq9BbKmFmT6R7UoaRviK7QiaSDP2A26kSNzbMJqjdjK8aE0ElYhT7pygxiVaExVVobfe0n+vL0uIDNlQkayaR4zMwFR8ARWCAEfAVrgR6Wh+oIxBEYOyXrHB83jcoRAXi8IzbW5gmVsZCmBHOCjmLOYx7CWuSwGLOcXpw95rF4ogx5rfaFUgni9K691hFwBFKDgBOs1DxKH8iSIvAkTOLUITsxp5kSifk0IWlsIKgwxTLZNqY5kl3FnMfsKaomZhbrxYuOgCOQegScYKX+EfsA04yA8YljTefKAOYEl1jkWjSlCbNEGzOOFWfxMAmZKa6ossu6EJJ18D4Btei5T/oekbVywRFwBNKEgBOsND1NH4sjcBIElAGcpOVTbqMcRcNDniVOszHhtGIMHYay+lcNd71inaKMabzoCDgCqUfACVbqH7EPMM0IyDrJwXWycT6DuZ8AjxubRWWCeqCo1ySH1pcJkyxn19PjJONkMKqxM1jaVh+Rn8GaBKPrHYFUIuBvEabysfqglggBnbyf8YAncY4YrYkVjwwSt9bEBJRJahJamltroppY0cwQZow/Zhl2GsqYaV/cVYg1pOiXI+AILBsCvoK1bE/cx5sqBGw6D0c1iT2ENvMsT4p/kv7pjWV6j1obcar9m0ViStVgyeVnsAwfFxyBZUDAV7CW4Sn7GNOGgE7YrOsg6OoOApO6zuK23oMGmQtBN60QFAsVsKeobadgFBrPYo9NrCN1bkrrV2NDr1V2Rx82MWqioaqZOgnNVNZ7WBvqJ9mHrdQ/GoSYnzCAZK051yo1ZiwIXFprNqFGe5zkMGzosiPgCCwKAr6CtShPyuN0BI5AQCfp0MimcKr0knk+MdNTFbZKyslWSZvpGus9NJvSr/YYhqoewuZT5LDhFLNJVdbcBLPUmFWfrDWzmMGxgjcnLjgCjsBCI+AEa6Efnwe/7AgYR1FBJ3JTgg4zvU72yKY3jcJn+hnRPK596DYKR9ZycJL0EwvMGiYtrSopTHKStExqrCOLExsJ9OCyJrP0QiOzVz9h0WVHwBFINwK+RZju5+ujcwT2EdDJ3qb8WfjBKWJn/c7oU8OLtaJ4WmFP8kMXsV4ohjGHgSHHatUSfaxKnB72E/p02RFwBFKJgK9gpfKx+qCWBQEmch2qCdNHHpvphQhE1/RWYW3MQ1h1XPlpcA5Gc9wwntx+SqcK7ymC9uTRugdHwBF4Ngg4wXo2OHsvjsDTQkCn8EneY1N7yGmm0IKkt+m9JO1jGutL47EwVLCitsJYzSY5iemtlfUy1mBGZcyJFrnrlXSCHqXew9rkEJI2ob3LjoAjkDIEnGCl7IH6cJYLgXDWVznUhMTFak8AEG1P0CrWxJxYVKqxYsw+LFrbUBnKRxqExlNk8xPSI1PGGk6PPPQQa+hFR8ARWAYEnGAtw1P2MaYcARhAkgTo9B9O82oT2T4mTKHBjDCp5xmN1Uy7tr6O9KCWoVks7GP1flxj69cE7V1Hod6saqxzaqcbjG3lSkfAEUgTAn7IPU1P08eSWgRstg6ZCrLmWNJsUiSLiqb1/UPZFLlCZkBtSBEUrKRmCogYj3USa6LR6p0qaxL2ZbWmRKNK7qrUYuhcNdYkrDoVeVKPyX6JQZXhPYwBg/AKq1x2BByBZUDAV7CW4Sn7GBceAabqcAzhpK5yWIscGmhVzEPMfnrRujBhun2yloZ6UYVg96RlOjSGtg42HYPyUTgCjsCxEHCCdSy43NgReG4I2Jw9JYLQJpza0es1pe2zqQrZVRhhKD+bSJ5vLzyO5xuA9+4IOAJPGwHfInzaCLt/R+A0EYCIKBcJ77N0oPazWI61ecLmY32qMuY5VpzS8GlUTeI9TxLVk7R9GmN0n46AI/BsEHCC9Wxw9l4cgWeKwP6C1cEyic7x3McSiEn6U4x4bL/4D8lHKJ9i16fuyuJkUCYnewmHPMUs2dA1joAjkA4EfIswHc/RR7F0CDB/h1N4OP6xeuZ4neZjtaoMm4dyzFirxirDVrPL03uf3c/TtmTIXILgSROy0/xpB+n+HQFHYK4Q8BWsuXocHowjMA2BE8/uOB07wT+Jw2mBJuq0o/CeMEmVwtA+EmGzTNX4fTCOgCOQyTjB8v8WOAKLgUCMnUyfmDHWS8eGsdrrXZUYzDJymoSWoYdZmpuNOrE7gspmkFbhyGGeGNK0IubjcgTSgYBvEabjOfoo0o+ATcNHTthjDWhuHgDLbGJ6LZolZmY5HWK11Iax5qEHq0p6syp1hQGapDLZUC3H6k9LaaMjHs0uhmeLMxYAejKTqVLtaaL2drdxIagxVX45Ao5AmhBwgpWmp+ljWQoEbG6eZbRM9pgpFVBZWx3LySwdqU3YxeytYm2J7SmFd9yQzD4MKRxjGGdM1iam1KI5dMERcARSj4ATrNQ/Yh/gsiOghIC7CjE4JuljZk9ShFtY1yaEDscq1cCqjKmEDZ+xTDAWD11rSGFgyHrNEljoahZ7t3EEHIHFQsAJ1mI9L4922RFg/lYIorl+pkNUIWQ2qR8wgafyapv1MrbrUBmTYw1jRRt7rNUzKCa7DjUKZjIM4tcrWeUaR8ARSD0Cfsg99Y/YB5gSBJiqmci5zzgeZQA6909iADO6OpbZlAiTVTaiZNXYTnVQY6vmSslw7CIwlecqQg/GEXAEnjYCTrCeNsLu3xF4DggoEYnRkbDIlP80wprkdpI+jCG0IVQrqhAGH7Z6NrIFY92FGuSwqDaqiWqmQZ1saF244Ag4AguNgG8RLvTj8+CXEYHZqYZN3jrNWzFEDW+zOwwbTpfH9jW9idWG8TyJH3N4WkIE1eNNVY0tjBBZL3rUUdhYTMDgtOJxP46AIzDPCPgK1jw/HY/NEXhSBA5m/P2/+XxePVK2Kf9J+3iG7Sexk6c9Fu1Xe+FuYZgABqEc2lD1tMN7hk/Au3IEHIFZEXCCNStSbucIPF8EmKRJmMQsbhO5zeI6f1sRAxIv6V1jtiJKM6ZKZRtX6FmVamB6lCrHGpoHFbDRiyKWaqzZntCbk1BQS60NLbVtzJJi7NKGMSXFGZubmXoIvakcGqCJKWNFnKChibbirg9Onasy7Eibq8bvjoAjkBoEnGCl5lH6QJYOgSkTM1VhbTipHwum0Ik1THozM6qQ1UCV3PWy5ghqFmqeUE6GFDokgLDosiPgCDgCzwABP4P1DED2LhyB00FAaURIJkwOSYwpY71O0sfMphfVyRTKYr2Y5djYQuX0Hhe0ViFSELirsKBj8bAdAUfgBAg4wToBaN7EEXhuCIydp6fQnRMEql2M7ShUTupUmZPVWpOk5gSxJZvg37qI1c6ut5hVCP1E7h8fbA+rpsg22Ck2XuUIOALpRsAJVrqfr49uSRFIcoskdUhCk2wVsxnLG0Kl9mKasQ6tNub8uMXp1Me6jnVn+uN25/aOgCPgCBwLASdYx4LLjR2BhUEgZBJKMmJUIxxJaDxdHzpBjhVjbZNu1T5sFTY5sSxxHD5opcWY0vwTmF6meXoCHT095+7ZEXAE5hYBJ1hz+2g8MEdgPAI2YcMeQtnIhCqtiBfVmPF4vxO0tIo1DD1PaHRIbfYqWPGQ0TELsZC0NZ5D56F8TPdPav4cu37S0L29I+AInBICTrBOCUh34wg8EwTGEotkz8kJXljS8ZdSYk1wq9ekHifZS99R7zS3tqqx4okF/IRuQznm87R6jLkdW5wSxlh7VzoCjkDKEPA0DSl7oD6clCPAtG0zt1EWBDKIqh6ZrEshk0DmQml6isAUedpP12Q+VW8gml6bcLdekjbaNnRuxggmWxeqiWoesy51a06sF+3aAqCV2linVrQm6t+KJpgT05hgTZLekjZoMANVa6U2FDXxGIL2hRDBP0RvfkIh1p0WY8rQ3mVHwBGYfwTG/699/uP2CB0BR+AZIBCjDvTIrD994qfJpFbaUA30/gyG8LS7GIuGIqB3MzDhaYfk/h0BR2AeEPAVrHl4Ch6DI/CkCOhcbl5ic3msNlk0+1gVDlVjBtbFUxWSYRzZHU3CIKd4mFIVejiyRzOgVdInGr0ww4DL7F1wBByBZUDACdYyPGUf47IgwIyenMhRMv5oij/eHB96C+UZ0dR+1dj20SyYGZ2EZsmhhbXPRQ7HaAGMjfME+JtDFxwBR2AREfAtwkV8ah6zIzATAkz/YxnATI0jTmaWY0mD1SIcaYDNsYI5lrFGYk1MOG6Eof3s8iTyRBgaySzgzN6dWzoCjsBCIOArWAvxmDxIR+DUEGDKD+d7LSoPSPYRWoa1R/KGmEPzo3ruepk+dP40ZOuIfvFvxdPty5zjX+XT9e/eHAFHYIEQcIK1QA/LQ3UEpiHAjH5avGGsn0mMwciECdOiPE7dCfjK2CDHDmdsIGY51s/YJiiTAzc/1JorhFA/yZvrHQFHIB0IOMFKx3P0USw1AjaFGwrHncjVQ7KVamL+ZycKWHIRFWewuKuMoG65m8YiXzghCZoOcCx0Czc6D9gRcAROjIATrBND5w0dgeeAgBCWg1ydenJcJ3JkzbGkVEbvVGmtNTGNhq61yCbEZGuoeisiWEonZK6wYdgpMrV6jwzFUu3tbr2bGTZcplfLmFKLYZVqwrt5QDnW0gxUsJBiTsK2WIZFZC59FtZKlRTJT8Y1GAzQaBd6t+eFXpNmWVsENbYmYZXLjoAjsCgIOMFalCflcToC84KAcREVwrDgBGHR5JBbmDIUrKFxi7D2xLK5VQ8WsOmTmpP1hR/zGfMwSR8z86Ij4AikDAEnWCl7oD6c9CMwdi43ovAcx29MwoRYMGGQ2FDk0rWfsEkoxzxMKuJnbFXoaqxNaICHWWySHWkrvavDsX7ChkcahMYuOwKOwCIi4GkaFvGpeczLi4BNzAgmKxyx4okxinGO0E+yiynG2nCSgbrSWu5Jz2G/Ty5P90+tXtoR8rF6PGg9ppUN8FgO3dgRcARSgICvYKXgIfoQlg4BZvSxxOW4zGAScOZ8usPQzGT1mSyi0Ss00LNiqtG+sJkU1Qn0yfjVf1Ifc47BjJEc6WpGP7EAvOgIOAKLjoCvYC36E/T4lwiB5Fz+tCfvSf6TkfAYJhlPekJqr3ccqk+KqpnU6lh6cxtrNUkfdq3xxBqOLUYh799CA1WFGpcdAUdgeRBwgrU8z9pHmjYEZmcATzLykHPgJ9lpUqPdxRqiTGpoq82ViyQNniRy7THmU3vU7mLO1TJmPzZsa4g3axUTzGa6oMOfbuO1joAjsIgIOMFaxKfmMTsCc4GAcZEZWULMjCIZClSJK71Od2D4jDmkO+1R9Qfdyt+Y5ezF6U6O9BzGM3unbukIOAJzjoCfwZrzB+ThOQKCAJO0TcM2YQtTmHAc26p07scDGs23pM21Yej2SKCtX22lXSDrZc0PFMJXkE2vPZpSi7H0UShpYpbW1oTQIUospxhbq1DQ8EKN+olpYh3FimZsesIAXhsO+ii0x8feNU7VW48Uuax43LFYGC44Ao7AHCLgK1hz+FA8JEfg1BCwaZ6JPDxRrvP6ibsRXhBdUzxQr7UqWNGaJDVWNaMwiwdszCyUZ+ziZGbPrKOTheetHAFH4Bkg4CtYzwBk78IReCoIGG+Y5N3YFQZqnFwjQZ9Uxhwe2ZHZJy1VE94tmKTxFD9WFRNwQvyTXGmt9ahtTWmurLlCYUUzmFGYEknMg8bwhN3FfHrREXAE5goBX8Gaq8fhwTgC4xGwmVjnfi2ONz2sjXGFWFFtxyoPuzlUivWuzcc6MSWCydapKvUedhCzDKvGyse1H+tElZOCiQ0ZY7OM9W5PKuwFpepDpcuOgCOQbgR8BSvdz9dHl0IEbKqOTe2xocYYAK3sDJZ5sCZTXCWNrdVYYYor7DUqu5vz6a3GdjSL0vyroL2YcrqHKSFZlQlTXNEdZmo5Y9dTvHmVI+AILAoCTrAW5Ul5nI7AoTPjs8Chk7pZ6kxvRWpnme/HmsU8a9GUCHppX8gIdt+vO1CGlhbbJAHjWWKe1PxIvQY53WwWG4Nao53eZHrt9GC81hFwBOYWAd8inNtH44E5AmMQONZkzOyuEzyOaBgech/j+jRUyfBCDbJdJ+4ND7O3NWPtVxua0vxobVJvBgiGZKicLodNwgCmt/JaR8ARSAcCvoKVjufoo1hGBKYQAqsShhWlckADwWKXEKSQVTkjarPYW49H+pzFcrpNMp4p9lplIBwZ3uwGkzrVvpIIJ8OevS+3dAQcgYVDwAnWwj0yD3hJEYgRhdhyFLVqoOjY7I4SS71QQrC4c6GhSmUTtK35oTb0ZkWUZqMG1lD13PUySyuisaNgYVuTsTQZQTuNKdGbxgzC8MyDmlFl9mFb829tQzNzokJYlZTR2GUNtd/BYEAVsrJbqzW31JpskaAJ5VgrLzoCjsD8I+AEa/6fkUfoCJwcAZukEbjgVbaINYtTZQZ2tybGCVRDUS+KCDEz1dB7WKVF7uZB26of1VutGpvbUMCeWq5QaXJSrzFoK8y0qPamtOYmgJvJCLi1hiqHHWkV95DFhs1ddgQcgWVAwAnWMjxlH2MKEWBGDyf12Aht+g/12KMfWxWahfKRxmqgd/wrEaGoGlxNElQvdgeXGmtJh4ZsgkaFJgwvVhtWjZXD5qE81nnoIWmstQRAld6TTrRKGa2GGvo0D0mlaxwBRyAFCDjBSsFD9CE4AuMRCCd1ZC4lCtxVsGbJYmhsZiZQixxrpbWmRAhltVeN3cUi4Ezq1jxbDKbRLuxO2ymRqFnMIOxurIE5n0WIebMinXLpZiiC6REoxjwnNTEDLzoCjsAiIuAEaxGfmse8vAiEs/V0FHTaZkbXa5IxtVSp29A5evUQa6j2qgw9h/pkE621e1LQGKxh0ptqkiGhTyrND4K5Sgphw1AOm4+VzZW2oqiXGVOkKp/P6y4hx7BUMAMXHAFHIPUIOMFK/SP2AS47Ajb3IygWzP0mz4JOSD60rfmkeSiP9WZN1Di00TWe0MmR3sLmyGFsVpUcHWZcqleB+6Tm5scENTa35so0MVeq584FtdILWR2qt5hzK7rgCDgC6UDACVY6nqOPYokQsNl9ljFHU7zM8eGkbjM9Hkyvgt4xCItmpg2pMgOLwXxqrepjsiq1bcyDdhc6Mc/mKqYJi9ocjXqYVDQ9gsnWaSyk0L/ZmFKbJ5ugVyV3LuzRwCOtO/OAoAahxmVHwBFIDQJOsFLzKH0gKUdAZ+4TDDKa6GWmV4G7TfYIXKpBUOdmYFXWqWooqrHeza0KamxVsaLpVWDvDIOwR/TqRw20ud7VjLspzUZboTdN2MT0sVr05jN0q20n3ZNOQv/qkM1BHRpVyDThDs2C6U5y63pHwBFIGQJOsFL2QH04qUUgZABj5/hw5IVCAft+v18ul5nake2uZnjQiyITP3f1z/2gJn4WWxuqMTbaRO31bk60Vu1NiYBee1GlyepT7c2V2ocdqUbbqt46MuJiGvWG55hG9erEZGz0Ms10QSO3UBH0MrcUkemdB9Futyk2m81arRbrhaJ2hCVDMBzQ08RqpwfjtY6AIzCfCDjBms/n4lE5Ak+EQKfTsemcqZppXqmGEhGbuXUW505nelcBA7XRe1g1NqyYQVg0OWyobq1TszGBKonggH9MElRPK6MmYS/IRrxm1ENDY5ZaZDnKYtAg9W4BxFrpelWj0dDAMFtZWYnZxIrmP6b3oiPgCCwoAk6wFvTBediOwDQEmNeLxSJ3GAZkq1QqYc0UzoKWTuTcVVAv0AUrmqBNrMoE9EovtK2ZJYvSR0SSlOhYKxNCYqT+tUr317StulU9dxVUaQamNI0aGL+x2KyhNbEq2k4iZGGc2oU2V73K5hCh1+tBarHEAJ9axYLiJAJnMbjgCDgCqUHACVZqHqUPxBF4jIDO6EztupTCNM9kD7tijkfgwjQkBBRVz12tKxlwAAAvhklEQVT15kGdahPrwNqqn7AJshWtlSqVahjh0E5Dn7GG1jxmaU3UgFYhAbJaBB1vqJkuT/JDzGFDjRONjksFu5tlpVKBKdIWsoXS2ZUh44IjsAwIOMFahqfsY1xGBOAWXEztzOvdbpdpHjoyiUDEqIwRCAPONKGl1hrLUYG70Y7QAD0XmmQM6pxabYhgJ8Sx11bqKuZZlTEbU8YE9a/K0GdoBmJh0eQYN4q5IqpQQxG0W60WrVg+pIr9wZiNeXbBEXAE0oqAE6y0Plkf11IjEC6ZsD/INK8ciylfuYXeQ4zQqJI7bIAq5QRqY5pYk7AYs9QmptSidqFK5LErQ1gqoQmNaaKBUculRXMes1Q9d/ybsQooEczearVJjEiZn/AMlinVj3oI7xiAOYCzZAibhF2trq4SCZf1a05UmKSPmXnREXAEFggBJ1gL9LA8VEdgVgSYy5nylU6tr69zJAiKQFF5AF5iMzp6NKrkHpqZHBPMeGxMMWO10SbJ3kMP1jBUWkOUYw1CY5OxHEvU1CDpJxy4OTEhjMGUSSdaBdpQKy4MOAyHEr5lrVxwBByBZUDACdYyPGUf4/IiwNoV6ygsaLGmwmTPFWJhpEH1VgxtZpRDD6GfWI/mLbQ35SRBHepdG3K3XkIZD2qgro67aGQ+x0YSq7WOVB+r1UUsbNh2JFMDVI8HYU3G+g+VWMYchrUuOwKOwPwj4ARr/p+RR+gICAI63TLvclkRpWoQdL2EIrISC6Z2lKydoOEuKyrRmgrNk06kj8Sl3hLqfYU6CWvpKCyGshljw0XRNKHZdJkmtJ1uo7Vqpl2E3SFrcawTqkK9RRjThzZjZfCH2tJcLwhuiHzMGzY4iSljxbG9uNIRcATmGQEnWPP8dDw2R+DYCNhszQytFy4Q9M7EH3pUY72H+lAOa9UPtaFSjZMa9GYfOgybH2kQa4h9ssnYrmMN56eYjH9+YvNIHAFH4BQRcIJ1imC6K0fgeSIAzxhLNUKlyuEcH9ZOiV6bTDI2PcJY56FSe7EmUzpNViX9JG1CjcUTNpy967BV6NbkWVzhZBYz8+mCI+AIpAMBJ1jpeI4+CkfgEALM6CxW6XqVzu7cVVDSoHc0M07/2tb60OaTiqY3IWweykQYc0UTjcrahkLYVvWqSToJW6k840iTDU+goS/tjjvN9T7Jz/TaSa1c7wg4AnOOgBOsOX9AHp4jcHIEIB96hS7Q6NyvSophbUxe9Llf49chM7Rw4OFITzxMTlaFfkxWahvr7sS9mFsXHAFHYIEQcIK1QA/LQ3UEjkbACBPTuV4hvQjXtEJfWIbFpGxutepI+5gHiwG9udLw0ITeQsuYk5hlsjapwbN2N8Vt2HvSw2lpJvUySX9a/bofR8AReF4IOMF6Xsh7v47As0DA2EzYWajUCT7UhJYx2cxUSJID05ileUAT1ppsBicQkr0c6YR+Z29lQU5qMkkfhnFkj9ZL2MplR8ARWHQEnGAt+hP0+B0BQUBnepvvEVis4tLsAAiqSc7lqrGGSTTHVo1VTm+b7NrCDhuq57HGSXsLY5K96hm+djHJLAzAZUfAEXAETgUBJ1inAqM7cQSeEQLKFYwoICjJgEgpi7IqDUjt9aiQ8YwwVuMoodKcWBPThGa0jelj3qwWvV7WXD1jwEWV6VWgFn1MSXGsEj0eYlXanfJLq9KOKIY9hrJZatdhVSwYrVL/YZXqrQsEHak+AmqTXUzpJfTssiPgCCwWAk6wFut5ebTLjoDO00kUkpM0E7nO5VZF0eSkh6eqiUVCX6oJOw3DS9Ye2SR0ZfLY8Y5VWpOkEAZGbdg8lLXh2MiTPl3jCDgCqUfACVbqH7EPMD0I2OSt83pydrehmiUalUONmR0pTGo1ST/dobWyyE2jgt6tNvRmlqESOdSHDdGHVbFWxyriNvQctg31se6oCjWhZejBZUfAEUgrAk6w0vpkfVzpRCA2T1M0TVJQCFTPPZzvx6JzpMHYVlOUFlLMc6w4xYNVqasTNMSDhYE83cNp9aJhqzfr3QQblAuOgCOQYgScYKX44frQ0oYAp3n0QI+yBO7T5+xYbawYojOddoSWpysTknY9Jbawx0lmBoUaaPHEg5rUSxjJ2LCtYbJrqwqduOwIOAIpRsAJVoofrg8tnQjoVB1O2CabwMhNRjA5OfGfLkbm33pU/1Y0A+uXqqTSamPNKY41Nv9hw9mVYauxcrLTmPNYESeqCRuiCYtjO3KlI+AIpAYBJ1ipeZQ+kKVAQGdovScn9RCC0DKUQ5sjZW2IWayvSfojHZof9aCcw5RHNk9GEjbBp7o1MyuGZlYbU04q4uRYEYb+aXjctpPCcL0j4AgsFgJOsBbreXm0S42A0oXwHsIRTuRJG9WE9kfKODxBq7FuNbbQm0V7ZC9mGfMceotVJYvJAJI2aKyv0DlKrlCTbDu9NmnvGkfAEUg9Ak6wUv+IfYBpQ4DJXofEpM6RLJ3aUWpOJhX0qJaNHCVXSAKslbnCAFnvCBhwWdFcqXBcPa5iHrQ4SR8az2IzKapYnFac5NP0ZjljnDF7WuFKlQg8jsFgUCqVwnGZZx6c9Zs0cI0j4AgsKALjv1S6oIPxsB0BR0ARiE3YsaKjNB2BJFuabu+1joAj4AgkEfAVrCQmrnEEUoJAyKtCOTk8pxSKSYgD8nTQkjC6xhFwBBwBQ8AJlkHhgiOQKgRCcqAydyMQJsTGrDZh25hBOoqThq+js1qE1EORjgfqo3AE5hAB3yKcw4fiITkCp4CAsYRZfIXGTilmQcxtHAFHwBGYjoATrOn4eK0jMO8IJPkQbEkJk94ZQFIIRxUzDquWU1ZIuauwnCD4qB0BR+AJEXCC9YQAenNHYI4QMCJFTEabQuWxYj1xw2P1Mp/GRq0iljX+Fcj5jNyjcgQcgTlBwAnWnDwID8MROAkCxgNijY1dhfophGlKVehh2eRJ8C4bDj5eR8AROAECTrBOAJo3cQSeMwLwIS6mf72TY0kDokhSJWRdd9G7xRorWhO1NzMtjjUObZZBFpSj69QHC7z4xDd3HlmhUFDZlGpw6v26Q0fAEXhmCDjBemZQe0eOwCIhYPP9IgXtsToCjoAjMDcIOMGam0fhgTgCp4FAtOCyn+r9xP6cXZ0YuuM29JXC4yLm9o7AoiDgBGtRnpTH6Qg8FQR8K+qpwHqUU6ewRyHk9Y7AwiPgBGvhH6EPwBE4FZJ0Kk78WRwLAcf8WHC5sSOwWAh4JvfFel4erSNwCgjovG6LKD7NnwKm7sIRcAQcgcMI+ArWYTy85AgsDQLOq57LozZe+1x6904dAUfgmSHgBOuZQe0dOQKnj8AJSNIJmpx+3O7REXAEHIG0I+BbhGl/wj6+VCPAcki/34czcSGTUQmBEQ+HQ9VIRTZLMVQuLiSMZWzwOl6q1EBXibhPsh/rRJtbW/OGE1VOapXUm5NYAKGfUE56cI0j4AgsOgJOsBb9CXr8jsAhBCZN2ydgCYf8zkdBmWIyFuMx4fBNmbSfpLHmYVtTTmr1hHrtK+zxCR16c0fAEZgHBJxgzcNT8BgcgWMgwEysUz73sbOy6sdWHaObuTRN5aBAOq3jmsv/EnlQjsAzQsAJ1jMC2rtxBJ4QASVVzMQqzOjtuPYzun1eZlOIiMJiKBHhCcZOc+1C7+ZzSr8nhiIM72n4P3Fg3tARcAROBQEnWKcCoztxBJ4bAuHcbPwgFk1oE6tarOKkLUL9AuNijUWj1UeTmge0iI/AY3YEnhICTrCeErDu1hE4ZQSYg+FPXEm/06fn6bVJb/OsmTQWgyU0MOXsI7LmYVtTzu5nRkv1bP7p1OQZPbiZI+AIzC0CTrDm9tF4YI7AeARs7l/CyXjSkA2T8ZDNnzY2kFhx/uL1iBwBR+DYCDjBOjZk3sARWFAEUjCLTyJStvajY1QzU87+vGhubWml3kw5u5/jWmpHx23l9o6AIzDPCHii0Xl+Oh6bI/AYAZ34H5cjCWU+n+dkkpIJPaLEbM2FzMkk9GGVFmNOrKgNuaOZbmlN5kTQmGNhm3L2IBm1GisUKptydj80pxWPRpvog0h6U8+WvUwNThD27IG5pSPgCDwzBJxgPTOovSNH4NkhcAJOQHDa6mRtn93YFrwn508L/gA9fEdgVgScYM2KlNs5AsuAgLOr5/6U/RE890fgATgCp4KAE6xTgdGdOALziMCTTNW+0PI0nuhYVFGO1T+NANynI+AIPDME/JD7M4PaO3IEnicCs0zhRsjUeJYmz3NIqejbQU7FY/RBOAJjEPAVrDGguMoRWEIEjF0x9lBeQiie/ZCdZj17zL1HR+BpI+AE62kj7P4dgeePgK9IPf9ncBBBkkslNQe2/tcRcAQWGAEnWAv88Dx0R2AKAsdahTJjE6Z49qpTR8A51qlD6g4dgeeOgBOs5/4IPABHYCYEbA5G0ItmCGFj08eqjDapAUXTaHPzo4Ld1T7sYpKsPvUe2szuwSKhSdIPtbGYw17mTZ4yah2FDtBGhD15y7gzEL3P24g8HkfAETguAn7I/biIub0jkEIEbKYPx2ZUIFTGZGMD+rnlpB/VYJasGqtMmlmP1pdp5lmYMhALWxHgzqVKWplsZi44Ao7AIiLgBGsRn5rH7AicEAEm7ykTf3Jqn2I8NgL1ELZSOdRYQ5QxWoZGPWic1ioZmDlZUEEHaMGnb4A2NBccgaVFwAnW0j56H3gaEFAKYryEIRkpecLhqZ9JE3+MH9CXfaUn1u8kD2YWBhwaJ7tIaszJvAnhoKbHpkPmrsJ0Y691BByBBULACdYCPSwP1RGYCYHZZ/eZ3E0wUkIwY1/GHmKtxjbHZqx+QiDzq54+inCYhs/8DsYjcwQcgWMi4ATrmIC5uSOw+AjYdG5zvGlig5tOEUJj3exLrmOpZ9ObQxW0FtkCMMEsrZekxqrmVrCYTUiGypD1Sla5xhFwBBYXASdYi/vsPHJH4DECOn9PmcUfmx6WmNrDVqF82PBxiSaPC4elZFUsMDVAqXothq1UH9Ye7iFVJQYeGylFQyOUUzVsH4wjsBwIOMFajufso1wCBHSqnj7QUTYziiyy0R+9iyqXHWZGQ45wIR4Y5DJZ7GOXUSLrTgVdo4odWqet1qK3hqakSpXmKtZXrGj2Mf1CF41OLfQoPHhHwBFIIuB5sJKYuMYRmF8EwvkYmQvakc/nuZtA9BCafr+v90KhgMwdCtWHReWy3eEgm88V8wUa53qj7CDTG/Q7mWE3N8pUit3sIFvIViulzLDf7/Zwos5xqz4HBxdFeFWpVGo2m+VymWD2OxrSsk8Rw0qlQkPM8NPr9TTIVqtFUe3VA/Y6CpQI1HLpY0DDpfIC3YmfwWrwOnyKxK9jUZk7F48GJQK1OupI/Xgpa4FG7aE6Ao6AIeAEy6BwwRFIDwLM0EzVTNvwG2QEGAz8Bu7SHw3L5SrF+/fvw7GEA9Vq6CEBxXK50W4VSkKV9rZ3SoXi2vp6t9uFAeANS7gUDSl2Oh0YFUpkNGtra1tbWxhUq9Xd3V3u6Pf29vC5s7OjXeMTJRrYFQa0xQnhoSEwammuxKLdblO0h6FKiqHSal1wBBwBR2A+EfAtwvl8Lh6VI/CkCEBH4EbQIO7wJ8gNq1b9wWjQHfzbr361ufGA/cGrV68+2tm6+vJL3/3udzu7u712u5DNDfuDQX8orCxf2NneZvcQAqS8CoIF+4EJ1Wq1RqOh9IgiXOoXv/jFD3/4wzfffPPMmTMbGxsXL14sFov/9E//9MYbbyB89NFH//AP/0Bz2JIuULHoVa/XcUtzyBY2BIwBtWiedPCL1t64o7LhRQvf43UEHIExCPgK1hhQXOUIpAABVoa4jKzAXTKj3MaDzT9//vV//uGPzb3Wqy+9/KdPPv7i+te//N//8u//59/qxXK1UCrm8t1Gh/3D9bPn2q0u1IfVKe4wKriaLkrBgeBDXLoitbKyAltiXQrChJKlrPPnz0O/IE8/+9nPoG6EwbIWZro0hTf4BHdWsAgPQoYfWCBm+Iecsb5lq1Y8CIy5FuuJEH8Y8JHxR0N8PMYj7UPnLjsCjsB8IuArWPP5XDwqR+BJEWCShlRxhxixBAWV2Xj48Bf/6xdvv/Xuiy9e/W9/97ebD+7/5Kc/becH1/78ZWtr69HtO7UL54uV0oPNrf/nt7+sFkswnl6mn81naA55unDhwgcffIDD33/44Z///OfV1VV4FbTpb/7mbyq1Kgtd//bv/++vf/1rXS373ve+B81i4ery5ctwr/X19Xv37v3xj398//334U8aEoteP/3pTyFkH374IYSMaOkIPvfjH/9Y6OABtTK2EWMtTwrQU26vHNGCD3tLDmSsWdjEZUfAEVg4BJxgLdwj84AdgaMRYMLWhSJIEgIzOsLm5ubD+xvf/17l5z//eb1WPXfuTL6Ub2S6d659defTP3fvbfz8//6/htncjRs3Hjx48PO//+/1eu3/+49fDzODn/zkJyws/fa3v4Un0Tc86a//+q+hVixBffrpp7/5zW++/e1vs171rW996+z6GQjWF1988ctf/vIf//Eft7e3oVNnz5796quvWL66fv36O++8A+UiHsjZnTt3iPPzzz+n7X/9r/9/e3f3Y1d1nwF4bGNjD7YxGJqC+CiFWFioVauoourHBU3aSlGVu+S+/x93jXLFTUpvWoUiVDUfqK2AOhIEGpCJB489Y/cd/8Jis8+c8dhMFnNmPefiaO21114fz0LsV/scn/mrRMAU0m2elqWwuMhctdJBJJNftoSVXtfiTqkhQCACApb/DAgcTYHkqoop9R2slPN98wvnz50+9eCFC8lGW5ufbWz+ZvPU+dPf/Ztv/+fVtXf++39+9c6737j8zTxeuvj4Y89/84XjJ9YuvnvxVx998PTTTz/11FMJSfmkL/3kIdOLL76Ybs+cPvPRRx9duXIlqSjx6Nlnn3384mMJUnncldj0ySef5CO/pKU8l8pkEs4SI3I23HmmlctTk/d0mFd99SqfMKaQ9nlPs8SReu0RTY7A5mV1edVCst5WPgJLswQCIwsIWCPvvrUfWYFEltync7euD+OSV/IZ3Ce//viPXnopT4g2b27f3L6RR1Pnzq7nJxQ+eu/d//3pz//40otn8sMNt/Il+Bvbx29d+2xj/cyZZLLEoISnPHDKe/rM96Wilt7S8/XN63mv706lkOdVF84/nCyVq/IBYgZNFMvZTCYzSahKfsr34lOfTwDre1fp6uWXX37ttdfycWEuTCDL2Txgy1OuXFjpKm2OauyoPTqy/xVaGIGxBQSssfff6ldHICGjJltPOOre3O7QySVpkFBSZxNfEmsSevIpXp4nJQ/lSVI+5tva3PqD55+7/UB+0Wp7/cyp47eSsm5efPDMj3/4o9N/u/XKX/zJ8ZMPbN/e2l7bfujc+tbmjYS05KqKVjV6YlD6rEdWJx84WV/zSmVGz3D1PaoUqnEuzJTyKWGml8qUU6hT1TJXJcB973vfS585lWm/+uqr+YJX/hFimtVa2sLrwsP8Pptqzb8mvGu59isLb2cjudj+MC/Z3AgQWCYgYC2TUU/gcAnkHtzu362QKU7LbcZpnFcyVj0oym07hRde+MM3/u2NfDb459/+6ye/8fub166evLXzQ6Af/+r/HnnooX/58T//5T/+4GSCzoMnrt/47Oqnn+QLVflnhfkUL0+e8sojqHx4l6+uJwzlE8A8o8oDp3xhK1+xqudb+bp6fvohoSrftcpwGTQfCCY95IPFPNzKYTr52c9+lqRV38dKIZPP4658mFgTTs9ZQnqoddXScqqt66gWRljjUd076yKwTEDAWiajnsChE8htuMWpKrT3ukPnPa88F6n6JJXkp6SZxJ0s5tKlS1c/vnpz7dY777yTByX5xc8nHn3kpz954/3/eHv72PHv/MPfnX7qqdvHd74Un9/Hyo+5J1HlM748/cor/Tz66KN52vTkk09evnz5zTffzIOx5KrUf+tb38ozqgSvX/ziF7e3d55X5cL8JlaecuWbWwlYSWD5/nsOU5mhX3/99cwwT7BymF/JSuTK1+QT1zLzhK30k2/QZ/61hOkepMFi5bTB117ODGsOmef+Z5uWeX3tkzcBAgQOVuCw/w/rYFerNwJHQGAnetz5NDAxJc+o8vgngSbryk069XmvD54SdJJa8pQoj4USsHIqWefXH338wx/902fbN6/fvP6nly8fu7n1839/888uvfTpf135zg++v3b+5Noj5z7c+PT28WMXHnr41s2t69dvpJ+Mkmurn/SfPhO58jgqg+aZVhrkPWeTzPLnC3O2HnplVolfVU7UywRymEJqkq5ymB6SqJLhcnnNPx1koFy409OXXxVBctWXqw/vUW1H5lc7khUFajbd2qmEzjz8S9ycnXVIgMBKC3iCtdLbZ/IjCkzv3C12tMqpSG7qyS6JLMklSTY5vPDow6+88sq/vvGTRy9euHlj64Nf/vLZFy793nPPvfz33935ZO7W5vbmjUfOnt/c3vlp0BNrx86de3jjN9dy+frpM/m7hHlAdSrp6tPfJEXl8VVyUv6cThpkiLPrDyU5JULl3xXmWVfGTTkjJpxlSiknNiVPpKuKWRkt9XmslWSWpJXDtMzZdNnWUqubrujolbPGvAJ19JZmRQQGFxCwBv8PwPJXUqDuypl6KySapJyaFPJK4sk9OzUVdCpdJd+kwVPPPP38Cy988P77+b2GhJ7zZ88+ePJU8tdnN6+vnz/32fWN7a2N/HBoXrk8351KckoGSt5KqErP9fwpp6pB8WWstEk2yseRyUypzLgZLh8j5ofa87grZ/MULdNIffpJgxymq5Qzh+o5lbkkr0y+4ld1Xu8Zenq4iuUsofYok5+Wc1j1s8pVXKM5EyDQBASsRqFAYGUEcj+uW3KlqMy78kdV1mHKiSkJK3WYlmlze+34re21a1evnTt99tgDJ9bPnru6ce3YqWSdWw8+cuHa9evr62eTgW5vr23mY7vjO38rOv0kACUMpT6dpLdkoASmVNZHhylklOSkOkz7lPNtrXwFvj5JTBTLtWmTU5lCzqaTfDKY6aVNrkrn6TkNcjad5+yur5xND7ueOiSVbXo70vt+5ap2YV10+Fe678VpSGBcAQFr3L238hUSaDfsdidOYXYbrjbVINklhYSVhJu855XDvPLrDGmWPzi4fub09Zs3Un7w9PrGjc0TJ09tbN0488DJ7a07HyYeO5aP7XJViPJRYMoVj1JToS01OVXdJiHlcVQeX+VUOqzDPPGqR1y5MGksje+MvpUglWiVRFWVCWfJcIlflbHSrB50Vfu8t1etrh0esUJwjtiKLIcAAQHLfwMEVkCg3YCnOSNhJZkmyab+NV8lmFpMTqUy7zmbiNPS0skHdp5j5YHXxubG7WNrx/KvB9eO56tS+T77ibXUJ1+tHTtx4tba7fzgQp445UtXSTw1aL3nsIZIukrPKVdNha20yaCpzKlkpkyp6lOTQp2qaJWanM38qzDtNvV5pX76qpqaw7R+j3IaL/azR/ucmrbfz1jTWbVrp5XppBaeBbYGlUHbTGJVp/Jec06hcbVmCgQIrJaAgLVa+2W2owvUPbgptMPKMbmLJ9bkPffpZJdEmdy885QozXJJu3mnkI//KsIcT5LK0U66utPm82CT6p3XnVZ1+Z3j377t9HAvr8Ue9r56Wf/32s/eo+z/7LJxp/OsclqmUK/0n8PEynrPYeqnXbXGFT33Px8tCRA4/AIC1uHfIzMksFSgHn7UE5HcpHOYW3ha585dAavu3PWJXurr7GJ30/ppAqiWizXT9ou9LdYs9rDYZlqzrP977Wfa57R8UP0v9tNmmFMp16bkvdVnGlWuBtmmhOP2AK81a4XptJUJEFghAQFrhTbLVAnsCOTW2+7ruXMnPOXf7uUxVcq5W9eNOeW0ySvZK99wSmVeVZNCdZL31LT3FGavalmV03Kumh7Ortr1sAba9VQq77W3xX6+eg/V597zXBx3saZwMp/qKoWk3mxH6z81dVhzzu4kYFUCrmurZZ1d7F8NAQKrIiBgrcpOmSeBLwTq7lu38Nyb87FgglQyVt7zpauqr/t6WuYwwSuHub7d6af372rzRe+TxFNdTRun2exweuGycht31qD6n1bu3fneZ6f97F2+134W51n9Z13LTlWDDJQ2NVyCVKusQmqyd3nP3qUmXaVlvVcD7wQIrK6AgLW6e2fmowvUbTsBK7fn/PZBolXdqvNeN+mEqmqT93rNyFI5q8nh3pV754nF3vZZs+ug+7x22mzWz7LZLqtvXc36mR22Zink1F17a+1n/ST41g9Y1EeErZ8UqttZ+9aPAgECh19AwDr8e2SGBJYK1KOpxx9//L333stNen19Pffmuj3n3rz4SvZa2tfnJ3L558XffoaYfqaVOTs7bO3vuzDtcHG4/XebfnJ5az/ttlUeYKH13wrpvNjbKG1K08d41T7bl1cicvsOVrtKgQCBVRcQsFZ9B82fwFr+NM3bb7+dm3R+Ob2+cZV7dt3O60ZemSPpatfsMq2sljPTxcrFmtklX/HwoPq/v37u9aoWodqqiz2HrTA9VZV5T7rKezZulr3udQKtcwUCBA6PgD+AdXj2wkwI3LNAPgTMTTp/jua5557Ln7XJ3wyuX0ivb1zVZ4Wt09zL86rD3MIXX/VtoaqfNms93LWw2OddL9m1wayf1ib1rdwKqczM22t6bS158b1dOyvUtbPKHJZk00vNtM/F9qlpXU2vavXpMP80oX5HI5/t5kPe1GTX0jgLybXVcteeVRIgsBICnmCtxDaZJIGlArkr5978zDPPJF3lG9NXrly5ePFiUleei9RnT2mQe/bs+uldP+W6o08rq/1izayfPQ73c22Nu9jJ7NrWbFbfJrlrfc4uLrwuidjioKlZ1k/q88o08r7rhcsq71z3xSV1mNHzzxHyng6zO3mlkNeyTtQTILCKAvf8/4tVXKQ5EzjCArlVJ0slUV29evWtt97KLfyxxx7LZ4VJV3k00p7rtEIoWkpohXZ3r0Krv2+3WQ+t/312mMunl7Ry67YKrb4VZv0vC1LLglfrf9ZP6382sWXt6/KMkvCU3cl71dSPMmRW2a+8cnk1yNn6s4+t/1aYzcQhAQKrIiBgrcpOmSeB3QVyJ07GSpzKbfuDDz7IE6wUzp07l3SVV+rbPT6F3NSnveTaOmwBYnr2MJTbDPeezLL5z4JUa7YseN11uDSoTup9WT9NNc3Cnve8UpnL88pVVUhl4ldeOZz+UkO1rEv2XrizBAgcWgEfER7arTExAvsS2Ll137l5J0w88cQTSVQffvhhnpTUxfUQJffvO09MvpSudu29ukr7OluHu7bsWTmdTyu3CWSSy4JOc5gtZ9m6FjufXtjO1uV7jDubWxsuhVbO1tTuTCvbhQoECKy6gCdYq76D5j+6QH1EmG9f5XlVUlSel3x655VskcPcwvOAJJUp7HEjT3RoN/4GumtlnV1s3K7aT2GWVO56SRuuXTi7pDXYu741mz3Jm121z8PW22L7mmcaLL5qI3JJTrWHW1VOZTNvhcXO1RAgsBICAtZKbJNJEthdoBJVvW9sbOR3sPIsJ7fwvOenR/Pv1HKq7vGpzKuCxSymtMO0bMNU5bSmndqj0LpKmz2unTbbo7ddO1m8tha4az+13jo1nU8odm2/n8rWT2bSyrMLa5J1Nu/1yqAJu3nPYdrnfVquytZn7eOsW4cECKyQgIC1QptlqgTmAu1+XBkrh3m19JBy3bZzt66oUadSn46m79Vs3vvy47p28Xyrn3U4PWxtFi9vNbM27bD6aYdpP+25XT4rtDatEJBZm/0c5vLqoU2gFWaXz+rrwrq2bUEO8wQrF6ZxnZqWBawZqUMCKycgYK3clpkwgS8EZjfyL04sKS1rf3+BY3GQZf23zJdLlrVZ7G3/NS2gzC5ZNtbe7RevWtZ+Wf1iDzWx1r4VUp/y9HC2BIcECKyogC+5r+jGmTaB+xGYBp3p9Qd1g99/P8siSM1q2dn99z9d3VcsL5vMHt3edZ53bbBH504RILASAp5grcQ2mSQBAr0FprnqoPJQ6/OgOuyNYjwCBPYt4AnWvqk0JEDgfgVasJh1cFA54177X9Z+Nr0DPzyo9R74xHRIgMCBCwhYB06qQwIE5gLLgsWyoLOs/bzfgz5eNu5BzbP6WTbKQa9GfwQIfJ0CPiL8OvWNTYDAUAKLQU3YGuo/AIsdSkDAGmq7LZbA71ZgMUDMxjvkeWI2/0M+25mtQwIEDpWAjwgP1XaYDIGvR2AWLNok7jVh3Gv7NtDvqHB/61pcxf318ztalG4JEFgJAU+wVmKbTJIAAQIECBBYJYH7/3sRq7RKcyVAgAABAgQIdBQQsDpiG4oAAQIECBAYQ0DAGmOfrZIAAQIECBDoKCBgdcQ2FAECBAgQIDCGgIA1xj5bJQECBAgQINBRQMDqiG0oAgQIECBAYAwBAWuMfbZKAgQIECBAoKOAgNUR21AECBAgQIDAGAIC1hj7bJUECBAgQIBARwEBqyO2oQgQIECAAIExBASsMfbZKgkQIECAAIGOAgJWR2xDESBAgAABAmMICFhj7LNVEiBAgAABAh0FBKyO2IYiQIAAAQIExhAQsMbYZ6skQIAAAQIEOgoIWB2xDUWAAAECBAiMISBgjbHPVkmAAAECBAh0FBCwOmIbigABAgQIEBhDQMAaY5+tkgABAgQIEOgoIGB1xDYUAQIECBAgMIaAgDXGPlslAQIECBAg0FFAwOqIbSgCBAgQIEBgDAEBa4x9tkoCBAgQIECgo4CA1RHbUAQIECBAgMAYAgLWGPtslQQIECBAgEBHAQGrI7ahCBAgQIAAgTEEBKwx9tkqCRAgQIAAgY4CAlZHbEMRIECAAAECYwgIWGPss1USIECAAAECHQUErI7YhiJAgAABAgTGEBCwxthnqyRAgAABAgQ6CghYHbENRYAAAQIECIwhIGCNsc9WSYAAAQIECHQUELA6YhuKAAECBAgQGENAwBpjn62SAAECBAgQ6CggYHXENhQBAgQIECAwhoCANcY+WyUBAgQIECDQUUDA6ohtKAIECBAgQGAMAQFrjH22SgIECBAgQKCjgIDVEdtQBAgQIECAwBgCAtYY+2yVBAgQIECAQEcBAasjtqEIECBAgACBMQQErDH22SoJECBAgACBjgICVkdsQxEgQIAAAQJjCAhYY+yzVRIgQIAAAQIdBQSsjtiGIkCAAAECBMYQELDG2GerJECAAAECBDoKCFgdsQ1FgAABAgQIjCEgYI2xz1ZJgAABAgQIdBQQsDpiG4oAAQIECBAYQ0DAGmOfrZIAAQIECBDoKCBgdcQ2FAECBAgQIDCGgIA1xj5bJQECBAgQINBRQMDqiG0oAgQIECBAYAwBAWuMfbZKAgQIECBAoKOAgNUR21AECBAgQIDAGAIC1hj7bJUECBAgQIBARwEBqyO2oQgQIECAAIExBASsMfbZKgkQIECAAIGOAgJWR2xDESBAgAABAmMICFhj7LNVEiBAgAABAh0FBKyO2IYiQIAAAQIExhAQsMbYZ6skQIAAAQIEOgoIWB2xDUWAAAECBAiMISBgjbHPVkmAAAECBAh0FBCwOmIbigABAgQIEBhDQMAaY5+tkgABAgQIEOgoIGB1xDYUAQIECBAgMIaAgDXGPlslAQIECBAg0FFAwOqIbSgCBAgQIEBgDAEBa4x9tkoCBAgQIECgo4CA1RHbUAQIECBAgMAYAgLWGPtslQQIECBAgEBHAQGrI7ahCBAgQIAAgTEEBKwx9tkqCRAgQIAAgY4CAlZHbEMRIECAAAECYwgIWGPss1USIECAAAECHQUErI7YhiJAgAABAgTGEBCwxthnqyRAgAABAgQ6CghYHbENRYAAAQIECIwhIGCNsc9WSYAAAQIECHQUELA6YhuKAAECBAgQGENAwBpjn62SAAECBAgQ6CggYHXENhQBAgQIECAwhoCANcY+WyUBAgQIECDQUUDA6ohtKAIECBAgQGAMAQFrjH22SgIECBAgQKCjgIDVEdtQBAgQIECAwBgCAtYY+2yVBAgQIECAQEcBAasjtqEIECBAgACBMQQErDH22SoJECBAgACBjgICVkdsQxEgQIAAAQJjCAhYY+yzVRIgQIAAAQIdBQSsjtiGIkCAAAECBMYQELDG2GerJECAAAECBDoKCFgdsQ1FgAABAgQIjCEgYI2xz1ZJgAABAgQIdBQQsDpiG4oAAQIECBAYQ0DAGmOfrZIAAQIECBDoKCBgdcQ2FAECBAgQIDCGgIA1xj5bJQECBAgQINBRQMDqiG0oAgQIECBAYAwBAWuMfbZKAgQIECBAoKOAgNUR21AECBAgQIDAGAIC1hj7bJUECBAgQIBARwEBqyO2oQgQIECAAIExBASsMfbZKgkQIECAAIGOAgJWR2xDESBAgAABAmMICFhj7LNVEiBAgAABAh0FBKyO2IYiQIAAAQIExhAQsMbYZ6skQIAAAQIEOgoIWB2xDUWAAAECBAiMISBgjbHPVkmAAAECBAh0FBCwOmIbigABAgQIEBhDQMAaY5+tkgABAgQIEOgoIGB1xDYUAQIECBAgMIaAgDXGPlslAQIECBAg0FFAwOqIbSgCBAgQIEBgDAEBa4x9tkoCBAgQIECgo4CA1RHbUAQIECBAgMAYAgLWGPtslQQIECBAgEBHAQGrI7ahCBAgQIAAgTEEBKwx9tkqCRAgQIAAgY4CAlZHbEMRIECAAAECYwgIWGPss1USIECAAAECHQUErI7YhiJAgAABAgTGEBCwxthnqyRAgAABAgQ6CghYHbENRYAAAQIECIwhIGCNsc9WSYAAAQIECHQUELA6YhuKAAECBAgQGENAwBpjn62SAAECBAgQ6CggYHXENhQBAgQIECAwhoCANcY+WyUBAgQIECDQUUDA6ohtKAIECBAgQGAMAQFrjH22SgIECBAgQKCjgIDVEdtQBAgQIECAwBgCAtYY+2yVBAgQIECAQEcBAasjtqEIECBAgACBMQQErDH22SoJECBAgACBjgICVkdsQxEgQIAAAQJjCAhYY+yzVRIgQIAAAQIdBQSsjtiGIkCAAAECBMYQELDG2GerJECAAAECBDoKCFgdsQ1FgAABAgQIjCEgYI2xz1ZJgAABAgQIdBQQsDpiG4oAAQIECBAYQ0DAGmOfrZIAAQIECBDoKCBgdcQ2FAECBAgQIDCGgIA1xj5bJQECBAgQINBRQMDqiG0oAgQIECBAYAwBAWuMfbZKAgQIECBAoKOAgNUR21AECBAgQIDAGAIC1hj7bJUECBAgQIBARwEBqyO2oQgQIECAAIExBASsMfbZKgkQIECAAIGOAgJWR2xDESBAgAABAmMICFhj7LNVEiBAgAABAh0FBKyO2IYiQIAAAQIExhAQsMbYZ6skQIAAAQIEOgoIWB2xDUWAAAECBAiMISBgjbHPVkmAAAECBAh0FBCwOmIbigABAgQIEBhDQMAaY5+tkgABAgQIEOgoIGB1xDYUAQIECBAgMIaAgDXGPlslAQIECBAg0FFAwOqIbSgCBAgQIEBgDAEBa4x9tkoCBAgQIECgo4CA1RHbUAQIECBAgMAYAgLWGPtslQQIECBAgEBHAQGrI7ahCBAgQIAAgTEEBKwx9tkqCRAgQIAAgY4CAlZHbEMRIECAAAECYwgIWGPss1USIECAAAECHQUErI7YhiJAgAABAgTGEBCwxthnqyRAgAABAgQ6CghYHbENRYAAAQIECIwhIGCNsc9WSYAAAQIECHQUELA6YhuKAAECBAgQGENAwBpjn62SAAECBAgQ6CggYHXENhQBAgQIECAwhoCANcY+WyUBAgQIECDQUUDA6ohtKAIECBAgQGAMAQFrjH22SgIECBAgQKCjgIDVEdtQBAgQIECAwBgCAtYY+2yVBAgQIECAQEcBAasjtqEIECBAgACBMQQErDH22SoJECBAgACBjgICVkdsQxEgQIAAAQJjCAhYY+yzVRIgQIAAAQIdBQSsjtiGIkCAAAECBMYQELDG2GerJECAAAECBDoKCFgdsQ1FgAABAgQIjCEgYI2xz1ZJgAABAgQIdBQQsDpiG4oAAQIECBAYQ0DAGmOfrZIAAQIECBDoKCBgdcQ2FAECBAgQIDCGgIA1xj5bJQECBAgQINBRQMDqiG0oAgQIECBAYAwBAWuMfbZKAgQIECBAoKPA/wNT1m9v6LkFVgAAAABJRU5ErkJggg==;" vertex="1" parent="1">
          <mxGeometry x="170" y="65" width="330" height="330" as="geometry" />
        </mxCell>
        <mxCell id="946yB2kiyRNA8O-wq0YF-24" value="" style="rounded=0;whiteSpace=wrap;html=1;dashed=1;fillColor=none;fontColor=#ffffff;strokeColor=#6D1F00;container=1;dropTarget=1;collapsible=0;recursiveResize=1;" vertex="1" parent="1">
          <mxGeometry x="-80" y="65" width="280" height="295" as="geometry" />
        </mxCell>
        <mxCell id="946yB2kiyRNA8O-wq0YF-15" value="" style="group" vertex="1" connectable="0" parent="946yB2kiyRNA8O-wq0YF-24">
          <mxGeometry x="99.55555555555556" y="28.780487804878053" width="87.11111111111111" height="107.92682926829269" as="geometry" />
        </mxCell>
        <mxCell id="946yB2kiyRNA8O-wq0YF-6" value="" style="group;strokeColor=none;" vertex="1" connectable="0" parent="946yB2kiyRNA8O-wq0YF-15">
          <mxGeometry x="6.222222222222222" y="14.390243902439028" width="74.66666666666666" height="93.53658536585368" as="geometry" />
        </mxCell>
        <mxCell id="946yB2kiyRNA8O-wq0YF-2" value="" style="rounded=0;whiteSpace=wrap;html=1;fillColor=#a0522d;fontColor=#ffffff;strokeColor=#6D1F00;" vertex="1" parent="946yB2kiyRNA8O-wq0YF-6">
          <mxGeometry width="74.66666666666666" height="14.390243902439028" as="geometry" />
        </mxCell>
        <mxCell id="946yB2kiyRNA8O-wq0YF-3" value="" style="endArrow=none;html=1;rounded=0;exitX=0;exitY=0.5;exitDx=0;exitDy=0;entryX=1;entryY=0.5;entryDx=0;entryDy=0;strokeColor=#6D1F00;fillColor=#a0522d;" edge="1" parent="946yB2kiyRNA8O-wq0YF-6" source="946yB2kiyRNA8O-wq0YF-2" target="946yB2kiyRNA8O-wq0YF-2">
          <mxGeometry width="50" height="50" relative="1" as="geometry">
            <mxPoint x="-12.444444444444445" y="93.53658536585368" as="sourcePoint" />
            <mxPoint x="18.666666666666664" y="57.56097560975611" as="targetPoint" />
          </mxGeometry>
        </mxCell>
        <mxCell id="946yB2kiyRNA8O-wq0YF-4" value="" style="endArrow=none;html=1;rounded=0;entryX=0;entryY=1;entryDx=0;entryDy=0;fillColor=#a0522d;strokeColor=#6D1F00;" edge="1" parent="946yB2kiyRNA8O-wq0YF-6" target="946yB2kiyRNA8O-wq0YF-2">
          <mxGeometry width="50" height="50" relative="1" as="geometry">
            <mxPoint y="93.53658536585368" as="sourcePoint" />
            <mxPoint x="18.666666666666664" y="57.56097560975611" as="targetPoint" />
          </mxGeometry>
        </mxCell>
        <mxCell id="946yB2kiyRNA8O-wq0YF-5" value="" style="endArrow=none;html=1;rounded=0;entryX=1;entryY=1;entryDx=0;entryDy=0;fillColor=#a0522d;strokeColor=#6D1F00;" edge="1" parent="946yB2kiyRNA8O-wq0YF-6" target="946yB2kiyRNA8O-wq0YF-2">
          <mxGeometry width="50" height="50" relative="1" as="geometry">
            <mxPoint x="74.66666666666666" y="93.53658536585368" as="sourcePoint" />
            <mxPoint x="74.66666666666666" y="21.58536585365854" as="targetPoint" />
          </mxGeometry>
        </mxCell>
        <mxCell id="946yB2kiyRNA8O-wq0YF-7" value="" style="rounded=0;whiteSpace=wrap;html=1;fillColor=#a0522d;fontColor=#ffffff;strokeColor=#6D1F00;" vertex="1" parent="946yB2kiyRNA8O-wq0YF-15">
          <mxGeometry width="87.11111111111111" height="14.390243902439028" as="geometry" />
        </mxCell>
        <mxCell id="946yB2kiyRNA8O-wq0YF-16" value="" style="group" vertex="1" connectable="0" parent="946yB2kiyRNA8O-wq0YF-24">
          <mxGeometry x="161.77777777777777" y="151.09756097560978" width="87.11111111111111" height="107.92682926829269" as="geometry" />
        </mxCell>
        <mxCell id="946yB2kiyRNA8O-wq0YF-17" value="" style="group;strokeColor=none;" vertex="1" connectable="0" parent="946yB2kiyRNA8O-wq0YF-16">
          <mxGeometry x="6.222222222222222" y="14.390243902439028" width="74.66666666666666" height="93.53658536585368" as="geometry" />
        </mxCell>
        <mxCell id="946yB2kiyRNA8O-wq0YF-18" value="" style="rounded=0;whiteSpace=wrap;html=1;fillColor=#a0522d;fontColor=#ffffff;strokeColor=#6D1F00;" vertex="1" parent="946yB2kiyRNA8O-wq0YF-17">
          <mxGeometry width="74.66666666666666" height="14.390243902439028" as="geometry" />
        </mxCell>
        <mxCell id="946yB2kiyRNA8O-wq0YF-19" value="" style="endArrow=none;html=1;rounded=0;exitX=0;exitY=0.5;exitDx=0;exitDy=0;entryX=1;entryY=0.5;entryDx=0;entryDy=0;strokeColor=#6D1F00;fillColor=#a0522d;" edge="1" parent="946yB2kiyRNA8O-wq0YF-17" source="946yB2kiyRNA8O-wq0YF-18" target="946yB2kiyRNA8O-wq0YF-18">
          <mxGeometry width="50" height="50" relative="1" as="geometry">
            <mxPoint x="-12.444444444444445" y="93.53658536585368" as="sourcePoint" />
            <mxPoint x="18.666666666666664" y="57.56097560975611" as="targetPoint" />
          </mxGeometry>
        </mxCell>
        <mxCell id="946yB2kiyRNA8O-wq0YF-20" value="" style="endArrow=none;html=1;rounded=0;entryX=0;entryY=1;entryDx=0;entryDy=0;fillColor=#a0522d;strokeColor=#6D1F00;" edge="1" parent="946yB2kiyRNA8O-wq0YF-17" target="946yB2kiyRNA8O-wq0YF-18">
          <mxGeometry width="50" height="50" relative="1" as="geometry">
            <mxPoint y="93.53658536585368" as="sourcePoint" />
            <mxPoint x="18.666666666666664" y="57.56097560975611" as="targetPoint" />
          </mxGeometry>
        </mxCell>
        <mxCell id="946yB2kiyRNA8O-wq0YF-21" value="" style="endArrow=none;html=1;rounded=0;entryX=1;entryY=1;entryDx=0;entryDy=0;fillColor=#a0522d;strokeColor=#6D1F00;" edge="1" parent="946yB2kiyRNA8O-wq0YF-17" target="946yB2kiyRNA8O-wq0YF-18">
          <mxGeometry width="50" height="50" relative="1" as="geometry">
            <mxPoint x="74.66666666666666" y="93.53658536585368" as="sourcePoint" />
            <mxPoint x="74.66666666666666" y="21.58536585365854" as="targetPoint" />
          </mxGeometry>
        </mxCell>
        <mxCell id="946yB2kiyRNA8O-wq0YF-22" value="" style="rounded=0;whiteSpace=wrap;html=1;fillColor=#a0522d;fontColor=#ffffff;strokeColor=#6D1F00;" vertex="1" parent="946yB2kiyRNA8O-wq0YF-16">
          <mxGeometry width="87.11111111111111" height="14.390243902439028" as="geometry" />
        </mxCell>
        <mxCell id="946yB2kiyRNA8O-wq0YF-14" value="" style="group" vertex="1" connectable="0" parent="946yB2kiyRNA8O-wq0YF-24">
          <mxGeometry x="31.111111111111107" y="151.09756097560978" width="87.11111111111111" height="107.92682926829269" as="geometry" />
        </mxCell>
        <mxCell id="946yB2kiyRNA8O-wq0YF-8" value="" style="group;strokeColor=none;" vertex="1" connectable="0" parent="946yB2kiyRNA8O-wq0YF-14">
          <mxGeometry x="6.222222222222222" y="14.390243902439028" width="74.66666666666666" height="93.53658536585368" as="geometry" />
        </mxCell>
        <mxCell id="946yB2kiyRNA8O-wq0YF-9" value="" style="rounded=0;whiteSpace=wrap;html=1;fillColor=#a0522d;fontColor=#ffffff;strokeColor=#6D1F00;" vertex="1" parent="946yB2kiyRNA8O-wq0YF-8">
          <mxGeometry width="74.66666666666666" height="14.390243902439028" as="geometry" />
        </mxCell>
        <mxCell id="946yB2kiyRNA8O-wq0YF-10" value="" style="endArrow=none;html=1;rounded=0;exitX=0;exitY=0.5;exitDx=0;exitDy=0;entryX=1;entryY=0.5;entryDx=0;entryDy=0;strokeColor=#6D1F00;fillColor=#a0522d;" edge="1" parent="946yB2kiyRNA8O-wq0YF-8" source="946yB2kiyRNA8O-wq0YF-9" target="946yB2kiyRNA8O-wq0YF-9">
          <mxGeometry width="50" height="50" relative="1" as="geometry">
            <mxPoint x="-12.444444444444445" y="93.53658536585368" as="sourcePoint" />
            <mxPoint x="18.666666666666664" y="57.56097560975611" as="targetPoint" />
          </mxGeometry>
        </mxCell>
        <mxCell id="946yB2kiyRNA8O-wq0YF-11" value="" style="endArrow=none;html=1;rounded=0;entryX=0;entryY=1;entryDx=0;entryDy=0;fillColor=#a0522d;strokeColor=#6D1F00;" edge="1" parent="946yB2kiyRNA8O-wq0YF-8" target="946yB2kiyRNA8O-wq0YF-9">
          <mxGeometry width="50" height="50" relative="1" as="geometry">
            <mxPoint y="93.53658536585368" as="sourcePoint" />
            <mxPoint x="18.666666666666664" y="57.56097560975611" as="targetPoint" />
          </mxGeometry>
        </mxCell>
        <mxCell id="946yB2kiyRNA8O-wq0YF-12" value="" style="endArrow=none;html=1;rounded=0;entryX=1;entryY=1;entryDx=0;entryDy=0;fillColor=#a0522d;strokeColor=#6D1F00;" edge="1" parent="946yB2kiyRNA8O-wq0YF-8" target="946yB2kiyRNA8O-wq0YF-9">
          <mxGeometry width="50" height="50" relative="1" as="geometry">
            <mxPoint x="74.66666666666666" y="93.53658536585368" as="sourcePoint" />
            <mxPoint x="74.66666666666666" y="21.58536585365854" as="targetPoint" />
          </mxGeometry>
        </mxCell>
        <mxCell id="946yB2kiyRNA8O-wq0YF-13" value="" style="rounded=0;whiteSpace=wrap;html=1;fillColor=#a0522d;fontColor=#ffffff;strokeColor=#6D1F00;" vertex="1" parent="946yB2kiyRNA8O-wq0YF-14">
          <mxGeometry width="87.11111111111111" height="14.390243902439028" as="geometry" />
        </mxCell>
        <mxCell id="946yB2kiyRNA8O-wq0YF-25" value="&lt;font style=&quot;color: light-dark(rgb(161, 82, 46), rgb(237, 237, 237)); font-size: 15px;&quot;&gt;1&lt;/font&gt;" style="text;html=1;align=center;verticalAlign=middle;whiteSpace=wrap;rounded=0;" vertex="1" parent="946yB2kiyRNA8O-wq0YF-24">
          <mxGeometry x="118.22222222222223" y="7.195121951219513" width="37.33333333333333" height="21.585365853658534" as="geometry" />
        </mxCell>
        <mxCell id="946yB2kiyRNA8O-wq0YF-26" value="&lt;font style=&quot;color: light-dark(rgb(161, 82, 46), rgb(237, 237, 237)); font-size: 15px;&quot;&gt;2&lt;/font&gt;" style="text;html=1;align=center;verticalAlign=middle;whiteSpace=wrap;rounded=0;" vertex="1" parent="946yB2kiyRNA8O-wq0YF-24">
          <mxGeometry x="56" y="129.51219512195124" width="37.33333333333333" height="21.585365853658534" as="geometry" />
        </mxCell>
        <mxCell id="946yB2kiyRNA8O-wq0YF-27" value="&lt;font style=&quot;color: light-dark(rgb(161, 82, 46), rgb(237, 237, 237)); font-size: 15px;&quot;&gt;3&lt;/font&gt;" style="text;html=1;align=center;verticalAlign=middle;whiteSpace=wrap;rounded=0;" vertex="1" parent="946yB2kiyRNA8O-wq0YF-24">
          <mxGeometry x="186.66666666666666" y="129.51219512195124" width="37.33333333333333" height="21.585365853658534" as="geometry" />
        </mxCell>
        <mxCell id="946yB2kiyRNA8O-wq0YF-28" value="" style="rounded=0;whiteSpace=wrap;html=1;" vertex="1" parent="1">
          <mxGeometry x="580" y="110" width="220" height="240" as="geometry" />
        </mxCell>
        <mxCell id="946yB2kiyRNA8O-wq0YF-47" style="edgeStyle=orthogonalEdgeStyle;rounded=0;orthogonalLoop=1;jettySize=auto;html=1;entryX=0;entryY=0.5;entryDx=0;entryDy=0;fillColor=#d5e8d4;strokeColor=#82b366;" edge="1" parent="1" source="946yB2kiyRNA8O-wq0YF-29" target="946yB2kiyRNA8O-wq0YF-42">
          <mxGeometry relative="1" as="geometry" />
        </mxCell>
        <mxCell id="946yB2kiyRNA8O-wq0YF-29" value="Optocoupler&lt;br&gt;(UP)" style="rounded=0;whiteSpace=wrap;html=1;fillColor=#d5e8d4;strokeColor=#82b366;" vertex="1" parent="1">
          <mxGeometry x="430" y="65" width="76" height="50" as="geometry" />
        </mxCell>
        <mxCell id="946yB2kiyRNA8O-wq0YF-48" style="edgeStyle=orthogonalEdgeStyle;rounded=0;orthogonalLoop=1;jettySize=auto;html=1;entryX=0;entryY=0.5;entryDx=0;entryDy=0;fillColor=#f8cecc;strokeColor=#b85450;" edge="1" parent="1" source="946yB2kiyRNA8O-wq0YF-30" target="946yB2kiyRNA8O-wq0YF-43">
          <mxGeometry relative="1" as="geometry">
            <Array as="points">
              <mxPoint x="530" y="155" />
              <mxPoint x="530" y="188" />
            </Array>
          </mxGeometry>
        </mxCell>
        <mxCell id="946yB2kiyRNA8O-wq0YF-30" value="Optocoupler&lt;br&gt;(RIGHT)" style="rounded=0;whiteSpace=wrap;html=1;fillColor=#f8cecc;strokeColor=#b85450;" vertex="1" parent="1">
          <mxGeometry x="430" y="130" width="76" height="50" as="geometry" />
        </mxCell>
        <mxCell id="946yB2kiyRNA8O-wq0YF-49" style="edgeStyle=orthogonalEdgeStyle;rounded=0;orthogonalLoop=1;jettySize=auto;html=1;entryX=0;entryY=0.5;entryDx=0;entryDy=0;" edge="1" parent="1" source="946yB2kiyRNA8O-wq0YF-31" target="946yB2kiyRNA8O-wq0YF-44">
          <mxGeometry relative="1" as="geometry" />
        </mxCell>
        <mxCell id="946yB2kiyRNA8O-wq0YF-31" value="Optocoupler&lt;br&gt;(DOWN)" style="rounded=0;whiteSpace=wrap;html=1;fillColor=#f5f5f5;strokeColor=#666666;fontColor=#333333;" vertex="1" parent="1">
          <mxGeometry x="430" y="200" width="76" height="50" as="geometry" />
        </mxCell>
        <mxCell id="946yB2kiyRNA8O-wq0YF-50" style="edgeStyle=orthogonalEdgeStyle;rounded=0;orthogonalLoop=1;jettySize=auto;html=1;entryX=0;entryY=0.5;entryDx=0;entryDy=0;fillColor=#e1d5e7;strokeColor=#9673a6;" edge="1" parent="1" source="946yB2kiyRNA8O-wq0YF-32" target="946yB2kiyRNA8O-wq0YF-45">
          <mxGeometry relative="1" as="geometry">
            <Array as="points">
              <mxPoint x="530" y="305" />
              <mxPoint x="530" y="257" />
            </Array>
          </mxGeometry>
        </mxCell>
        <mxCell id="946yB2kiyRNA8O-wq0YF-32" value="Optocoupler&lt;br&gt;(LEFT)" style="rounded=0;whiteSpace=wrap;html=1;fillColor=#e1d5e7;strokeColor=#9673a6;" vertex="1" parent="1">
          <mxGeometry x="430" y="280" width="76" height="50" as="geometry" />
        </mxCell>
        <mxCell id="946yB2kiyRNA8O-wq0YF-51" style="edgeStyle=orthogonalEdgeStyle;rounded=0;orthogonalLoop=1;jettySize=auto;html=1;entryX=0;entryY=0.5;entryDx=0;entryDy=0;fillColor=#fff2cc;strokeColor=#d6b656;" edge="1" parent="1" source="946yB2kiyRNA8O-wq0YF-33" target="946yB2kiyRNA8O-wq0YF-46">
          <mxGeometry relative="1" as="geometry">
            <Array as="points">
              <mxPoint x="540" y="375" />
              <mxPoint x="540" y="288" />
            </Array>
          </mxGeometry>
        </mxCell>
        <mxCell id="946yB2kiyRNA8O-wq0YF-33" value="Optocoupler&lt;div&gt;(STOP)&lt;/div&gt;" style="rounded=0;whiteSpace=wrap;html=1;fillColor=#fff2cc;strokeColor=#d6b656;" vertex="1" parent="1">
          <mxGeometry x="430" y="350" width="76" height="50" as="geometry" />
        </mxCell>
        <mxCell id="946yB2kiyRNA8O-wq0YF-34" value="" style="endArrow=none;html=1;rounded=0;entryX=0;entryY=0.5;entryDx=0;entryDy=0;edgeStyle=orthogonalEdgeStyle;anchorPointDirection=0;fillColor=#d5e8d4;strokeColor=#82b366;" edge="1" parent="1" target="946yB2kiyRNA8O-wq0YF-29">
          <mxGeometry width="50" height="50" relative="1" as="geometry">
            <mxPoint x="340" y="200" as="sourcePoint" />
            <mxPoint x="414" y="80" as="targetPoint" />
          </mxGeometry>
        </mxCell>
        <mxCell id="946yB2kiyRNA8O-wq0YF-37" value="" style="endArrow=none;html=1;rounded=0;anchorPointDirection=0;edgeStyle=orthogonalEdgeStyle;entryX=0;entryY=0.5;entryDx=0;entryDy=0;exitX=0.545;exitY=0.439;exitDx=0;exitDy=0;exitPerimeter=0;fillColor=#f8cecc;strokeColor=#b85450;" edge="1" parent="1" source="946yB2kiyRNA8O-wq0YF-1" target="946yB2kiyRNA8O-wq0YF-30">
          <mxGeometry width="50" height="50" relative="1" as="geometry">
            <mxPoint x="199.99999999999977" y="50" as="sourcePoint" />
            <mxPoint x="304" y="165" as="targetPoint" />
            <Array as="points">
              <mxPoint x="410" y="210" />
              <mxPoint x="410" y="155" />
            </Array>
          </mxGeometry>
        </mxCell>
        <mxCell id="946yB2kiyRNA8O-wq0YF-38" value="" style="endArrow=none;html=1;rounded=0;entryX=0;entryY=0.5;entryDx=0;entryDy=0;edgeStyle=orthogonalEdgeStyle;anchorPointDirection=0;exitX=0.5;exitY=0.47;exitDx=0;exitDy=0;exitPerimeter=0;" edge="1" parent="1" target="946yB2kiyRNA8O-wq0YF-31">
          <mxGeometry width="50" height="50" relative="1" as="geometry">
            <mxPoint x="335" y="224.10000000000002" as="sourcePoint" />
            <mxPoint x="430" y="234" as="targetPoint" />
            <Array as="points">
              <mxPoint x="430" y="224" />
            </Array>
          </mxGeometry>
        </mxCell>
        <mxCell id="946yB2kiyRNA8O-wq0YF-39" value="" style="endArrow=none;html=1;rounded=0;entryX=0;entryY=0.5;entryDx=0;entryDy=0;exitX=0.455;exitY=0.439;exitDx=0;exitDy=0;exitPerimeter=0;edgeStyle=orthogonalEdgeStyle;fillColor=#e1d5e7;strokeColor=#9673a6;" edge="1" parent="1" source="946yB2kiyRNA8O-wq0YF-1" target="946yB2kiyRNA8O-wq0YF-32">
          <mxGeometry width="50" height="50" relative="1" as="geometry">
            <mxPoint x="300" y="270" as="sourcePoint" />
            <mxPoint x="350" y="220" as="targetPoint" />
            <Array as="points">
              <mxPoint x="320" y="305" />
            </Array>
          </mxGeometry>
        </mxCell>
        <mxCell id="946yB2kiyRNA8O-wq0YF-41" value="" style="endArrow=none;html=1;rounded=0;entryX=0;entryY=0.5;entryDx=0;entryDy=0;edgeStyle=orthogonalEdgeStyle;exitX=0.485;exitY=0.439;exitDx=0;exitDy=0;exitPerimeter=0;fillColor=#ffe6cc;strokeColor=#d79b00;" edge="1" parent="1" target="946yB2kiyRNA8O-wq0YF-33">
          <mxGeometry width="50" height="50" relative="1" as="geometry">
            <mxPoint x="333.04999999999995" y="211.87" as="sourcePoint" />
            <mxPoint x="433" y="377" as="targetPoint" />
            <Array as="points">
              <mxPoint x="340" y="212" />
              <mxPoint x="340" y="375" />
            </Array>
          </mxGeometry>
        </mxCell>
        <mxCell id="946yB2kiyRNA8O-wq0YF-56" style="edgeStyle=orthogonalEdgeStyle;rounded=0;orthogonalLoop=1;jettySize=auto;html=1;entryX=0.25;entryY=0;entryDx=0;entryDy=0;" edge="1" parent="1" source="946yB2kiyRNA8O-wq0YF-42" target="946yB2kiyRNA8O-wq0YF-53">
          <mxGeometry relative="1" as="geometry" />
        </mxCell>
        <mxCell id="946yB2kiyRNA8O-wq0YF-42" value="GPIO" style="rounded=0;whiteSpace=wrap;html=1;fillColor=#d5e8d4;strokeColor=#82b366;" vertex="1" parent="1">
          <mxGeometry x="580" y="142.5" width="40" height="25" as="geometry" />
        </mxCell>
        <mxCell id="946yB2kiyRNA8O-wq0YF-43" value="GPIO" style="rounded=0;whiteSpace=wrap;html=1;fillColor=#f8cecc;strokeColor=#b85450;" vertex="1" parent="1">
          <mxGeometry x="580" y="175" width="40" height="25" as="geometry" />
        </mxCell>
        <mxCell id="946yB2kiyRNA8O-wq0YF-58" style="edgeStyle=orthogonalEdgeStyle;rounded=0;orthogonalLoop=1;jettySize=auto;html=1;entryX=0;entryY=0.5;entryDx=0;entryDy=0;" edge="1" parent="1" source="946yB2kiyRNA8O-wq0YF-44" target="946yB2kiyRNA8O-wq0YF-53">
          <mxGeometry relative="1" as="geometry" />
        </mxCell>
        <mxCell id="946yB2kiyRNA8O-wq0YF-44" value="GPIO" style="rounded=0;whiteSpace=wrap;html=1;" vertex="1" parent="1">
          <mxGeometry x="580" y="212" width="40" height="25" as="geometry" />
        </mxCell>
        <mxCell id="946yB2kiyRNA8O-wq0YF-59" style="edgeStyle=orthogonalEdgeStyle;rounded=0;orthogonalLoop=1;jettySize=auto;html=1;entryX=0.022;entryY=0.892;entryDx=0;entryDy=0;entryPerimeter=0;" edge="1" parent="1" source="946yB2kiyRNA8O-wq0YF-45" target="946yB2kiyRNA8O-wq0YF-53">
          <mxGeometry relative="1" as="geometry" />
        </mxCell>
        <mxCell id="946yB2kiyRNA8O-wq0YF-45" value="GPIO" style="rounded=0;whiteSpace=wrap;html=1;fillColor=#e1d5e7;strokeColor=#9673a6;" vertex="1" parent="1">
          <mxGeometry x="580" y="244.5" width="40" height="25" as="geometry" />
        </mxCell>
        <mxCell id="946yB2kiyRNA8O-wq0YF-60" style="edgeStyle=orthogonalEdgeStyle;rounded=0;orthogonalLoop=1;jettySize=auto;html=1;entryX=0.25;entryY=1;entryDx=0;entryDy=0;" edge="1" parent="1" source="946yB2kiyRNA8O-wq0YF-46" target="946yB2kiyRNA8O-wq0YF-53">
          <mxGeometry relative="1" as="geometry" />
        </mxCell>
        <mxCell id="946yB2kiyRNA8O-wq0YF-46" value="GPIO" style="rounded=0;whiteSpace=wrap;html=1;fillColor=#fff2cc;strokeColor=#d6b656;" vertex="1" parent="1">
          <mxGeometry x="580" y="276" width="40" height="25" as="geometry" />
        </mxCell>
        <mxCell id="946yB2kiyRNA8O-wq0YF-52" value="&lt;b&gt;ESP32 Board&lt;/b&gt;" style="text;html=1;align=center;verticalAlign=middle;whiteSpace=wrap;rounded=0;" vertex="1" parent="1">
          <mxGeometry x="650" y="110" width="90" height="30" as="geometry" />
        </mxCell>
        <mxCell id="946yB2kiyRNA8O-wq0YF-61" value="" style="edgeStyle=orthogonalEdgeStyle;rounded=0;orthogonalLoop=1;jettySize=auto;html=1;" edge="1" parent="1" source="946yB2kiyRNA8O-wq0YF-53" target="946yB2kiyRNA8O-wq0YF-55">
          <mxGeometry relative="1" as="geometry" />
        </mxCell>
        <mxCell id="946yB2kiyRNA8O-wq0YF-53" value="Software" style="rounded=0;whiteSpace=wrap;html=1;" vertex="1" parent="1">
          <mxGeometry x="650" y="180" width="60" height="86" as="geometry" />
        </mxCell>
        <mxCell id="946yB2kiyRNA8O-wq0YF-66" style="edgeStyle=orthogonalEdgeStyle;rounded=0;orthogonalLoop=1;jettySize=auto;html=1;startArrow=classic;startFill=1;entryX=0;entryY=0.5;entryDx=0;entryDy=0;" edge="1" parent="1" target="946yB2kiyRNA8O-wq0YF-65">
          <mxGeometry relative="1" as="geometry">
            <mxPoint x="790" y="222.72" as="sourcePoint" />
            <mxPoint x="950" y="223" as="targetPoint" />
          </mxGeometry>
        </mxCell>
        <mxCell id="946yB2kiyRNA8O-wq0YF-70" value="Pub/Sub" style="edgeLabel;html=1;align=center;verticalAlign=middle;resizable=0;points=[];" vertex="1" connectable="0" parent="946yB2kiyRNA8O-wq0YF-66">
          <mxGeometry x="-0.1517" relative="1" as="geometry">
            <mxPoint x="16" as="offset" />
          </mxGeometry>
        </mxCell>
        <mxCell id="946yB2kiyRNA8O-wq0YF-55" value="MQTT" style="rounded=0;whiteSpace=wrap;html=1;" vertex="1" parent="1">
          <mxGeometry x="730" y="180" width="60" height="86" as="geometry" />
        </mxCell>
        <mxCell id="946yB2kiyRNA8O-wq0YF-57" style="edgeStyle=orthogonalEdgeStyle;rounded=0;orthogonalLoop=1;jettySize=auto;html=1;entryX=0.004;entryY=0.084;entryDx=0;entryDy=0;entryPerimeter=0;" edge="1" parent="1" source="946yB2kiyRNA8O-wq0YF-43" target="946yB2kiyRNA8O-wq0YF-53">
          <mxGeometry relative="1" as="geometry" />
        </mxCell>
        <mxCell id="946yB2kiyRNA8O-wq0YF-71" value="COSMO |&amp;nbsp;&lt;div&gt;COSMO2WAY&lt;/div&gt;" style="endArrow=classic;html=1;rounded=0;exitX=1.001;exitY=0.465;exitDx=0;exitDy=0;entryX=0.052;entryY=0.429;entryDx=0;entryDy=0;entryPerimeter=0;exitPerimeter=0;edgeStyle=orthogonalEdgeStyle;startArrow=classic;startFill=1;" edge="1" parent="1" source="946yB2kiyRNA8O-wq0YF-24" target="946yB2kiyRNA8O-wq0YF-62">
          <mxGeometry width="50" height="50" relative="1" as="geometry">
            <mxPoint x="220" y="260" as="sourcePoint" />
            <mxPoint x="270" y="210" as="targetPoint" />
          </mxGeometry>
        </mxCell>
        <mxCell id="946yB2kiyRNA8O-wq0YF-76" value="&lt;font style=&quot;font-size: 15px;&quot;&gt;COSMO Mobilus Shutters x Home Assistant (MQTT) Adapter&lt;/font&gt;" style="text;html=1;align=center;verticalAlign=middle;whiteSpace=wrap;rounded=0;" vertex="1" parent="1">
          <mxGeometry x="435" y="-11" width="250" height="30" as="geometry" />
        </mxCell>
        <mxCell id="946yB2kiyRNA8O-wq0YF-77" value="&lt;font style=&quot;color: light-dark(rgb(114, 37, 2), rgb(237, 237, 237)); font-size: 15px;&quot;&gt;Shutters&lt;/font&gt;" style="text;html=1;align=center;verticalAlign=middle;whiteSpace=wrap;rounded=0;" vertex="1" parent="1">
          <mxGeometry x="30" y="29" width="60" height="30" as="geometry" />
        </mxCell>
        <mxCell id="946yB2kiyRNA8O-wq0YF-78" value="&lt;font style=&quot;color: light-dark(rgb(130, 161, 204), rgb(237, 237, 237)); font-size: 15px;&quot;&gt;Home Assistant&lt;/font&gt;" style="text;html=1;align=center;verticalAlign=middle;whiteSpace=wrap;rounded=0;" vertex="1" parent="1">
          <mxGeometry x="957.5" y="29" width="115" height="30" as="geometry" />
        </mxCell>
        <mxCell id="946yB2kiyRNA8O-wq0YF-62" value="" style="rounded=0;whiteSpace=wrap;html=1;dashed=1;fillColor=none;" vertex="1" parent="1">
          <mxGeometry x="270" y="40" width="580" height="380" as="geometry" />
        </mxCell>
      </root>
    </mxGraphModel>
  </diagram>
</mxfile>
